SplineFontDB: 3.2
FontName: UtoSerifOriya-Regular
FullName: Uto Serif Oriya Regular
FamilyName: Uto Serif Oriya
Weight: Regular
Copyright: Copyright 2022 The Noto Project Authors (https://github.com/notofonts/oriya)
Version: 1.051; ttfautohint (v1.8.4.7-5d5b)
ItalicAngle: 0
UnderlinePosition: -100
UnderlineWidth: 50
Ascent: 800
Descent: 200
InvalidEm: 0
sfntRevision: 0x00010d0e
LayerCount: 2
Layer: 0 1 "+BBcEMAQ0BD0EOAQ5 +BD8EOwQwBD0A" 1
Layer: 1 1 "+BB8ENQRABDUENAQ9BDgEOQAA +BD8EOwQwBD0A" 0
XUID: [1021 59 1751208496 11462]
StyleMap: 0x0040
FSType: 0
OS2Version: 4
OS2_WeightWidthSlopeOnly: 0
OS2_UseTypoMetrics: 1
CreationTime: 1627902463
ModificationTime: 1687646894
PfmFamily: 17
TTFWeight: 400
TTFWidth: 5
LineGap: 0
VLineGap: 0
Panose: 2 11 5 4 6 8 4 2 2 4
OS2TypoAscent: 917
OS2TypoAOffset: 0
OS2TypoDescent: -492
OS2TypoDOffset: 0
OS2TypoLinegap: 0
OS2WinAscent: 917
OS2WinAOffset: 0
OS2WinDescent: 492
OS2WinDOffset: 0
HheadAscent: 917
HheadAOffset: 0
HheadDescent: -492
HheadDOffset: 0
OS2SubXSize: 700
OS2SubYSize: 650
OS2SubXOff: 0
OS2SubYOff: 93
OS2SupXSize: 700
OS2SupYSize: 650
OS2SupXOff: 0
OS2SupYOff: 350
OS2StrikeYSize: 50
OS2StrikeYPos: 313
OS2CapHeight: 657
OS2XHeight: 657
OS2Vendor: 'GOOG'
OS2CodePages: 00000001.00000000
OS2UnicodeRanges: 00080000.00000000.00000000.00000000
Lookup: 1 0 0 "+BBUENAQ4BD0EOARHBD0EMARP +BD8EPgQ0BEEEQgQwBD0EPgQyBDoEMAAA lookup 0" { "+BBUENAQ4BD0EOARHBD0EMARP +BD8EPgQ0BEEEQgQwBD0EPgQyBDoEMAAA lookup 0 subtable"  } []
Lookup: 1 0 0 "+BBUENAQ4BD0EOARHBD0EMARP +BD8EPgQ0BEEEQgQwBD0EPgQyBDoEMAAA lookup 1" { "+BBUENAQ4BD0EOARHBD0EMARP +BD8EPgQ0BEEEQgQwBD0EPgQyBDoEMAAA lookup 1 subtable"  } []
Lookup: 1 0 0 "+BBUENAQ4BD0EOARHBD0EMARP +BD8EPgQ0BEEEQgQwBD0EPgQyBDoEMAAA lookup 2" { "+BBUENAQ4BD0EOARHBD0EMARP +BD8EPgQ0BEEEQgQwBD0EPgQyBDoEMAAA lookup 2 subtable"  } []
Lookup: 1 0 0 "+BBUENAQ4BD0EOARHBD0EMARP +BD8EPgQ0BEEEQgQwBD0EPgQyBDoEMAAA lookup 3" { "+BBUENAQ4BD0EOARHBD0EMARP +BD8EPgQ0BEEEQgQwBD0EPgQyBDoEMAAA lookup 3 subtable"  } []

StartChar: .notdef
Encoding: 65536 -1 0
Width: 600
GlyphClass: 1
Flags: W
LayerCount: 2
Fore
SplineSet
94 0 m 1,0,-1
 94 714 l 1,1,-1
 505 714 l 1,2,-1
 505 0 l 1,3,-1
 94 0 l 1,0,-1
145 51 m 1,4,-1
 454 51 l 1,5,-1
 454 663 l 1,6,-1
 145 663 l 1,7,-1
 145 51 l 1,4,-1
EndSplineSet
EndChar

StartChar: aorya
Encoding: 2821 2821 1
Width: 631
GlyphClass: 2
Flags: W
AnchorPoint: "+BBEENQQ3BEsEPARPBD0EPQQ+BDUA--3" 357 0 basechar 0
AnchorPoint: "+BBEENQQ3BEsEPARPBD0EPQQ+BDUA--2" 327 657 basechar 0
AnchorPoint: "+BBEENQQ3BEsEPARPBD0EPQQ+BDUA--0" 503 657 basechar 0
LayerCount: 2
Fore
SplineSet
503 0 m 1,0,-1
 503 111 l 1,1,2
 457 53 457 53 390 21.5 c 128,-1,3
 323 -10 323 -10 245 -10 c 0,4,5
 182 -10 182 -10 134 12 c 128,-1,6
 86 34 86 34 59.5 74.5 c 128,-1,7
 33 115 33 115 33 168 c 0,8,9
 33 242 33 242 76 286 c 0,10,11
 112 325 112 325 196 356 c 2,12,-1
 237 371 l 2,13,14
 320 402 320 402 347 434 c 0,15,16
 369 460 369 460 369 496 c 0,17,18
 369 543 369 543 349.5 574.5 c 128,-1,19
 330 606 330 606 301 606 c 0,20,21
 270 606 270 606 270 560 c 2,22,-1
 270 465 l 1,23,-1
 213 446 l 1,24,-1
 207 453 l 1,25,-1
 207 509 l 2,26,27
 207 551 207 551 188 579 c 128,-1,28
 169 607 169 607 140 607 c 0,29,30
 107 607 107 607 107 567 c 0,31,32
 107 526 107 526 148 464 c 1,33,-1
 83 427 l 1,34,35
 65 456 65 456 53 491.5 c 128,-1,36
 41 527 41 527 41 555 c 0,37,38
 41 586 41 586 57 611 c 128,-1,39
 73 636 73 636 98.5 651.5 c 128,-1,40
 124 667 124 667 154 667 c 0,41,42
 180 667 180 667 202 654 c 128,-1,43
 224 641 224 641 239 619 c 1,44,45
 254 640 254 640 276.5 653.5 c 128,-1,46
 299 667 299 667 324 667 c 0,47,48
 355 667 355 667 379.5 648 c 128,-1,49
 404 629 404 629 419 596.5 c 128,-1,50
 434 564 434 564 434 524 c 0,51,52
 434 426 434 426 368 373 c 0,53,54
 352 360 352 360 329.5 347.5 c 128,-1,55
 307 335 307 335 273 322 c 2,56,-1
 221 302 l 2,57,58
 161 279 161 279 133 249.5 c 128,-1,59
 105 220 105 220 105 179 c 0,60,61
 105 126 105 126 148.5 91.5 c 128,-1,62
 192 57 192 57 260 57 c 256,63,64
 328 57 328 57 391.5 90 c 128,-1,65
 455 123 455 123 503 181 c 1,66,-1
 503 650 l 1,67,-1
 563 664 l 1,68,-1
 570 657 l 1,69,-1
 570 7 l 1,70,-1
 510 -7 l 1,71,-1
 503 0 l 1,0,-1
EndSplineSet
EndChar

StartChar: iorya
Encoding: 2823 2823 3
Width: 685
GlyphClass: 2
Flags: W
AnchorPoint: "+BBEENQQ3BEsEPARPBD0EPQQ+BDUA--3" 329 0 basechar 0
AnchorPoint: "+BBEENQQ3BEsEPARPBD0EPQQ+BDUA--0" 437 657 basechar 0
LayerCount: 2
Fore
SplineSet
85 146 m 0,0,1
 85 207 85 207 105 251 c 1,2,3
 69 287 69 287 50.5 332.5 c 128,-1,4
 32 378 32 378 32 425 c 0,5,6
 32 492 32 492 67.5 546.5 c 128,-1,7
 103 601 103 601 168 634 c 128,-1,8
 233 667 233 667 323 667 c 0,9,10
 418 667 418 667 488.5 630.5 c 128,-1,11
 559 594 559 594 598 530 c 128,-1,12
 637 466 637 466 637 381 c 0,13,14
 637 306 637 306 611.5 244 c 128,-1,15
 586 182 586 182 555 129 c 1,16,-1
 683 8 l 1,17,-1
 636 -35 l 1,18,-1
 622 -35 l 1,19,-1
 501 100 l 1,20,-1
 501 125 l 1,21,22
 526 173 526 173 546 236.5 c 128,-1,23
 566 300 566 300 566 366 c 0,24,25
 566 443 566 443 532 495.5 c 128,-1,26
 498 548 498 548 440 574.5 c 128,-1,27
 382 601 382 601 311 601 c 0,28,29
 214 601 214 601 157 555 c 128,-1,30
 100 509 100 509 100 437 c 0,31,32
 100 403 100 403 116 371.5 c 128,-1,33
 132 340 132 340 162 318 c 1,34,35
 184 330 184 330 211 330 c 0,36,37
 261 330 261 330 289 282 c 1,38,39
 324 330 324 330 378 330 c 0,40,41
 427 330 427 330 453.5 286.5 c 128,-1,42
 480 243 480 243 480 174 c 0,43,44
 480 89 480 89 445.5 39.5 c 128,-1,45
 411 -10 411 -10 354 -10 c 0,46,47
 304 -10 304 -10 277 37 c 1,48,49
 243 -10 243 -10 187 -10 c 0,50,51
 138 -10 138 -10 111.5 33.5 c 128,-1,52
 85 77 85 77 85 146 c 0,0,1
147 168 m 0,53,54
 147 138 147 138 154.5 110 c 128,-1,55
 162 82 162 82 175 63.5 c 128,-1,56
 188 45 188 45 206 45 c 0,57,58
 228 45 228 45 239.5 74.5 c 128,-1,59
 251 104 251 104 251 150 c 0,60,61
 251 181 251 181 243.5 209.5 c 128,-1,62
 236 238 236 238 223 256.5 c 128,-1,63
 210 275 210 275 191 275 c 0,64,65
 179 275 179 275 170 264 c 2,66,-1
 154 229 l 1,67,68
 147 203 147 203 147 168 c 0,53,54
314 168 m 0,69,70
 314 138 314 138 321.5 110 c 128,-1,71
 329 82 329 82 342 63.5 c 128,-1,72
 355 45 355 45 373 45 c 0,73,74
 395 45 395 45 406.5 74.5 c 128,-1,75
 418 104 418 104 418 150 c 0,76,77
 418 181 418 181 410.5 209.5 c 128,-1,78
 403 238 403 238 390 256.5 c 128,-1,79
 377 275 377 275 358 275 c 0,80,81
 337 275 337 275 325.5 245 c 128,-1,82
 314 215 314 215 314 168 c 0,69,70
EndSplineSet
EndChar

StartChar: iiorya
Encoding: 2824 2824 4
Width: 691
GlyphClass: 2
Flags: W
AnchorPoint: "+BBEENQQ3BEsEPARPBD0EPQQ+BDUA--5" 401 0 basechar 0
AnchorPoint: "+BBEENQQ3BEsEPARPBD0EPQQ+BDUA--3" 334 0 basechar 0
AnchorPoint: "+BBEENQQ3BEsEPARPBD0EPQQ+BDUA--0" 495 657 basechar 0
LayerCount: 2
Fore
SplineSet
88 146 m 0,0,1
 88 172 88 172 92 196 c 1,2,3
 32 251 32 251 32 322 c 0,4,5
 32 376 32 376 64.5 416 c 128,-1,6
 97 456 97 456 156 469 c 1,7,8
 144 483 144 483 136.5 500 c 128,-1,9
 129 517 129 517 129 537 c 0,10,11
 129 569 129 569 157 598.5 c 128,-1,12
 185 628 185 628 235 647.5 c 128,-1,13
 285 667 285 667 349 667 c 0,14,15
 433 667 433 667 499 631.5 c 128,-1,16
 565 596 565 596 603.5 532 c 128,-1,17
 642 468 642 468 642 381 c 0,18,19
 642 308 642 308 617 244.5 c 128,-1,20
 592 181 592 181 560 129 c 1,21,-1
 689 7 l 1,22,-1
 641 -35 l 1,23,-1
 627 -35 l 1,24,-1
 506 100 l 1,25,-1
 506 125 l 1,26,27
 531 172 531 172 551 237 c 128,-1,28
 571 302 571 302 571 366 c 0,29,30
 571 445 571 445 538.5 497 c 128,-1,31
 506 549 506 549 452.5 575 c 128,-1,32
 399 601 399 601 336 601 c 0,33,34
 299 601 299 601 267 593 c 128,-1,35
 235 585 235 585 216 571 c 128,-1,36
 197 557 197 557 197 540 c 0,37,38
 197 529 197 529 208.5 513.5 c 128,-1,39
 220 498 220 498 251 481 c 128,-1,40
 282 464 282 464 338 449 c 1,41,-1
 338 439 l 1,42,-1
 296 394 l 1,43,44
 278 405 278 405 252.5 413 c 128,-1,45
 227 421 227 421 199 421 c 0,46,47
 159 421 159 421 129.5 400.5 c 128,-1,48
 100 380 100 380 100 339 c 0,49,50
 100 305 100 305 124 281 c 1,51,52
 159 330 159 330 214 330 c 0,53,54
 264 330 264 330 292 282 c 1,55,56
 327 330 327 330 381 330 c 0,57,58
 430 330 430 330 456.5 286.5 c 128,-1,59
 483 243 483 243 483 174 c 0,60,61
 483 89 483 89 448.5 39.5 c 128,-1,62
 414 -10 414 -10 357 -10 c 0,63,64
 307 -10 307 -10 280 37 c 1,65,66
 246 -10 246 -10 190 -10 c 0,67,68
 141 -10 141 -10 114.5 33.5 c 128,-1,69
 88 77 88 77 88 146 c 0,0,1
150 168 m 0,70,71
 150 138 150 138 157.5 110 c 128,-1,72
 165 82 165 82 178 63.5 c 128,-1,73
 191 45 191 45 209 45 c 0,74,75
 231 45 231 45 242.5 74.5 c 128,-1,76
 254 104 254 104 254 150 c 0,77,78
 254 181 254 181 246.5 209.5 c 128,-1,79
 239 238 239 238 226 256.5 c 128,-1,80
 213 275 213 275 194 275 c 0,81,82
 173 275 173 275 161.5 245 c 128,-1,83
 150 215 150 215 150 168 c 0,70,71
317 168 m 0,84,85
 317 138 317 138 324.5 110 c 128,-1,86
 332 82 332 82 345 63.5 c 128,-1,87
 358 45 358 45 376 45 c 0,88,89
 398 45 398 45 409.5 74.5 c 128,-1,90
 421 104 421 104 421 150 c 0,91,92
 421 181 421 181 413.5 209.5 c 128,-1,93
 406 238 406 238 393 256.5 c 128,-1,94
 380 275 380 275 361 275 c 0,95,96
 340 275 340 275 328.5 245 c 128,-1,97
 317 215 317 215 317 168 c 0,84,85
EndSplineSet
EndChar

StartChar: uorya
Encoding: 2825 2825 5
Width: 685
GlyphClass: 2
Flags: W
AnchorPoint: "+BBEENQQ3BEsEPARPBD0EPQQ+BDUA--5" 359 4 basechar 0
AnchorPoint: "+BBEENQQ3BEsEPARPBD0EPQQ+BDUA--3" 297 0 basechar 0
AnchorPoint: "+BBEENQQ3BEsEPARPBD0EPQQ+BDUA--0" 514 657 basechar 0
LayerCount: 2
Fore
SplineSet
86 144 m 0,0,1
 86 169 86 169 93.5 193.5 c 128,-1,2
 101 218 101 218 114 242 c 1,3,4
 74 278 74 278 53 326.5 c 128,-1,5
 32 375 32 375 32 425 c 0,6,7
 32 492 32 492 67.5 546.5 c 128,-1,8
 103 601 103 601 168 634 c 128,-1,9
 233 667 233 667 323 667 c 0,10,11
 418 667 418 667 488.5 630.5 c 128,-1,12
 559 594 559 594 598 530 c 128,-1,13
 637 466 637 466 637 381 c 0,14,15
 637 306 637 306 611.5 244 c 128,-1,16
 586 182 586 182 555 129 c 1,17,-1
 683 8 l 1,18,-1
 636 -35 l 1,19,-1
 622 -35 l 1,20,-1
 501 100 l 1,21,-1
 501 125 l 1,22,23
 526 173 526 173 546 236.5 c 128,-1,24
 566 300 566 300 566 366 c 0,25,26
 566 443 566 443 532 495.5 c 128,-1,27
 498 548 498 548 440 574.5 c 128,-1,28
 382 601 382 601 311 601 c 0,29,30
 214 601 214 601 157 555 c 128,-1,31
 100 509 100 509 100 437 c 0,32,33
 100 401 100 401 117.5 368.5 c 128,-1,34
 135 336 135 336 166 314 c 1,35,36
 181 330 181 330 196.5 345.5 c 128,-1,37
 212 361 212 361 228 376 c 1,38,-1
 265 339 l 1,39,40
 213 290 213 290 181.5 243 c 128,-1,41
 150 196 150 196 150 158 c 0,42,43
 150 110 150 110 188 82.5 c 128,-1,44
 226 55 226 55 295 55 c 0,45,46
 342 55 342 55 377.5 72.5 c 128,-1,47
 413 90 413 90 413 115 c 0,48,49
 413 141 413 141 388 169 c 128,-1,50
 363 197 363 197 321 216 c 1,51,52
 303 200 303 200 283 183 c 1,53,-1
 255 208 l 1,54,55
 294 249 294 249 330.5 289.5 c 128,-1,56
 367 330 367 330 397 366 c 1,57,-1
 435 329 l 1,58,59
 409 299 409 299 378 269 c 1,60,61
 426 229 426 229 448 190.5 c 128,-1,62
 470 152 470 152 470 118 c 0,63,64
 470 85 470 85 448 55.5 c 128,-1,65
 426 26 426 26 384.5 8 c 128,-1,66
 343 -10 343 -10 283 -10 c 0,67,68
 189 -10 189 -10 137.5 31 c 128,-1,69
 86 72 86 72 86 144 c 0,0,1
EndSplineSet
EndChar

StartChar: uuorya
Encoding: 2826 2826 6
Width: 674
GlyphClass: 2
Flags: W
AnchorPoint: "+BBEENQQ3BEsEPARPBD0EPQQ+BDUA--3" 329 0 basechar 0
AnchorPoint: "+BBEENQQ3BEsEPARPBD0EPQQ+BDUA--0" 480 657 basechar 0
LayerCount: 2
Fore
SplineSet
90 144 m 0,0,1
 90 167 90 167 96.5 190 c 128,-1,2
 103 213 103 213 115 235 c 1,3,4
 75 274 75 274 53.5 326 c 128,-1,5
 32 378 32 378 32 430 c 0,6,7
 32 496 32 496 65.5 549.5 c 128,-1,8
 99 603 99 603 163 635 c 128,-1,9
 227 667 227 667 317 667 c 256,10,11
 407 667 407 667 471.5 634 c 128,-1,12
 536 601 536 601 570.5 547.5 c 128,-1,13
 605 494 605 494 605 434 c 0,14,15
 605 395 605 395 593 360.5 c 128,-1,16
 581 326 581 326 565 298 c 1,17,18
 588 292 588 292 609.5 277 c 128,-1,19
 631 262 631 262 631 231 c 0,20,21
 631 202 631 202 610.5 174.5 c 128,-1,22
 590 147 590 147 562 121 c 1,23,-1
 683 7 l 1,24,-1
 636 -35 l 1,25,-1
 622 -35 l 1,26,-1
 500 100 l 1,27,-1
 500 128 l 1,28,29
 537 162 537 162 550.5 180 c 128,-1,30
 564 198 564 198 564 214 c 0,31,32
 564 228 564 228 547.5 236 c 128,-1,33
 531 244 531 244 493 247 c 1,34,-1
 492 272 l 1,35,36
 511 296 511 296 523.5 333 c 128,-1,37
 536 370 536 370 536 409 c 0,38,39
 536 465 536 465 507.5 508 c 128,-1,40
 479 551 479 551 427.5 576 c 128,-1,41
 376 601 376 601 307 601 c 0,42,43
 207 601 207 601 153.5 557 c 128,-1,44
 100 513 100 513 100 442 c 0,45,46
 100 402 100 402 119 368 c 128,-1,47
 138 334 138 334 165 308 c 1,48,49
 180 326 180 326 197 343 c 128,-1,50
 214 360 214 360 232 376 c 1,51,-1
 269 339 l 1,52,53
 217 290 217 290 185.5 243 c 128,-1,54
 154 196 154 196 154 158 c 0,55,56
 154 110 154 110 192 82.5 c 128,-1,57
 230 55 230 55 299 55 c 0,58,59
 346 55 346 55 381.5 72.5 c 128,-1,60
 417 90 417 90 417 115 c 0,61,62
 417 141 417 141 392 169 c 128,-1,63
 367 197 367 197 325 216 c 1,64,65
 307 200 307 200 287 183 c 1,66,-1
 259 208 l 1,67,68
 298 249 298 249 334.5 289.5 c 128,-1,69
 371 330 371 330 401 366 c 1,70,-1
 439 329 l 1,71,72
 413 299 413 299 382 269 c 1,73,74
 430 229 430 229 452 190.5 c 128,-1,75
 474 152 474 152 474 118 c 0,76,77
 474 85 474 85 452 55.5 c 128,-1,78
 430 26 430 26 388.5 8 c 128,-1,79
 347 -10 347 -10 287 -10 c 0,80,81
 193 -10 193 -10 141.5 31 c 128,-1,82
 90 72 90 72 90 144 c 0,0,1
EndSplineSet
EndChar

StartChar: rvocalicorya
Encoding: 2827 2827 7
Width: 677
GlyphClass: 2
Flags: W
AnchorPoint: "+BBEENQQ3BEsEPARPBD0EPQQ+BDUA--3" 329 0 basechar 0
AnchorPoint: "+BBEENQQ3BEsEPARPBD0EPQQ+BDUA--0" 500 657 basechar 0
LayerCount: 2
Fore
SplineSet
128 158 m 0,0,1
 128 188 128 188 136 215 c 1,2,3
 87 255 87 255 59.5 311.5 c 128,-1,4
 32 368 32 368 32 430 c 0,5,6
 32 499 32 499 68.5 552.5 c 128,-1,7
 105 606 105 606 168.5 636.5 c 128,-1,8
 232 667 232 667 314 667 c 0,9,10
 397 667 397 667 462.5 635.5 c 128,-1,11
 528 604 528 604 566 550.5 c 128,-1,12
 604 497 604 497 604 430 c 0,13,14
 604 366 604 366 565 298 c 1,15,16
 631 279 631 279 631 231 c 0,17,18
 631 208 631 208 615.5 183 c 128,-1,19
 600 158 600 158 562 121 c 1,20,-1
 683 7 l 1,21,-1
 636 -35 l 1,22,-1
 622 -35 l 1,23,-1
 500 100 l 1,24,-1
 500 128 l 1,25,26
 537 162 537 162 550.5 180 c 128,-1,27
 564 198 564 198 564 214 c 0,28,29
 564 228 564 228 547.5 236 c 128,-1,30
 531 244 531 244 493 247 c 1,31,-1
 492 272 l 1,32,33
 512 299 512 299 523.5 333.5 c 128,-1,34
 535 368 535 368 535 405 c 0,35,36
 535 462 535 462 506 506.5 c 128,-1,37
 477 551 477 551 425 576 c 128,-1,38
 373 601 373 601 304 601 c 0,39,40
 212 601 212 601 156 557.5 c 128,-1,41
 100 514 100 514 100 442 c 0,42,43
 100 396 100 396 122 357 c 128,-1,44
 144 318 144 318 184 293 c 1,45,46
 206 313 206 313 234.5 325 c 128,-1,47
 263 337 263 337 296 337 c 0,48,49
 341 337 341 337 377 315 c 128,-1,50
 413 293 413 293 433.5 255 c 128,-1,51
 454 217 454 217 454 169 c 0,52,53
 454 119 454 119 432 78.5 c 128,-1,54
 410 38 410 38 372 14 c 128,-1,55
 334 -10 334 -10 286 -10 c 0,56,57
 241 -10 241 -10 205.5 12 c 128,-1,58
 170 34 170 34 149 72 c 128,-1,59
 128 110 128 110 128 158 c 0,0,1
191 185 m 0,60,61
 191 146 191 146 207.5 115.5 c 128,-1,62
 224 85 224 85 250.5 67.5 c 128,-1,63
 277 50 277 50 307 50 c 0,64,65
 347 50 347 50 369 76.5 c 128,-1,66
 391 103 391 103 391 143 c 0,67,68
 391 182 391 182 374.5 212.5 c 128,-1,69
 358 243 358 243 332 260.5 c 128,-1,70
 306 278 306 278 275 278 c 0,71,72
 235 278 235 278 213 251.5 c 128,-1,73
 191 225 191 225 191 185 c 0,60,61
EndSplineSet
EndChar

StartChar: rrvocalicorya
Encoding: 2912 2912 8
Width: 664
GlyphClass: 2
Flags: W
AnchorPoint: "+BBEENQQ3BEsEPARPBD0EPQQ+BDUA--3" 317 0 basechar 0
AnchorPoint: "+BBEENQQ3BEsEPARPBD0EPQQ+BDUA--0" 470 657 basechar 0
LayerCount: 2
Fore
SplineSet
120 158 m 0,0,1
 120 191 120 191 131 222 c 1,2,3
 85 263 85 263 58.5 320.5 c 128,-1,4
 32 378 32 378 32 438 c 0,5,6
 32 501 32 501 64.5 553 c 128,-1,7
 97 605 97 605 159 636 c 128,-1,8
 221 667 221 667 309 667 c 0,9,10
 396 667 396 667 458 637 c 128,-1,11
 520 607 520 607 553 559.5 c 128,-1,12
 586 512 586 512 586 458 c 0,13,14
 586 427 586 427 575.5 399.5 c 128,-1,15
 565 372 565 372 551 349 c 1,16,17
 585 340 585 340 605 324 c 128,-1,18
 625 308 625 308 625 281 c 0,19,20
 625 258 625 258 611 235.5 c 128,-1,21
 597 213 597 213 574 193 c 1,22,23
 595 185 595 185 613 169.5 c 128,-1,24
 631 154 631 154 631 128 c 0,25,26
 631 100 631 100 606 75 c 128,-1,27
 581 50 581 50 547 26 c 1,28,-1
 659 -73 l 1,29,-1
 613 -115 l 1,30,-1
 599 -115 l 1,31,-1
 487 7 l 1,32,-1
 487 35 l 1,33,34
 531 66 531 66 547.5 81.5 c 128,-1,35
 564 97 564 97 564 111 c 0,36,37
 564 127 564 127 546 136.5 c 128,-1,38
 528 146 528 146 487 152 c 1,39,-1
 487 180 l 1,40,41
 527 208 527 208 544 226 c 128,-1,42
 561 244 561 244 561 259 c 0,43,44
 561 276 561 276 541.5 284.5 c 128,-1,45
 522 293 522 293 486 299 c 1,46,-1
 486 327 l 1,47,48
 497 344 497 344 507 373 c 128,-1,49
 517 402 517 402 517 433 c 0,50,51
 517 481 517 481 489.5 519 c 128,-1,52
 462 557 462 557 413 579 c 128,-1,53
 364 601 364 601 297 601 c 0,54,55
 203 601 203 601 151.5 559 c 128,-1,56
 100 517 100 517 100 450 c 0,57,58
 100 404 100 404 121 364 c 128,-1,59
 142 324 142 324 179 296 c 1,60,61
 201 315 201 315 228.5 326 c 128,-1,62
 256 337 256 337 288 337 c 0,63,64
 333 337 333 337 369 315 c 128,-1,65
 405 293 405 293 425.5 255 c 128,-1,66
 446 217 446 217 446 169 c 0,67,68
 446 119 446 119 424 78.5 c 128,-1,69
 402 38 402 38 364 14 c 128,-1,70
 326 -10 326 -10 278 -10 c 0,71,72
 233 -10 233 -10 197.5 12 c 128,-1,73
 162 34 162 34 141 71.5 c 128,-1,74
 120 109 120 109 120 158 c 0,0,1
183 185 m 0,75,76
 183 146 183 146 199.5 115.5 c 128,-1,77
 216 85 216 85 242.5 67.5 c 128,-1,78
 269 50 269 50 299 50 c 0,79,80
 339 50 339 50 361 76.5 c 128,-1,81
 383 103 383 103 383 143 c 0,82,83
 383 182 383 182 366.5 212.5 c 128,-1,84
 350 243 350 243 324 260.5 c 128,-1,85
 298 278 298 278 267 278 c 0,86,87
 227 278 227 278 205 251.5 c 128,-1,88
 183 225 183 225 183 185 c 0,75,76
EndSplineSet
EndChar

StartChar: lvocalicorya
Encoding: 2828 2828 9
Width: 508
GlyphClass: 2
Flags: W
AnchorPoint: "+BBEENQQ3BEsEPARPBD0EPQQ+BDUA--3" 257 0 basechar 0
AnchorPoint: "+BBEENQQ3BEsEPARPBD0EPQQ+BDUA--0" 337 657 basechar 0
LayerCount: 2
Fore
SplineSet
32 168 m 0,0,1
 32 255 32 255 97 305 c 0,2,3
 116 320 116 320 140.5 332.5 c 128,-1,4
 165 345 165 345 195 356 c 2,5,-1
 236 371 l 2,6,7
 263 381 263 381 285.5 391 c 128,-1,8
 308 401 308 401 324 414 c 0,9,10
 341 428 341 428 350 445.5 c 128,-1,11
 359 463 359 463 359 488 c 0,12,13
 359 535 359 535 327.5 568.5 c 128,-1,14
 296 602 296 602 240 602 c 0,15,16
 217 602 217 602 192.5 594 c 128,-1,17
 168 586 168 586 151.5 567 c 128,-1,18
 135 548 135 548 135 513 c 0,19,20
 135 490 135 490 142 467.5 c 128,-1,21
 149 445 149 445 156 427 c 1,22,-1
 91 404 l 1,23,24
 81 429 81 429 74 455 c 128,-1,25
 67 481 67 481 67 506 c 0,26,27
 67 560 67 560 94 596 c 128,-1,28
 121 632 121 632 163 649.5 c 128,-1,29
 205 667 205 667 251 667 c 0,30,31
 331 667 331 667 378.5 620 c 128,-1,32
 426 573 426 573 426 498 c 0,33,34
 426 451 426 451 408 419.5 c 128,-1,35
 390 388 390 388 358 365 c 0,36,37
 340 352 340 352 318.5 342 c 128,-1,38
 297 332 297 332 272 322 c 2,39,-1
 220 302 l 2,40,41
 153 276 153 276 128 247 c 0,42,43
 114 231 114 231 109 214 c 128,-1,44
 104 197 104 197 104 179 c 0,45,46
 104 147 104 147 122.5 117.5 c 128,-1,47
 141 88 141 88 179.5 69.5 c 128,-1,48
 218 51 218 51 277 51 c 0,49,50
 285 51 285 51 294 51 c 1,51,52
 265 78 265 78 253.5 105 c 128,-1,53
 242 132 242 132 242 154 c 0,54,55
 242 182 242 182 257.5 207 c 128,-1,56
 273 232 273 232 299.5 247.5 c 128,-1,57
 326 263 326 263 358 263 c 0,58,59
 393 263 393 263 423 245 c 128,-1,60
 453 227 453 227 471.5 197.5 c 128,-1,61
 490 168 490 168 490 134 c 0,62,63
 490 89 490 89 460.5 57 c 128,-1,64
 431 25 431 25 380.5 7.5 c 128,-1,65
 330 -10 330 -10 268 -10 c 0,66,67
 193 -10 193 -10 140.5 14 c 128,-1,68
 88 38 88 38 60 78.5 c 128,-1,69
 32 119 32 119 32 168 c 0,0,1
304 162 m 0,70,71
 304 115 304 115 373 66 c 1,72,73
 399 76 399 76 414 90.5 c 128,-1,74
 429 105 429 105 429 122 c 0,75,76
 429 141 429 141 416.5 159 c 128,-1,77
 404 177 404 177 384.5 189 c 128,-1,78
 365 201 365 201 345 201 c 256,79,80
 325 201 325 201 314.5 189.5 c 128,-1,81
 304 178 304 178 304 162 c 0,70,71
EndSplineSet
EndChar

StartChar: llvocalicorya
Encoding: 2913 2913 10
Width: 510
GlyphClass: 2
Flags: W
AnchorPoint: "+BBEENQQ3BEsEPARPBD0EPQQ+BDUA--3" 254 0 basechar 0
AnchorPoint: "+BBEENQQ3BEsEPARPBD0EPQQ+BDUA--0" 337 657 basechar 0
LayerCount: 2
Fore
SplineSet
32 168 m 0,0,1
 32 255 32 255 97 305 c 0,2,3
 116 320 116 320 140.5 332.5 c 128,-1,4
 165 345 165 345 195 356 c 2,5,-1
 236 371 l 2,6,7
 263 381 263 381 285.5 391 c 128,-1,8
 308 401 308 401 324 414 c 0,9,10
 341 428 341 428 350 445.5 c 128,-1,11
 359 463 359 463 359 488 c 0,12,13
 359 535 359 535 327.5 568.5 c 128,-1,14
 296 602 296 602 240 602 c 0,15,16
 217 602 217 602 192.5 594 c 128,-1,17
 168 586 168 586 151.5 567 c 128,-1,18
 135 548 135 548 135 513 c 0,19,20
 135 490 135 490 142 467.5 c 128,-1,21
 149 445 149 445 156 427 c 1,22,-1
 91 404 l 1,23,24
 81 429 81 429 74 455 c 128,-1,25
 67 481 67 481 67 506 c 0,26,27
 67 560 67 560 94 596 c 128,-1,28
 121 632 121 632 163 649.5 c 128,-1,29
 205 667 205 667 251 667 c 0,30,31
 331 667 331 667 378.5 620 c 128,-1,32
 426 573 426 573 426 498 c 0,33,34
 426 451 426 451 408 419.5 c 128,-1,35
 390 388 390 388 358 365 c 0,36,37
 340 352 340 352 318.5 342 c 128,-1,38
 297 332 297 332 272 322 c 2,39,-1
 220 302 l 2,40,41
 153 276 153 276 128 247 c 0,42,43
 114 231 114 231 109 214 c 128,-1,44
 104 197 104 197 104 179 c 0,45,46
 104 147 104 147 122.5 117.5 c 128,-1,47
 141 88 141 88 179.5 69.5 c 128,-1,48
 218 51 218 51 277 51 c 0,49,50
 285 51 285 51 294 51 c 1,51,52
 265 78 265 78 253.5 105 c 128,-1,53
 242 132 242 132 242 154 c 0,54,55
 242 182 242 182 257.5 207 c 128,-1,56
 273 232 273 232 299.5 247.5 c 128,-1,57
 326 263 326 263 358 263 c 0,58,59
 393 263 393 263 423 245 c 128,-1,60
 453 227 453 227 471.5 197.5 c 128,-1,61
 490 168 490 168 490 134 c 0,62,63
 490 99 490 99 471.5 71.5 c 128,-1,64
 453 44 453 44 421 26 c 1,65,66
 440 14 440 14 462 2.5 c 128,-1,67
 484 -9 484 -9 512 -20 c 1,68,-1
 474 -70 l 1,69,-1
 461 -70 l 1,70,71
 429 -53 429 -53 400 -35.5 c 128,-1,72
 371 -18 371 -18 348 -2 c 1,73,74
 311 -10 311 -10 268 -10 c 0,75,76
 193 -10 193 -10 140.5 14 c 128,-1,77
 88 38 88 38 60 78.5 c 128,-1,78
 32 119 32 119 32 168 c 0,0,1
304 162 m 0,79,80
 304 115 304 115 373 66 c 1,81,82
 399 76 399 76 414 90.5 c 128,-1,83
 429 105 429 105 429 122 c 0,84,85
 429 141 429 141 416.5 159 c 128,-1,86
 404 177 404 177 384.5 189 c 128,-1,87
 365 201 365 201 345 201 c 256,88,89
 325 201 325 201 314.5 189.5 c 128,-1,90
 304 178 304 178 304 162 c 0,79,80
EndSplineSet
EndChar

StartChar: eorya
Encoding: 2831 2831 11
Width: 615
GlyphClass: 2
Flags: W
AnchorPoint: "+BBEENQQ3BEsEPARPBD0EPQQ+BDUA--3" 329 0 basechar 0
AnchorPoint: "+BBEENQQ3BEsEPARPBD0EPQQ+BDUA--0" 458 657 basechar 0
LayerCount: 2
Fore
SplineSet
35 278 m 0,0,1
 35 323 35 323 48.5 375 c 128,-1,2
 62 427 62 427 84.5 481 c 128,-1,3
 107 535 107 535 134.5 585.5 c 128,-1,4
 162 636 162 636 190 678 c 1,5,-1
 250 649 l 1,6,7
 177 540 177 540 141 451.5 c 128,-1,8
 105 363 105 363 105 288 c 0,9,10
 105 221 105 221 140.5 170 c 128,-1,11
 176 119 176 119 259.5 89 c 128,-1,12
 343 59 343 59 487 54 c 1,13,-1
 487 586 l 1,14,-1
 484 586 l 2,15,16
 421 586 421 586 377.5 559.5 c 128,-1,17
 334 533 334 533 310 493.5 c 128,-1,18
 286 454 286 454 281 415 c 1,19,20
 327 399 327 399 327 356 c 0,21,22
 327 330 327 330 310 312.5 c 128,-1,23
 293 295 293 295 269 295 c 0,24,25
 247 295 247 295 229 312 c 128,-1,26
 211 329 211 329 211 376 c 0,27,28
 211 417 211 417 228.5 465.5 c 128,-1,29
 246 514 246 514 282 557.5 c 128,-1,30
 318 601 318 601 374 629 c 128,-1,31
 430 657 430 657 506 657 c 0,32,33
 519 657 519 657 529.5 656 c 128,-1,34
 540 655 540 655 547 653 c 2,35,-1
 554 646 l 1,36,-1
 554 2 l 1,37,-1
 491 -10 l 1,38,39
 416 -10 416 -10 344 -0.5 c 128,-1,40
 272 9 272 9 211 32.5 c 128,-1,41
 150 56 150 56 107 97 c 0,42,43
 73 129 73 129 54 174 c 128,-1,44
 35 219 35 219 35 278 c 0,0,1
EndSplineSet
EndChar

StartChar: aiorya
Encoding: 2832 2832 12
Width: 803
GlyphClass: 2
Flags: W
AnchorPoint: "+BBEENQQ3BEsEPARPBD0EPQQ+BDUA--3" 392 0 basechar 0
AnchorPoint: "+BBEENQQ3BEsEPARPBD0EPQQ+BDUA--0" 458 657 basechar 0
LayerCount: 2
Fore
SplineSet
35 278 m 0,0,1
 35 323 35 323 48.5 375 c 128,-1,2
 62 427 62 427 84.5 481 c 128,-1,3
 107 535 107 535 134.5 585.5 c 128,-1,4
 162 636 162 636 190 678 c 1,5,-1
 250 649 l 1,6,7
 177 540 177 540 141 451.5 c 128,-1,8
 105 363 105 363 105 288 c 0,9,10
 105 221 105 221 140.5 170 c 128,-1,11
 176 119 176 119 259.5 89 c 128,-1,12
 343 59 343 59 487 54 c 1,13,-1
 487 586 l 1,14,-1
 484 586 l 2,15,16
 421 586 421 586 377.5 559.5 c 128,-1,17
 334 533 334 533 310 493.5 c 128,-1,18
 286 454 286 454 281 415 c 1,19,20
 327 399 327 399 327 356 c 0,21,22
 327 330 327 330 310 312.5 c 128,-1,23
 293 295 293 295 269 295 c 0,24,25
 247 295 247 295 229 312 c 128,-1,26
 211 329 211 329 211 376 c 0,27,28
 211 417 211 417 228.5 465.5 c 128,-1,29
 246 514 246 514 282 557.5 c 128,-1,30
 318 601 318 601 374 629 c 128,-1,31
 430 657 430 657 506 657 c 0,32,33
 519 657 519 657 529.5 656 c 128,-1,34
 540 655 540 655 547 653 c 2,35,-1
 554 646 l 1,36,-1
 554 365 l 1,37,38
 562 351 562 351 575.5 343 c 128,-1,39
 589 335 589 335 605 335 c 0,40,41
 633 335 633 335 651 353 c 128,-1,42
 669 371 669 371 675 399 c 1,43,-1
 675 650 l 1,44,45
 703 682 703 682 721.5 721 c 128,-1,46
 740 760 740 760 740 789 c 0,47,48
 740 805 740 805 731.5 817.5 c 128,-1,49
 723 830 723 830 697 830 c 0,50,51
 684 830 684 830 670 827.5 c 128,-1,52
 656 825 656 825 641 820 c 0,53,54
 628 816 628 816 607.5 809.5 c 128,-1,55
 587 803 587 803 554 792 c 0,56,57
 522 781 522 781 494 774.5 c 128,-1,58
 466 768 466 768 437 768 c 0,59,60
 394 768 394 768 358 786.5 c 128,-1,61
 322 805 322 805 295 833 c 1,62,-1
 341 888 l 1,63,64
 370 859 370 859 398 846 c 128,-1,65
 426 833 426 833 454 833 c 0,66,67
 477 833 477 833 503.5 840 c 128,-1,68
 530 847 530 847 570 861 c 0,69,70
 614 877 614 877 650.5 888.5 c 128,-1,71
 687 900 687 900 721 900 c 0,72,73
 765 900 765 900 785 873.5 c 128,-1,74
 805 847 805 847 805 811 c 0,75,76
 805 774 805 774 786 731.5 c 128,-1,77
 767 689 767 689 742 657 c 1,78,-1
 742 7 l 1,79,-1
 682 -7 l 1,80,-1
 675 0 l 1,81,-1
 675 311 l 1,82,83
 643 266 643 266 590 266 c 0,84,85
 571 266 571 266 554 272 c 1,86,-1
 554 2 l 1,87,-1
 491 -10 l 1,88,89
 416 -10 416 -10 344 -0.5 c 128,-1,90
 272 9 272 9 211 32.5 c 128,-1,91
 150 56 150 56 107 97 c 0,92,93
 73 129 73 129 54 174 c 128,-1,94
 35 219 35 219 35 278 c 0,0,1
EndSplineSet
EndChar

StartChar: oorya
Encoding: 2835 2835 13
Width: 627
GlyphClass: 2
Flags: W
AnchorPoint: "+BBEENQQ3BEsEPARPBD0EPQQ+BDUA--5" 408 0 basechar 0
AnchorPoint: "+BBEENQQ3BEsEPARPBD0EPQQ+BDUA--3" 307 0 basechar 0
AnchorPoint: "+BBEENQQ3BEsEPARPBD0EPQQ+BDUA--0" 482 657 basechar 0
LayerCount: 2
Fore
SplineSet
35 283 m 0,0,1
 35 350 35 350 55 421.5 c 128,-1,2
 75 493 75 493 106.5 561.5 c 128,-1,3
 138 630 138 630 174 688 c 1,4,-1
 238 657 l 1,5,6
 180 573 180 573 142 489.5 c 128,-1,7
 104 406 104 406 104 308 c 0,8,9
 104 221 104 221 135.5 165.5 c 128,-1,10
 167 110 167 110 221.5 84 c 128,-1,11
 276 58 276 58 345 58 c 0,12,13
 427 58 427 58 476.5 90 c 128,-1,14
 526 122 526 122 526 174 c 0,15,16
 526 215 526 215 492.5 244.5 c 128,-1,17
 459 274 459 274 388 285 c 0,18,19
 368 288 368 288 345 290 c 128,-1,20
 322 292 322 292 298 292 c 1,21,-1
 289 303 l 1,22,-1
 307 347 l 1,23,24
 324 354 324 354 342.5 362.5 c 128,-1,25
 361 371 361 371 380 381 c 0,26,27
 433 410 433 410 458 434 c 0,28,29
 493 467 493 467 493 512 c 0,30,31
 493 550 493 550 466 575.5 c 128,-1,32
 439 601 439 601 396 601 c 0,33,34
 352 601 352 601 334.5 583.5 c 128,-1,35
 317 566 317 566 317 540 c 0,36,37
 317 525 317 525 321.5 508.5 c 128,-1,38
 326 492 326 492 333 478 c 1,39,-1
 268 452 l 1,40,41
 260 468 260 468 255 488 c 128,-1,42
 250 508 250 508 250 524 c 0,43,44
 250 585 250 585 292.5 626 c 128,-1,45
 335 667 335 667 409 667 c 0,46,47
 452 667 452 667 486 648.5 c 128,-1,48
 520 630 520 630 539.5 597 c 128,-1,49
 559 564 559 564 559 522 c 0,50,51
 559 487 559 487 544.5 455.5 c 128,-1,52
 530 424 530 424 498 395 c 0,53,54
 467 367 467 367 418 342 c 1,55,56
 465 335 465 335 502 319 c 0,57,58
 548 298 548 298 571 261.5 c 128,-1,59
 594 225 594 225 594 181 c 0,60,61
 594 126 594 126 560.5 83 c 128,-1,62
 527 40 527 40 468 15 c 128,-1,63
 409 -10 409 -10 334 -10 c 0,64,65
 249 -10 249 -10 181 24 c 128,-1,66
 113 58 113 58 74 123.5 c 128,-1,67
 35 189 35 189 35 283 c 0,0,1
EndSplineSet
EndChar

StartChar: auorya
Encoding: 2836 2836 14
Width: 810
GlyphClass: 2
Flags: W
AnchorPoint: "+BBEENQQ3BEsEPARPBD0EPQQ+BDUA--5" 408 0 basechar 0
AnchorPoint: "+BBEENQQ3BEsEPARPBD0EPQQ+BDUA--3" 400 0 basechar 0
AnchorPoint: "+BBEENQQ3BEsEPARPBD0EPQQ+BDUA--0" 482 657 basechar 0
LayerCount: 2
Fore
SplineSet
35 283 m 0,0,1
 35 350 35 350 55 421.5 c 128,-1,2
 75 493 75 493 106.5 561.5 c 128,-1,3
 138 630 138 630 174 688 c 1,4,-1
 238 657 l 1,5,6
 180 573 180 573 142 489.5 c 128,-1,7
 104 406 104 406 104 308 c 0,8,9
 104 221 104 221 135.5 165.5 c 128,-1,10
 167 110 167 110 221.5 84 c 128,-1,11
 276 58 276 58 345 58 c 0,12,13
 427 58 427 58 476.5 90 c 128,-1,14
 526 122 526 122 526 174 c 0,15,16
 526 215 526 215 492.5 244.5 c 128,-1,17
 459 274 459 274 388 285 c 0,18,19
 368 288 368 288 345 290 c 128,-1,20
 322 292 322 292 298 292 c 1,21,-1
 289 303 l 1,22,-1
 307 347 l 1,23,24
 324 354 324 354 342.5 362.5 c 128,-1,25
 361 371 361 371 380 381 c 0,26,27
 433 410 433 410 458 434 c 0,28,29
 493 467 493 467 493 512 c 0,30,31
 493 550 493 550 466 575.5 c 128,-1,32
 439 601 439 601 396 601 c 0,33,34
 352 601 352 601 334.5 583.5 c 128,-1,35
 317 566 317 566 317 540 c 0,36,37
 317 525 317 525 321.5 508.5 c 128,-1,38
 326 492 326 492 333 478 c 1,39,-1
 268 452 l 1,40,41
 260 468 260 468 255 488 c 128,-1,42
 250 508 250 508 250 524 c 0,43,44
 250 585 250 585 292.5 626 c 128,-1,45
 335 667 335 667 409 667 c 0,46,47
 452 667 452 667 486 648.5 c 128,-1,48
 520 630 520 630 539.5 597 c 128,-1,49
 559 564 559 564 559 522 c 0,50,51
 559 487 559 487 544.5 455.5 c 128,-1,52
 530 424 530 424 498 395 c 0,53,54
 467 367 467 367 418 342 c 1,55,56
 465 335 465 335 502 319 c 0,57,58
 523 309 523 309 539 296 c 1,59,-1
 540 297 l 1,60,61
 552 290 552 290 566 286 c 128,-1,62
 580 282 580 282 596 282 c 0,63,64
 634 282 634 282 653 306 c 128,-1,65
 672 330 672 330 672 365 c 2,66,-1
 672 650 l 1,67,68
 700 682 700 682 718.5 721 c 128,-1,69
 737 760 737 760 737 789 c 0,70,71
 737 805 737 805 728.5 817.5 c 128,-1,72
 720 830 720 830 694 830 c 0,73,74
 681 830 681 830 667 827.5 c 128,-1,75
 653 825 653 825 638 820 c 0,76,77
 625 816 625 816 604.5 809.5 c 128,-1,78
 584 803 584 803 551 792 c 0,79,80
 519 781 519 781 491 774.5 c 128,-1,81
 463 768 463 768 434 768 c 0,82,83
 391 768 391 768 355 786.5 c 128,-1,84
 319 805 319 805 292 833 c 1,85,-1
 338 888 l 1,86,87
 367 859 367 859 395 846 c 128,-1,88
 423 833 423 833 451 833 c 0,89,90
 474 833 474 833 500.5 840 c 128,-1,91
 527 847 527 847 567 861 c 0,92,93
 611 877 611 877 647.5 888.5 c 128,-1,94
 684 900 684 900 718 900 c 0,95,96
 762 900 762 900 782 873.5 c 128,-1,97
 802 847 802 847 802 811 c 0,98,99
 802 774 802 774 783 731.5 c 128,-1,100
 764 689 764 689 739 657 c 1,101,-1
 739 7 l 1,102,-1
 679 -7 l 1,103,-1
 672 0 l 1,104,-1
 672 254 l 1,105,106
 642 213 642 213 591 213 c 1,107,-1
 591 213 l 1,108,109
 594 198 594 198 594 181 c 0,110,111
 594 126 594 126 560.5 83 c 128,-1,112
 527 40 527 40 468 15 c 128,-1,113
 409 -10 409 -10 334 -10 c 0,114,115
 249 -10 249 -10 181 24 c 128,-1,116
 113 58 113 58 74 123.5 c 128,-1,117
 35 189 35 189 35 283 c 0,0,1
EndSplineSet
EndChar

StartChar: kaorya
Encoding: 2837 2837 15
Width: 637
GlyphClass: 2
Flags: W
AnchorPoint: "+BBEENQQ3BEsEPARPBD0EPQQ+BDUA--5" 526 0 basechar 0
AnchorPoint: "+BBEENQQ3BEsEPARPBD0EPQQ+BDUA--3" 368 0 basechar 0
AnchorPoint: "+BBEENQQ3BEsEPARPBD0EPQQ+BDUA--2" 347 657 basechar 0
AnchorPoint: "+BBEENQQ3BEsEPARPBD0EPQQ+BDUA--0" 494 657 basechar 0
LayerCount: 2
Fore
SplineSet
103 210 m 0,0,1
 103 225 103 225 106 239 c 1,2,3
 69 280 69 280 50.5 328 c 128,-1,4
 32 376 32 376 32 424 c 0,5,6
 32 492 32 492 67.5 547 c 128,-1,7
 103 602 103 602 166 634.5 c 128,-1,8
 229 667 229 667 311 667 c 0,9,10
 373 667 373 667 421 649.5 c 128,-1,11
 469 632 469 632 505.5 605.5 c 128,-1,12
 542 579 542 579 568.5 550 c 128,-1,13
 595 521 595 521 614 498 c 1,14,-1
 565 446 l 1,15,-1
 555 446 l 1,16,17
 532 479 532 479 496.5 515 c 128,-1,18
 461 551 461 551 411.5 576 c 128,-1,19
 362 601 362 601 296 601 c 0,20,21
 239 601 239 601 195 580 c 128,-1,22
 151 559 151 559 125.5 521.5 c 128,-1,23
 100 484 100 484 100 435 c 0,24,25
 100 400 100 400 113 369.5 c 128,-1,26
 126 339 126 339 147 317 c 1,27,28
 166 335 166 335 190 345 c 128,-1,29
 214 355 214 355 241 355 c 0,30,31
 270 355 270 355 294.5 341.5 c 128,-1,32
 319 328 319 328 335 306 c 1,33,34
 352 330 352 330 378.5 342.5 c 128,-1,35
 405 355 405 355 431 355 c 0,36,37
 475 355 475 355 500.5 326 c 128,-1,38
 526 297 526 297 526 230 c 2,39,-1
 526 7 l 1,40,-1
 465 -7 l 1,41,-1
 459 0 l 1,42,-1
 459 207 l 2,43,44
 459 245 459 245 446.5 267 c 128,-1,45
 434 289 434 289 411 289 c 0,46,47
 392 289 392 289 380 277.5 c 128,-1,48
 368 266 368 266 368 252 c 2,49,-1
 368 7 l 1,50,-1
 308 -7 l 1,51,-1
 301 0 l 1,52,-1
 301 93 l 1,53,54
 271 70 271 70 231 70 c 0,55,56
 195 70 195 70 166 88.5 c 128,-1,57
 137 107 137 107 120 138.5 c 128,-1,58
 103 170 103 170 103 210 c 0,0,1
164 228 m 0,59,60
 164 184 164 184 191.5 156.5 c 128,-1,61
 219 129 219 129 250 129 c 0,62,63
 278 129 278 129 295 148 c 128,-1,64
 312 167 312 167 312 196 c 0,65,66
 312 239 312 239 285.5 266.5 c 128,-1,67
 259 294 259 294 224 294 c 0,68,69
 196 294 196 294 180 275 c 128,-1,70
 164 256 164 256 164 228 c 0,59,60
EndSplineSet
EndChar

StartChar: khaorya
Encoding: 2838 2838 16
Width: 653
GlyphClass: 2
Flags: W
AnchorPoint: "+BBEENQQ3BEsEPARPBD0EPQQ+BDUA--5" 592 0 basechar 0
AnchorPoint: "+BBEENQQ3BEsEPARPBD0EPQQ+BDUA--3" 367 0 basechar 0
AnchorPoint: "+BBEENQQ3BEsEPARPBD0EPQQ+BDUA--2" 324 657 basechar 0
AnchorPoint: "+BBEENQQ3BEsEPARPBD0EPQQ+BDUA--0" 525 657 basechar 0
LayerCount: 2
Fore
SplineSet
116 158 m 0,0,1
 116 199 116 199 132 235 c 1,2,3
 84 272 84 272 58 324 c 128,-1,4
 32 376 32 376 32 434 c 256,5,6
 32 492 32 492 61.5 545.5 c 128,-1,7
 91 599 91 599 151 633 c 128,-1,8
 211 667 211 667 300 667 c 0,9,10
 335 667 335 667 367.5 662 c 128,-1,11
 400 657 400 657 420 649 c 1,12,-1
 420 635 l 1,13,14
 352 567 352 567 352 510 c 0,15,16
 352 480 352 480 371.5 463.5 c 128,-1,17
 391 447 391 447 421 447 c 0,18,19
 465 447 465 447 492 480.5 c 128,-1,20
 519 514 519 514 525 572 c 1,21,-1
 525 650 l 1,22,-1
 585 664 l 1,23,-1
 592 657 l 1,24,-1
 592 7 l 1,25,-1
 532 -7 l 1,26,-1
 525 0 l 1,27,-1
 525 449 l 1,28,29
 504 417 504 417 473.5 399.5 c 128,-1,30
 443 382 443 382 405 382 c 0,31,32
 351 382 351 382 318 414 c 128,-1,33
 285 446 285 446 285 495 c 0,34,35
 285 547 285 547 331 599 c 1,36,37
 308 601 308 601 290 601 c 0,38,39
 223 601 223 601 181 578 c 128,-1,40
 139 555 139 555 119.5 520 c 128,-1,41
 100 485 100 485 100 449 c 0,42,43
 100 398 100 398 123 361 c 128,-1,44
 146 324 146 324 181 300 c 1,45,46
 202 318 202 318 228 327.5 c 128,-1,47
 254 337 254 337 284 337 c 0,48,49
 329 337 329 337 365 315 c 128,-1,50
 401 293 401 293 421.5 255 c 128,-1,51
 442 217 442 217 442 169 c 0,52,53
 442 119 442 119 420 78.5 c 128,-1,54
 398 38 398 38 360 14 c 128,-1,55
 322 -10 322 -10 274 -10 c 0,56,57
 229 -10 229 -10 193.5 12 c 128,-1,58
 158 34 158 34 137 71.5 c 128,-1,59
 116 109 116 109 116 158 c 0,0,1
179 185 m 0,60,61
 179 146 179 146 195.5 115.5 c 128,-1,62
 212 85 212 85 238.5 67.5 c 128,-1,63
 265 50 265 50 295 50 c 0,64,65
 335 50 335 50 357 76.5 c 128,-1,66
 379 103 379 103 379 143 c 0,67,68
 379 182 379 182 362.5 212.5 c 128,-1,69
 346 243 346 243 320 260.5 c 128,-1,70
 294 278 294 278 263 278 c 0,71,72
 223 278 223 278 201 251.5 c 128,-1,73
 179 225 179 225 179 185 c 0,60,61
EndSplineSet
EndChar

StartChar: gaorya
Encoding: 2839 2839 17
Width: 665
GlyphClass: 2
Flags: W
AnchorPoint: "+BBEENQQ3BEsEPARPBD0EPQQ+BDUA--5" 604 0 basechar 0
AnchorPoint: "+BBEENQQ3BEsEPARPBD0EPQQ+BDUA--3" 370 0 basechar 0
AnchorPoint: "+BBEENQQ3BEsEPARPBD0EPQQ+BDUA--2" 325 657 basechar 0
AnchorPoint: "+BBEENQQ3BEsEPARPBD0EPQQ+BDUA--0" 537 657 basechar 0
LayerCount: 2
Fore
SplineSet
116 158 m 0,0,1
 116 196 116 196 129 229 c 1,2,3
 82 268 82 268 57 320 c 128,-1,4
 32 372 32 372 32 427 c 0,5,6
 32 494 32 494 66 548 c 128,-1,7
 100 602 100 602 160.5 634.5 c 128,-1,8
 221 667 221 667 301 667 c 0,9,10
 445 667 445 667 537 559 c 1,11,-1
 537 650 l 1,12,-1
 597 664 l 1,13,-1
 604 657 l 1,14,-1
 604 7 l 1,15,-1
 544 -7 l 1,16,-1
 537 0 l 1,17,-1
 537 461 l 1,18,19
 494 526 494 526 430.5 563.5 c 128,-1,20
 367 601 367 601 290 601 c 0,21,22
 232 601 232 601 189 579.5 c 128,-1,23
 146 558 146 558 123 522 c 128,-1,24
 100 486 100 486 100 440 c 0,25,26
 100 395 100 395 122 359.5 c 128,-1,27
 144 324 144 324 183 302 c 1,28,29
 204 319 204 319 229.5 328 c 128,-1,30
 255 337 255 337 284 337 c 0,31,32
 329 337 329 337 365 315 c 128,-1,33
 401 293 401 293 421.5 255 c 128,-1,34
 442 217 442 217 442 169 c 0,35,36
 442 119 442 119 420 78.5 c 128,-1,37
 398 38 398 38 360 14 c 128,-1,38
 322 -10 322 -10 274 -10 c 0,39,40
 229 -10 229 -10 193.5 12 c 128,-1,41
 158 34 158 34 137 72 c 128,-1,42
 116 110 116 110 116 158 c 0,0,1
179 185 m 0,43,44
 179 146 179 146 195.5 115.5 c 128,-1,45
 212 85 212 85 238.5 67.5 c 128,-1,46
 265 50 265 50 295 50 c 0,47,48
 335 50 335 50 357 76.5 c 128,-1,49
 379 103 379 103 379 143 c 0,50,51
 379 182 379 182 362.5 212.5 c 128,-1,52
 346 243 346 243 320 260.5 c 128,-1,53
 294 278 294 278 263 278 c 0,54,55
 223 278 223 278 201 251.5 c 128,-1,56
 179 225 179 225 179 185 c 0,43,44
EndSplineSet
EndChar

StartChar: ghaorya
Encoding: 2840 2840 18
Width: 644
GlyphClass: 2
Flags: W
AnchorPoint: "+BBEENQQ3BEsEPARPBD0EPQQ+BDUA--5" 584 0 basechar 0
AnchorPoint: "+BBEENQQ3BEsEPARPBD0EPQQ+BDUA--3" 359 0 basechar 0
AnchorPoint: "+BBEENQQ3BEsEPARPBD0EPQQ+BDUA--2" 321 657 basechar 0
AnchorPoint: "+BBEENQQ3BEsEPARPBD0EPQQ+BDUA--0" 516 657 basechar 0
LayerCount: 2
Fore
SplineSet
98 123 m 0,0,1
 98 149 98 149 106 176 c 128,-1,2
 114 203 114 203 129 230 c 1,3,4
 81 269 81 269 56.5 320.5 c 128,-1,5
 32 372 32 372 32 427 c 0,6,7
 32 494 32 494 66 548 c 128,-1,8
 100 602 100 602 160.5 634.5 c 128,-1,9
 221 667 221 667 301 667 c 0,10,11
 429 667 429 667 516 581 c 1,12,-1
 516 650 l 1,13,-1
 576 664 l 1,14,-1
 583 657 l 1,15,-1
 583 7 l 1,16,-1
 523 -7 l 1,17,-1
 516 0 l 1,18,-1
 516 45 l 1,19,20
 476 -10 476 -10 414 -10 c 0,21,22
 359 -10 359 -10 332 40 c 1,23,24
 311 14 311 14 283 2 c 128,-1,25
 255 -10 255 -10 224 -10 c 0,26,27
 169 -10 169 -10 133.5 27 c 128,-1,28
 98 64 98 64 98 123 c 0,0,1
382 125 m 2,29,30
 382 58 382 58 433 58 c 0,31,32
 447 58 447 58 464.5 64.5 c 128,-1,33
 482 71 482 71 496.5 88 c 128,-1,34
 511 105 511 105 516 135 c 1,35,-1
 516 489 l 1,36,37
 474 542 474 542 416 571.5 c 128,-1,38
 358 601 358 601 290 601 c 0,39,40
 232 601 232 601 189 579.5 c 128,-1,41
 146 558 146 558 123 522 c 128,-1,42
 100 486 100 486 100 440 c 0,43,44
 100 396 100 396 121 361 c 128,-1,45
 142 326 142 326 181 304 c 1,46,47
 210 338 210 338 249 371 c 1,48,-1
 283 329 l 1,49,50
 218 271 218 271 192.5 224 c 128,-1,51
 167 177 167 177 167 145 c 0,52,53
 167 103 167 103 191 80.5 c 128,-1,54
 215 58 215 58 246 58 c 0,55,56
 270 58 270 58 286.5 70 c 128,-1,57
 303 82 303 82 315 97 c 1,58,-1
 315 221 l 1,59,-1
 375 235 l 1,60,-1
 382 228 l 1,61,-1
 382 125 l 2,29,30
EndSplineSet
EndChar

StartChar: ngaorya
Encoding: 2841 2841 19
Width: 697
GlyphClass: 2
Flags: W
AnchorPoint: "+BBEENQQ3BEsEPARPBD0EPQQ+BDUA--5" 399 0 basechar 0
AnchorPoint: "+BBEENQQ3BEsEPARPBD0EPQQ+BDUA--3" 316 0 basechar 0
AnchorPoint: "+BBEENQQ3BEsEPARPBD0EPQQ+BDUA--2" 340 657 basechar 0
AnchorPoint: "+BBEENQQ3BEsEPARPBD0EPQQ+BDUA--0" 509 657 basechar 0
LayerCount: 2
Fore
SplineSet
88 144 m 0,0,1
 88 173 88 173 98 201.5 c 128,-1,2
 108 230 108 230 126 258 c 1,3,4
 84 290 84 290 58 341 c 128,-1,5
 32 392 32 392 32 449 c 0,6,7
 32 508 32 508 61.5 557.5 c 128,-1,8
 91 607 91 607 140.5 637 c 128,-1,9
 190 667 190 667 251 667 c 0,10,11
 305 667 305 667 348.5 642.5 c 128,-1,12
 392 618 392 618 422 575 c 1,13,14
 438 616 438 616 473 642 c 128,-1,15
 508 668 508 668 553 668 c 0,16,17
 591 668 591 668 621 649.5 c 128,-1,18
 651 631 651 631 668.5 599 c 128,-1,19
 686 567 686 567 686 526 c 0,20,21
 686 484 686 484 667.5 449.5 c 128,-1,22
 649 415 649 415 617 395 c 128,-1,23
 585 375 585 375 545 375 c 0,24,25
 502 375 502 375 469 398.5 c 128,-1,26
 436 422 436 422 421 461 c 0,27,28
 393 525 393 525 345.5 563.5 c 128,-1,29
 298 602 298 602 240 602 c 0,30,31
 199 602 199 602 167.5 583 c 128,-1,32
 136 564 136 564 118 532.5 c 128,-1,33
 100 501 100 501 100 461 c 0,34,35
 100 419 100 419 120.5 382 c 128,-1,36
 141 345 141 345 177 324 c 1,37,38
 190 338 190 338 203 351 c 128,-1,39
 216 364 216 364 230 376 c 1,40,-1
 267 339 l 1,41,42
 215 290 215 290 183.5 243 c 128,-1,43
 152 196 152 196 152 158 c 0,44,45
 152 110 152 110 190 82.5 c 128,-1,46
 228 55 228 55 297 55 c 0,47,48
 344 55 344 55 379.5 72.5 c 128,-1,49
 415 90 415 90 415 115 c 0,50,51
 415 141 415 141 390 169 c 128,-1,52
 365 197 365 197 323 216 c 1,53,54
 305 200 305 200 285 183 c 1,55,-1
 257 208 l 1,56,57
 296 249 296 249 332.5 289.5 c 128,-1,58
 369 330 369 330 399 366 c 1,59,-1
 437 329 l 1,60,61
 411 299 411 299 380 269 c 1,62,63
 428 229 428 229 450 190.5 c 128,-1,64
 472 152 472 152 472 118 c 0,65,66
 472 85 472 85 450 55.5 c 128,-1,67
 428 26 428 26 386.5 8 c 128,-1,68
 345 -10 345 -10 285 -10 c 0,69,70
 191 -10 191 -10 139.5 31 c 128,-1,71
 88 72 88 72 88 144 c 0,0,1
472 532 m 0,72,73
 472 489 472 489 497.5 460 c 128,-1,74
 523 431 523 431 557 431 c 0,75,76
 589 431 589 431 607 454 c 128,-1,77
 625 477 625 477 625 512 c 0,78,79
 625 554 625 554 600 583.5 c 128,-1,80
 575 613 575 613 541 613 c 0,81,82
 509 613 509 613 490.5 590 c 128,-1,83
 472 567 472 567 472 532 c 0,72,73
EndSplineSet
EndChar

StartChar: caorya
Encoding: 2842 2842 20
Width: 625
GlyphClass: 2
Flags: W
AnchorPoint: "+BBEENQQ3BEsEPARPBD0EPQQ+BDUA--5" 356 0 basechar 0
AnchorPoint: "+BBEENQQ3BEsEPARPBD0EPQQ+BDUA--3" 308 0 basechar 0
AnchorPoint: "+BBEENQQ3BEsEPARPBD0EPQQ+BDUA--2" 308 657 basechar 0
AnchorPoint: "+BBEENQQ3BEsEPARPBD0EPQQ+BDUA--0" 509 657 basechar 0
LayerCount: 2
Fore
SplineSet
129 158 m 0,0,1
 129 185 129 185 136 209 c 1,2,3
 84 254 84 254 58 310.5 c 128,-1,4
 32 367 32 367 32 424 c 0,5,6
 32 492 32 492 67.5 547 c 128,-1,7
 103 602 103 602 166 634.5 c 128,-1,8
 229 667 229 667 311 667 c 0,9,10
 373 667 373 667 421 649.5 c 128,-1,11
 469 632 469 632 505.5 605.5 c 128,-1,12
 542 579 542 579 568.5 550 c 128,-1,13
 595 521 595 521 614 498 c 1,14,-1
 565 446 l 1,15,-1
 555 446 l 1,16,17
 532 479 532 479 496.5 515 c 128,-1,18
 461 551 461 551 411.5 576 c 128,-1,19
 362 601 362 601 296 601 c 0,20,21
 239 601 239 601 195 580 c 128,-1,22
 151 559 151 559 125.5 521.5 c 128,-1,23
 100 484 100 484 100 435 c 256,24,25
 100 386 100 386 124 347 c 128,-1,26
 148 308 148 308 183 291 c 1,27,28
 205 312 205 312 234 324.5 c 128,-1,29
 263 337 263 337 297 337 c 0,30,31
 342 337 342 337 378 315 c 128,-1,32
 414 293 414 293 434.5 255 c 128,-1,33
 455 217 455 217 455 169 c 0,34,35
 455 119 455 119 433 78.5 c 128,-1,36
 411 38 411 38 373 14 c 128,-1,37
 335 -10 335 -10 287 -10 c 0,38,39
 242 -10 242 -10 206.5 12 c 128,-1,40
 171 34 171 34 150 72 c 128,-1,41
 129 110 129 110 129 158 c 0,0,1
192 185 m 0,42,43
 192 146 192 146 208.5 115.5 c 128,-1,44
 225 85 225 85 251.5 67.5 c 128,-1,45
 278 50 278 50 308 50 c 0,46,47
 348 50 348 50 370 76.5 c 128,-1,48
 392 103 392 103 392 143 c 0,49,50
 392 182 392 182 375.5 212.5 c 128,-1,51
 359 243 359 243 333 260.5 c 128,-1,52
 307 278 307 278 276 278 c 0,53,54
 236 278 236 278 214 251.5 c 128,-1,55
 192 225 192 225 192 185 c 0,42,43
EndSplineSet
EndChar

StartChar: chaorya
Encoding: 2843 2843 21
Width: 594
GlyphClass: 2
Flags: W
AnchorPoint: "+BBEENQQ3BEsEPARPBD0EPQQ+BDUA--5" 455 0 basechar 0
AnchorPoint: "+BBEENQQ3BEsEPARPBD0EPQQ+BDUA--3" 298 0 basechar 0
AnchorPoint: "+BBEENQQ3BEsEPARPBD0EPQQ+BDUA--2" 290 657 basechar 0
AnchorPoint: "+BBEENQQ3BEsEPARPBD0EPQQ+BDUA--0" 480 657 basechar 0
LayerCount: 2
Fore
SplineSet
41 98 m 0,0,1
 41 151 41 151 76 181.5 c 128,-1,2
 111 212 111 212 163 212 c 0,3,4
 170 212 170 212 176 211 c 1,5,6
 172 219 172 219 169 227 c 1,7,8
 93 269 93 269 62.5 325.5 c 128,-1,9
 32 382 32 382 32 437 c 0,10,11
 32 501 32 501 66 553 c 128,-1,12
 100 605 100 605 162 636 c 128,-1,13
 224 667 224 667 308 667 c 0,14,15
 374 667 374 667 424.5 649 c 128,-1,16
 475 631 475 631 512.5 603.5 c 128,-1,17
 550 576 550 576 576 547 c 1,18,-1
 532 497 l 1,19,-1
 521 497 l 1,20,21
 484 539 484 539 425.5 570 c 128,-1,22
 367 601 367 601 292 601 c 0,23,24
 235 601 235 601 192 581.5 c 128,-1,25
 149 562 149 562 124.5 527.5 c 128,-1,26
 100 493 100 493 100 448 c 0,27,28
 100 411 100 411 117 378 c 128,-1,29
 134 345 134 345 165 323 c 1,30,31
 178 371 178 371 215.5 401.5 c 128,-1,32
 253 432 253 432 303 432 c 0,33,34
 342 432 342 432 372.5 413 c 128,-1,35
 403 394 403 394 420.5 361.5 c 128,-1,36
 438 329 438 329 438 288 c 0,37,38
 438 242 438 242 413 206 c 1,39,40
 432 211 432 211 449 211 c 0,41,42
 488 211 488 211 519 185.5 c 128,-1,43
 550 160 550 160 550 110 c 256,44,45
 550 60 550 60 516 25.5 c 128,-1,46
 482 -9 482 -9 429 -9 c 0,47,48
 390 -9 390 -9 356 11 c 128,-1,49
 322 31 322 31 292 65 c 1,50,51
 265 30 265 30 228 10 c 128,-1,52
 191 -10 191 -10 151 -10 c 0,53,54
 102 -10 102 -10 71.5 20 c 128,-1,55
 41 50 41 50 41 98 c 0,0,1
221 294 m 0,56,57
 221 249 221 249 247 218.5 c 128,-1,58
 273 188 273 188 307 188 c 0,59,60
 339 188 339 188 357.5 212.5 c 128,-1,61
 376 237 376 237 376 274 c 0,62,63
 376 317 376 317 350.5 346.5 c 128,-1,64
 325 376 325 376 290 376 c 0,65,66
 259 376 259 376 240 353 c 128,-1,67
 221 330 221 330 221 294 c 0,56,57
101 112 m 0,68,69
 101 87 101 87 120.5 69.5 c 128,-1,70
 140 52 140 52 171 52 c 0,71,72
 196 52 196 52 219.5 64.5 c 128,-1,73
 243 77 243 77 262 97 c 1,74,75
 234 124 234 124 205.5 139.5 c 128,-1,76
 177 155 177 155 150 155 c 0,77,78
 101 155 101 155 101 112 c 0,68,69
413 154 m 0,79,80
 392 154 392 154 370.5 145.5 c 128,-1,81
 349 137 349 137 332 120 c 1,82,83
 361 88 361 88 387.5 71.5 c 128,-1,84
 414 55 414 55 442 55 c 0,85,86
 465 55 465 55 479 65 c 128,-1,87
 493 75 493 75 493 93 c 0,88,89
 493 121 493 121 466.5 137.5 c 128,-1,90
 440 154 440 154 413 154 c 0,79,80
EndSplineSet
EndChar

StartChar: jaorya
Encoding: 2844 2844 22
Width: 637
GlyphClass: 2
Flags: W
AnchorPoint: "+BBEENQQ3BEsEPARPBD0EPQQ+BDUA--5" 508 0 basechar 0
AnchorPoint: "+BBEENQQ3BEsEPARPBD0EPQQ+BDUA--3" 329 0 basechar 0
AnchorPoint: "+BBEENQQ3BEsEPARPBD0EPQQ+BDUA--2" 329 657 basechar 0
AnchorPoint: "+BBEENQQ3BEsEPARPBD0EPQQ+BDUA--0" 502 657 basechar 0
LayerCount: 2
Fore
SplineSet
84 136 m 0,0,1
 84 186 84 186 108 236 c 1,2,3
 70 278 70 278 51 326.5 c 128,-1,4
 32 375 32 375 32 424 c 0,5,6
 32 492 32 492 67.5 547 c 128,-1,7
 103 602 103 602 166 634.5 c 128,-1,8
 229 667 229 667 311 667 c 0,9,10
 373 667 373 667 421 649.5 c 128,-1,11
 469 632 469 632 505.5 605.5 c 128,-1,12
 542 579 542 579 568.5 550 c 128,-1,13
 595 521 595 521 614 498 c 1,14,-1
 565 446 l 1,15,-1
 555 446 l 1,16,17
 532 479 532 479 496.5 515 c 128,-1,18
 461 551 461 551 411.5 576 c 128,-1,19
 362 601 362 601 296 601 c 0,20,21
 239 601 239 601 195 580 c 128,-1,22
 151 559 151 559 125.5 521.5 c 128,-1,23
 100 484 100 484 100 435 c 0,24,25
 100 397 100 397 115.5 364 c 128,-1,26
 131 331 131 331 155 309 c 1,27,28
 184 343 184 343 222 376 c 1,29,-1
 256 339 l 1,30,31
 197 284 197 284 172 236 c 128,-1,32
 147 188 147 188 147 149 c 0,33,34
 147 102 147 102 176 77 c 128,-1,35
 205 52 205 52 243 52 c 0,36,37
 268 52 268 52 291.5 61.5 c 128,-1,38
 315 71 315 71 334 84 c 1,39,40
 303 111 303 111 276.5 149 c 128,-1,41
 250 187 250 187 250 225 c 0,42,43
 250 233 250 233 254 243.5 c 128,-1,44
 258 254 258 254 276 276 c 0,45,46
 291 293 291 293 305 301.5 c 128,-1,47
 319 310 319 310 344 310 c 2,48,-1
 501 310 l 1,49,-1
 508 303 l 1,50,-1
 508 7 l 1,51,-1
 448 -7 l 1,52,-1
 441 0 l 1,53,-1
 441 246 l 1,54,-1
 325 246 l 2,55,56
 317 246 317 246 317 236 c 0,57,58
 317 217 317 217 339.5 185.5 c 128,-1,59
 362 154 362 154 395 119 c 1,60,-1
 395 110 l 1,61,-1
 366 45 l 1,62,63
 343 23 343 23 308 6.5 c 128,-1,64
 273 -10 273 -10 230 -10 c 0,65,66
 169 -10 169 -10 126.5 28 c 128,-1,67
 84 66 84 66 84 136 c 0,0,1
EndSplineSet
EndChar

StartChar: jhaorya
Encoding: 2845 2845 23
Width: 630
GlyphClass: 2
Flags: W
AnchorPoint: "+BBEENQQ3BEsEPARPBD0EPQQ+BDUA--5" 365 0 basechar 0
AnchorPoint: "+BBEENQQ3BEsEPARPBD0EPQQ+BDUA--3" 310 0 basechar 0
AnchorPoint: "+BBEENQQ3BEsEPARPBD0EPQQ+BDUA--2" 315 657 basechar 0
AnchorPoint: "+BBEENQQ3BEsEPARPBD0EPQQ+BDUA--0" 482 657 basechar 0
LayerCount: 2
Fore
SplineSet
131 158 m 0,0,1
 131 191 131 191 141 221 c 1,2,3
 88 259 88 259 60 314.5 c 128,-1,4
 32 370 32 370 32 430 c 0,5,6
 32 494 32 494 67.5 548 c 128,-1,7
 103 602 103 602 166 634.5 c 128,-1,8
 229 667 229 667 313 667 c 0,9,10
 381 667 381 667 439 643 c 1,11,-1
 444 631 l 1,12,13
 410 593 410 593 394 563.5 c 128,-1,14
 378 534 378 534 378 511 c 0,15,16
 378 480 378 480 401 463.5 c 128,-1,17
 424 447 424 447 459 447 c 0,18,19
 497 447 497 447 525 465 c 128,-1,20
 553 483 553 483 553 511 c 0,21,22
 553 530 553 530 544 563 c 128,-1,23
 535 596 535 596 519 627 c 1,24,-1
 586 657 l 1,25,26
 595 634 595 634 601 606.5 c 128,-1,27
 607 579 607 579 610 555.5 c 128,-1,28
 613 532 613 532 613 519 c 0,29,30
 613 463 613 463 569 422.5 c 128,-1,31
 525 382 525 382 445 382 c 0,32,33
 386 382 386 382 348.5 414.5 c 128,-1,34
 311 447 311 447 311 496 c 0,35,36
 311 522 311 522 321.5 546 c 128,-1,37
 332 570 332 570 352 596 c 1,38,39
 327 601 327 601 302 601 c 0,40,41
 239 601 239 601 193.5 580 c 128,-1,42
 148 559 148 559 124 523.5 c 128,-1,43
 100 488 100 488 100 444 c 0,44,45
 100 395 100 395 124.5 358 c 128,-1,46
 149 321 149 321 193 298 c 1,47,48
 214 316 214 316 241 326.5 c 128,-1,49
 268 337 268 337 299 337 c 0,50,51
 344 337 344 337 380 315 c 128,-1,52
 416 293 416 293 436.5 255 c 128,-1,53
 457 217 457 217 457 169 c 0,54,55
 457 139 457 139 448 110 c 1,56,-1
 565 54 l 1,57,-1
 532 -9 l 1,58,-1
 518 -9 l 1,59,-1
 420 55 l 1,60,61
 397 25 397 25 363 7.5 c 128,-1,62
 329 -10 329 -10 289 -10 c 0,63,64
 244 -10 244 -10 208.5 12 c 128,-1,65
 173 34 173 34 152 72 c 128,-1,66
 131 110 131 110 131 158 c 0,0,1
194 185 m 0,67,68
 194 146 194 146 210.5 115.5 c 128,-1,69
 227 85 227 85 253.5 67.5 c 128,-1,70
 280 50 280 50 310 50 c 0,71,72
 350 50 350 50 372 76.5 c 128,-1,73
 394 103 394 103 394 143 c 0,74,75
 394 182 394 182 377.5 212.5 c 128,-1,76
 361 243 361 243 335 260.5 c 128,-1,77
 309 278 309 278 278 278 c 0,78,79
 238 278 238 278 216 251.5 c 128,-1,80
 194 225 194 225 194 185 c 0,67,68
EndSplineSet
EndChar

StartChar: nyaorya
Encoding: 2846 2846 24
Width: 654
GlyphClass: 2
Flags: W
AnchorPoint: "+BBEENQQ3BEsEPARPBD0EPQQ+BDUA--5" 486 0 basechar 0
AnchorPoint: "+BBEENQQ3BEsEPARPBD0EPQQ+BDUA--3" 325 0 basechar 0
AnchorPoint: "+BBEENQQ3BEsEPARPBD0EPQQ+BDUA--2" 325 657 basechar 0
AnchorPoint: "+BBEENQQ3BEsEPARPBD0EPQQ+BDUA--0" 454 657 basechar 0
LayerCount: 2
Fore
SplineSet
52 198 m 0,0,1
 52 231 52 231 62.5 271.5 c 128,-1,2
 73 312 73 312 98 353 c 1,3,4
 71 374 71 374 58.5 399.5 c 128,-1,5
 46 425 46 425 46 453 c 0,6,7
 46 507 46 507 67 559 c 128,-1,8
 88 611 88 611 121 665 c 1,9,-1
 166 638 l 1,10,11
 141 589 141 589 126 548 c 128,-1,12
 111 507 111 507 111 471 c 0,13,14
 111 434 111 434 147.5 404 c 128,-1,15
 184 374 184 374 254 363 c 1,16,17
 285 383 285 383 319 383 c 0,18,19
 346 383 346 383 369.5 370 c 128,-1,20
 393 357 393 357 407 333 c 1,21,22
 422 353 422 353 442.5 365.5 c 128,-1,23
 463 378 463 378 486 382 c 1,24,25
 509 393 509 393 524.5 410.5 c 128,-1,26
 540 428 540 428 540 450 c 0,27,28
 540 521 540 521 516.5 563.5 c 128,-1,29
 493 606 493 606 465 606 c 0,30,31
 451 606 451 606 441.5 594.5 c 128,-1,32
 432 583 432 583 432 560 c 2,33,-1
 432 449 l 1,34,-1
 375 430 l 1,35,-1
 369 437 l 1,36,-1
 369 509 l 2,37,38
 369 551 369 551 349.5 579 c 128,-1,39
 330 607 330 607 299 607 c 0,40,41
 282 607 282 607 270 593.5 c 128,-1,42
 258 580 258 580 258 561 c 0,43,44
 258 536 258 536 269 507 c 128,-1,45
 280 478 280 478 299 444 c 1,46,-1
 225 422 l 1,47,48
 213 448 213 448 202.5 482 c 128,-1,49
 192 516 192 516 192 545 c 0,50,51
 192 578 192 578 209.5 605.5 c 128,-1,52
 227 633 227 633 254.5 650 c 128,-1,53
 282 667 282 667 313 667 c 0,54,55
 340 667 340 667 363 654 c 128,-1,56
 386 641 386 641 400 619 c 1,57,58
 416 640 416 640 439 653.5 c 128,-1,59
 462 667 462 667 488 667 c 0,60,61
 519 667 519 667 545.5 643 c 128,-1,62
 572 619 572 619 588.5 576.5 c 128,-1,63
 605 534 605 534 605 479 c 0,64,65
 605 441 605 441 592 411.5 c 128,-1,66
 579 382 579 382 557 361 c 1,67,68
 582 339 582 339 596.5 296.5 c 128,-1,69
 611 254 611 254 611 194 c 0,70,71
 611 137 611 137 588.5 98 c 128,-1,72
 566 59 566 59 527 35 c 128,-1,73
 488 11 488 11 439 0.5 c 128,-1,74
 390 -10 390 -10 337 -10 c 0,75,76
 238 -10 238 -10 175 19.5 c 128,-1,77
 112 49 112 49 82 96.5 c 128,-1,78
 52 144 52 144 52 198 c 0,0,1
117 216 m 0,79,80
 117 173 117 173 143.5 135.5 c 128,-1,81
 170 98 170 98 222 75 c 128,-1,82
 274 52 274 52 350 52 c 0,83,84
 383 52 383 52 417.5 58 c 128,-1,85
 452 64 452 64 481 78 c 128,-1,86
 510 92 510 92 528 116 c 128,-1,87
 546 140 546 140 546 175 c 0,88,89
 546 237 546 237 527 279.5 c 128,-1,90
 508 322 508 322 478 322 c 0,91,92
 462 322 462 322 450 310.5 c 128,-1,93
 438 299 438 299 438 276 c 2,94,-1
 438 156 l 1,95,-1
 381 137 l 1,96,-1
 375 144 l 1,97,-1
 375 225 l 2,98,99
 375 267 375 267 355.5 295 c 128,-1,100
 336 323 336 323 305 323 c 0,101,102
 288 323 288 323 276 310.5 c 128,-1,103
 264 298 264 298 264 279 c 0,104,105
 264 252 264 252 276.5 218.5 c 128,-1,106
 289 185 289 185 305 154 c 1,107,-1
 234 130 l 1,108,109
 221 159 221 159 209.5 197 c 128,-1,110
 198 235 198 235 198 261 c 0,111,112
 198 284 198 284 207 306 c 1,113,114
 173 313 173 313 145 325 c 1,115,116
 128 292 128 292 122.5 263 c 128,-1,117
 117 234 117 234 117 216 c 0,79,80
EndSplineSet
EndChar

StartChar: ttaorya
Encoding: 2847 2847 25
Width: 616
GlyphClass: 2
Flags: W
AnchorPoint: "+BBEENQQ3BEsEPARPBD0EPQQ+BDUA--5" 357 0 basechar 0
AnchorPoint: "+BBEENQQ3BEsEPARPBD0EPQQ+BDUA--3" 317 0 basechar 0
AnchorPoint: "+BBEENQQ3BEsEPARPBD0EPQQ+BDUA--2" 317 657 basechar 0
AnchorPoint: "+BBEENQQ3BEsEPARPBD0EPQQ+BDUA--0" 515 657 basechar 0
LayerCount: 2
Fore
SplineSet
119 158 m 0,0,1
 119 195 119 195 132 228 c 1,2,3
 83 266 83 266 57.5 319 c 128,-1,4
 32 372 32 372 32 427 c 0,5,6
 32 494 32 494 66 548 c 128,-1,7
 100 602 100 602 160.5 634.5 c 128,-1,8
 221 667 221 667 301 667 c 0,9,10
 428 667 428 667 515 582 c 1,11,-1
 515 650 l 1,12,-1
 575 664 l 1,13,-1
 582 657 l 1,14,-1
 582 362 l 1,15,-1
 522 348 l 1,16,-1
 515 355 l 1,17,-1
 515 491 l 1,18,19
 473 542 473 542 415.5 571.5 c 128,-1,20
 358 601 358 601 290 601 c 0,21,22
 232 601 232 601 189 579.5 c 128,-1,23
 146 558 146 558 123 522 c 128,-1,24
 100 486 100 486 100 440 c 256,25,26
 100 394 100 394 123 357.5 c 128,-1,27
 146 321 146 321 185 301 c 1,28,29
 206 318 206 318 232 327.5 c 128,-1,30
 258 337 258 337 287 337 c 0,31,32
 332 337 332 337 368 315 c 128,-1,33
 404 293 404 293 424.5 255 c 128,-1,34
 445 217 445 217 445 169 c 0,35,36
 445 119 445 119 423 78.5 c 128,-1,37
 401 38 401 38 363 14 c 128,-1,38
 325 -10 325 -10 277 -10 c 0,39,40
 232 -10 232 -10 196.5 12 c 128,-1,41
 161 34 161 34 140 72 c 128,-1,42
 119 110 119 110 119 158 c 0,0,1
182 185 m 0,43,44
 182 146 182 146 198.5 115.5 c 128,-1,45
 215 85 215 85 241.5 67.5 c 128,-1,46
 268 50 268 50 298 50 c 0,47,48
 338 50 338 50 360 76.5 c 128,-1,49
 382 103 382 103 382 143 c 0,50,51
 382 182 382 182 365.5 212.5 c 128,-1,52
 349 243 349 243 323 260.5 c 128,-1,53
 297 278 297 278 266 278 c 0,54,55
 226 278 226 278 204 251.5 c 128,-1,56
 182 225 182 225 182 185 c 0,43,44
EndSplineSet
EndChar

StartChar: tthaorya
Encoding: 2848 2848 26
Width: 716
GlyphClass: 2
Flags: W
AnchorPoint: "+BBEENQQ3BEsEPARPBD0EPQQ+BDUA--5" 460 0 basechar 0
AnchorPoint: "+BBEENQQ3BEsEPARPBD0EPQQ+BDUA--3" 358 0 basechar 0
AnchorPoint: "+BBEENQQ3BEsEPARPBD0EPQQ+BDUA--2" 352 657 basechar 0
AnchorPoint: "+BBEENQQ3BEsEPARPBD0EPQQ+BDUA--0" 534 657 basechar 0
LayerCount: 2
Fore
SplineSet
38 322 m 0,0,1
 38 394 38 394 63 456.5 c 128,-1,2
 88 519 88 519 132 565.5 c 128,-1,3
 176 612 176 612 235 638 c 128,-1,4
 294 664 294 664 363 664 c 0,5,6
 431 664 431 664 488 639 c 128,-1,7
 545 614 545 614 588 569 c 128,-1,8
 631 524 631 524 654.5 463.5 c 128,-1,9
 678 403 678 403 678 332 c 0,10,11
 678 260 678 260 653 197.5 c 128,-1,12
 628 135 628 135 584 88.5 c 128,-1,13
 540 42 540 42 481 16 c 128,-1,14
 422 -10 422 -10 353 -10 c 0,15,16
 286 -10 286 -10 228.5 15 c 128,-1,17
 171 40 171 40 128 85 c 128,-1,18
 85 130 85 130 61.5 190.5 c 128,-1,19
 38 251 38 251 38 322 c 0,0,1
105 339 m 0,20,21
 105 260 105 260 140.5 196 c 128,-1,22
 176 132 176 132 237 94.5 c 128,-1,23
 298 57 298 57 372 57 c 0,24,25
 444 57 444 57 497.5 91.5 c 128,-1,26
 551 126 551 126 581 184.5 c 128,-1,27
 611 243 611 243 611 314 c 0,28,29
 611 393 611 393 575.5 457.5 c 128,-1,30
 540 522 540 522 479 560 c 128,-1,31
 418 598 418 598 343 598 c 0,32,33
 272 598 272 598 218.5 563.5 c 128,-1,34
 165 529 165 529 135 470 c 128,-1,35
 105 411 105 411 105 339 c 0,20,21
EndSplineSet
EndChar

StartChar: ddaorya
Encoding: 2849 2849 27
Width: 619
GlyphClass: 2
Flags: W
AnchorPoint: "+BBEENQQ3BEsEPARPBD0EPQQ+BDUA--5" 412 0 basechar 0
AnchorPoint: "+BBEENQQ3BEsEPARPBD0EPQQ+BDUA--3" 317 0 basechar 0
AnchorPoint: "+BBEENQQ3BEsEPARPBD0EPQQ+BDUA--2" 317 657 basechar 0
AnchorPoint: "+BBEENQQ3BEsEPARPBD0EPQQ+BDUA--0" 500 657 basechar 0
LayerCount: 2
Fore
SplineSet
114 144 m 0,0,1
 114 178 114 178 129 215 c 1,2,3
 81 259 81 259 56.5 314 c 128,-1,4
 32 369 32 369 32 424 c 0,5,6
 32 492 32 492 67.5 547 c 128,-1,7
 103 602 103 602 166 634.5 c 128,-1,8
 229 667 229 667 311 667 c 0,9,10
 373 667 373 667 421 649.5 c 128,-1,11
 469 632 469 632 505.5 605.5 c 128,-1,12
 542 579 542 579 568.5 550 c 128,-1,13
 595 521 595 521 614 498 c 1,14,-1
 565 446 l 1,15,-1
 555 446 l 1,16,17
 532 479 532 479 496.5 515 c 128,-1,18
 461 551 461 551 411.5 576 c 128,-1,19
 362 601 362 601 296 601 c 0,20,21
 239 601 239 601 195 580 c 128,-1,22
 151 559 151 559 125.5 521.5 c 128,-1,23
 100 484 100 484 100 435 c 0,24,25
 100 389 100 389 122 351 c 128,-1,26
 144 313 144 313 177 294 c 1,27,28
 194 315 194 315 214 336 c 128,-1,29
 234 357 234 357 256 376 c 1,30,-1
 293 339 l 1,31,32
 241 290 241 290 209.5 243 c 128,-1,33
 178 196 178 196 178 158 c 0,34,35
 178 110 178 110 216 82.5 c 128,-1,36
 254 55 254 55 323 55 c 0,37,38
 370 55 370 55 405.5 72.5 c 128,-1,39
 441 90 441 90 441 115 c 0,40,41
 441 141 441 141 416 169 c 128,-1,42
 391 197 391 197 349 216 c 1,43,44
 331 200 331 200 311 183 c 1,45,-1
 283 208 l 1,46,47
 322 249 322 249 358.5 289.5 c 128,-1,48
 395 330 395 330 425 366 c 1,49,-1
 463 329 l 1,50,51
 437 299 437 299 406 269 c 1,52,53
 454 229 454 229 476 190.5 c 128,-1,54
 498 152 498 152 498 118 c 0,55,56
 498 85 498 85 476 55.5 c 128,-1,57
 454 26 454 26 412.5 8 c 128,-1,58
 371 -10 371 -10 311 -10 c 0,59,60
 217 -10 217 -10 165.5 31 c 128,-1,61
 114 72 114 72 114 144 c 0,0,1
EndSplineSet
EndChar

StartChar: ddhaorya
Encoding: 2850 2850 28
Width: 629
GlyphClass: 2
Flags: W
AnchorPoint: "+BBEENQQ3BEsEPARPBD0EPQQ+BDUA--5" 440 0 basechar 0
AnchorPoint: "+BBEENQQ3BEsEPARPBD0EPQQ+BDUA--3" 329 0 basechar 0
AnchorPoint: "+BBEENQQ3BEsEPARPBD0EPQQ+BDUA--2" 317 657 basechar 0
AnchorPoint: "+BBEENQQ3BEsEPARPBD0EPQQ+BDUA--0" 502 657 basechar 0
LayerCount: 2
Fore
SplineSet
105 156 m 0,0,1
 105 191 105 191 118 226 c 1,2,3
 75 269 75 269 53.5 320.5 c 128,-1,4
 32 372 32 372 32 424 c 0,5,6
 32 492 32 492 67.5 547 c 128,-1,7
 103 602 103 602 166 634.5 c 128,-1,8
 229 667 229 667 311 667 c 0,9,10
 373 667 373 667 421 649.5 c 128,-1,11
 469 632 469 632 505.5 605.5 c 128,-1,12
 542 579 542 579 568.5 550 c 128,-1,13
 595 521 595 521 614 498 c 1,14,-1
 565 446 l 1,15,-1
 555 446 l 1,16,17
 532 479 532 479 496.5 515 c 128,-1,18
 461 551 461 551 411.5 576 c 128,-1,19
 362 601 362 601 296 601 c 0,20,21
 239 601 239 601 195 580 c 128,-1,22
 151 559 151 559 125.5 521.5 c 128,-1,23
 100 484 100 484 100 435 c 0,24,25
 100 394 100 394 117 359.5 c 128,-1,26
 134 325 134 325 162 304 c 1,27,28
 174 321 174 321 188 337.5 c 128,-1,29
 202 354 202 354 217 370 c 1,30,-1
 259 339 l 1,31,32
 213 284 213 284 191.5 244 c 128,-1,33
 170 204 170 204 170 170 c 0,34,35
 170 118 170 118 208.5 85 c 128,-1,36
 247 52 247 52 327 52 c 0,37,38
 336 52 336 52 344 53 c 1,39,40
 314 73 314 73 293.5 107 c 128,-1,41
 273 141 273 141 273 179 c 0,42,43
 273 212 273 212 289 240.5 c 128,-1,44
 305 269 305 269 333 287 c 128,-1,45
 361 305 361 305 397 305 c 256,46,47
 433 305 433 305 464 285.5 c 128,-1,48
 495 266 495 266 513.5 232.5 c 128,-1,49
 532 199 532 199 532 157 c 0,50,51
 532 92 532 92 479 46 c 1,52,53
 500 35 500 35 518 28 c 128,-1,54
 536 21 536 21 553 16 c 1,55,-1
 521 -34 l 1,56,-1
 510 -36 l 1,57,58
 486 -28 486 -28 463 -16.5 c 128,-1,59
 440 -5 440 -5 416 9 c 1,60,61
 367 -10 367 -10 307 -10 c 0,62,63
 212 -10 212 -10 158.5 36 c 128,-1,64
 105 82 105 82 105 156 c 0,0,1
331 189 m 0,65,66
 331 156 331 156 356.5 125 c 128,-1,67
 382 94 382 94 422 72 c 1,68,69
 472 99 472 99 472 142 c 0,70,71
 472 169 472 169 459.5 192 c 128,-1,72
 447 215 447 215 426.5 228.5 c 128,-1,73
 406 242 406 242 383 242 c 0,74,75
 361 242 361 242 346 228.5 c 128,-1,76
 331 215 331 215 331 189 c 0,65,66
EndSplineSet
EndChar

StartChar: nnaorya
Encoding: 2851 2851 29
Width: 631
GlyphClass: 2
Flags: W
AnchorPoint: "+BBEENQQ3BEsEPARPBD0EPQQ+BDUA--5" 570 0 basechar 0
AnchorPoint: "+BBEENQQ3BEsEPARPBD0EPQQ+BDUA--3" 345 0 basechar 0
AnchorPoint: "+BBEENQQ3BEsEPARPBD0EPQQ+BDUA--2" 308 657 basechar 0
AnchorPoint: "+BBEENQQ3BEsEPARPBD0EPQQ+BDUA--0" 503 657 basechar 0
LayerCount: 2
Fore
SplineSet
30 207 m 0,0,1
 30 279 30 279 68.5 339.5 c 128,-1,2
 107 400 107 400 171 426 c 1,3,4
 146 444 146 444 128 471.5 c 128,-1,5
 110 499 110 499 110 534 c 0,6,7
 110 564 110 564 129 595 c 128,-1,8
 148 626 148 626 186.5 646.5 c 128,-1,9
 225 667 225 667 284 667 c 0,10,11
 348 667 348 667 405.5 642.5 c 128,-1,12
 463 618 463 618 503 582 c 1,13,-1
 503 650 l 1,14,-1
 563 664 l 1,15,-1
 570 657 l 1,16,-1
 570 7 l 1,17,-1
 510 -7 l 1,18,-1
 503 0 l 1,19,-1
 503 485 l 1,20,21
 477 523 477 523 437 549 c 128,-1,22
 397 575 397 575 353 588 c 128,-1,23
 309 601 309 601 272 601 c 0,24,25
 227 601 227 601 202 584.5 c 128,-1,26
 177 568 177 568 177 542 c 0,27,28
 177 511 177 511 221 480 c 128,-1,29
 265 449 265 449 353 433 c 1,30,-1
 353 423 l 1,31,-1
 337 372 l 1,32,33
 318 380 318 380 297.5 383.5 c 128,-1,34
 277 387 277 387 259 387 c 0,35,36
 212 387 212 387 174.5 362 c 128,-1,37
 137 337 137 337 116 297.5 c 128,-1,38
 95 258 95 258 95 212 c 1,39,40
 166 276 166 276 251 276 c 0,41,42
 316 276 316 276 357.5 237.5 c 128,-1,43
 399 199 399 199 399 134 c 256,44,45
 399 69 399 69 354.5 29.5 c 128,-1,46
 310 -10 310 -10 239 -10 c 0,47,48
 178 -10 178 -10 131 19 c 128,-1,49
 84 48 84 48 57 97.5 c 128,-1,50
 30 147 30 147 30 207 c 0,0,1
233 214 m 0,51,52
 201 214 201 214 167 200 c 128,-1,53
 133 186 133 186 102 162 c 1,54,55
 118 110 118 110 161 82 c 128,-1,56
 204 54 204 54 251 54 c 0,57,58
 270 54 270 54 289.5 61.5 c 128,-1,59
 309 69 309 69 322.5 85 c 128,-1,60
 336 101 336 101 336 128 c 0,61,62
 336 169 336 169 305 191.5 c 128,-1,63
 274 214 274 214 233 214 c 0,51,52
EndSplineSet
EndChar

StartChar: taorya
Encoding: 2852 2852 30
Width: 627
GlyphClass: 2
Flags: W
AnchorPoint: "+BBEENQQ3BEsEPARPBD0EPQQ+BDUA--5" 417 0 basechar 0
AnchorPoint: "+BBEENQQ3BEsEPARPBD0EPQQ+BDUA--3" 302 0 basechar 0
AnchorPoint: "+BBEENQQ3BEsEPARPBD0EPQQ+BDUA--2" 317 657 basechar 0
AnchorPoint: "+BBEENQQ3BEsEPARPBD0EPQQ+BDUA--0" 494 657 basechar 0
LayerCount: 2
Fore
SplineSet
114 149 m 0,0,1
 114 180 114 180 128 216 c 1,2,3
 80 260 80 260 56 314.5 c 128,-1,4
 32 369 32 369 32 424 c 0,5,6
 32 492 32 492 67.5 547 c 128,-1,7
 103 602 103 602 166 634.5 c 128,-1,8
 229 667 229 667 311 667 c 0,9,10
 373 667 373 667 421 649.5 c 128,-1,11
 469 632 469 632 505.5 605.5 c 128,-1,12
 542 579 542 579 568.5 550 c 128,-1,13
 595 521 595 521 614 498 c 1,14,-1
 565 446 l 1,15,-1
 555 446 l 1,16,17
 532 479 532 479 496.5 515 c 128,-1,18
 461 551 461 551 411.5 576 c 128,-1,19
 362 601 362 601 296 601 c 0,20,21
 239 601 239 601 195 580 c 128,-1,22
 151 559 151 559 125.5 521.5 c 128,-1,23
 100 484 100 484 100 435 c 0,24,25
 100 389 100 389 121.5 351.5 c 128,-1,26
 143 314 143 314 175 295 c 1,27,28
 210 341 210 341 262 386 c 1,29,-1
 300 346 l 1,30,31
 239 288 239 288 210.5 244 c 128,-1,32
 182 200 182 200 182 160 c 0,33,34
 182 114 182 114 223 84.5 c 128,-1,35
 264 55 264 55 329 55 c 0,36,37
 388 55 388 55 426.5 79 c 128,-1,38
 465 103 465 103 465 137 c 0,39,40
 465 154 465 154 460.5 171 c 128,-1,41
 456 188 456 188 448 208 c 1,42,43
 436 206 436 206 423 206 c 0,44,45
 395 206 395 206 379.5 224.5 c 128,-1,46
 364 243 364 243 364 263 c 0,47,48
 364 292 364 292 380.5 309 c 128,-1,49
 397 326 397 326 416 326 c 0,50,51
 445 326 445 326 469.5 299.5 c 128,-1,52
 494 273 494 273 509 234 c 128,-1,53
 524 195 524 195 524 157 c 0,54,55
 524 81 524 81 469.5 35.5 c 128,-1,56
 415 -10 415 -10 319 -10 c 0,57,58
 257 -10 257 -10 211 11 c 128,-1,59
 165 32 165 32 139.5 67.5 c 128,-1,60
 114 103 114 103 114 149 c 0,0,1
EndSplineSet
EndChar

StartChar: thaorya
Encoding: 2853 2853 31
Width: 628
GlyphClass: 2
Flags: W
AnchorPoint: "+BBEENQQ3BEsEPARPBD0EPQQ+BDUA--5" 567 0 basechar 0
AnchorPoint: "+BBEENQQ3BEsEPARPBD0EPQQ+BDUA--3" 342 0 basechar 0
AnchorPoint: "+BBEENQQ3BEsEPARPBD0EPQQ+BDUA--2" 314 657 basechar 0
AnchorPoint: "+BBEENQQ3BEsEPARPBD0EPQQ+BDUA--0" 500 657 basechar 0
LayerCount: 2
Fore
SplineSet
30 168 m 0,0,1
 30 255 30 255 95 305 c 0,2,3
 114 320 114 320 138.5 332.5 c 128,-1,4
 163 345 163 345 193 356 c 2,5,-1
 234 371 l 2,6,7
 261 381 261 381 283.5 391 c 128,-1,8
 306 401 306 401 322 414 c 0,9,10
 339 428 339 428 348 445.5 c 128,-1,11
 357 463 357 463 357 488 c 0,12,13
 357 535 357 535 325.5 568.5 c 128,-1,14
 294 602 294 602 238 602 c 0,15,16
 215 602 215 602 190.5 594 c 128,-1,17
 166 586 166 586 149.5 567 c 128,-1,18
 133 548 133 548 133 513 c 0,19,20
 133 490 133 490 140 467.5 c 128,-1,21
 147 445 147 445 154 427 c 1,22,-1
 89 404 l 1,23,24
 79 429 79 429 72 455 c 128,-1,25
 65 481 65 481 65 506 c 0,26,27
 65 560 65 560 92 596 c 128,-1,28
 119 632 119 632 161 649.5 c 128,-1,29
 203 667 203 667 249 667 c 0,30,31
 329 667 329 667 376.5 620 c 128,-1,32
 424 573 424 573 424 498 c 0,33,34
 424 451 424 451 406 419.5 c 128,-1,35
 388 388 388 388 356 365 c 0,36,37
 338 352 338 352 316.5 342 c 128,-1,38
 295 332 295 332 270 322 c 2,39,-1
 218 302 l 2,40,41
 160 280 160 280 131 250.5 c 128,-1,42
 102 221 102 221 102 179 c 0,43,44
 102 148 102 148 119.5 120 c 128,-1,45
 137 92 137 92 171.5 74.5 c 128,-1,46
 206 57 206 57 257 57 c 0,47,48
 315 57 315 57 380.5 85.5 c 128,-1,49
 446 114 446 114 500 181 c 1,50,-1
 500 650 l 1,51,-1
 560 664 l 1,52,-1
 567 657 l 1,53,-1
 567 7 l 1,54,-1
 507 -7 l 1,55,-1
 500 0 l 1,56,-1
 500 111 l 1,57,58
 452 50 452 50 384 20 c 128,-1,59
 316 -10 316 -10 242 -10 c 0,60,61
 144 -10 144 -10 87 40 c 128,-1,62
 30 90 30 90 30 168 c 0,0,1
EndSplineSet
EndChar

StartChar: daorya
Encoding: 2854 2854 32
Width: 637
GlyphClass: 2
Flags: W
AnchorPoint: "+BBEENQQ3BEsEPARPBD0EPQQ+BDUA--5" 476 0 basechar 0
AnchorPoint: "+BBEENQQ3BEsEPARPBD0EPQQ+BDUA--3" 313 0 basechar 0
AnchorPoint: "+BBEENQQ3BEsEPARPBD0EPQQ+BDUA--2" 313 657 basechar 0
AnchorPoint: "+BBEENQQ3BEsEPARPBD0EPQQ+BDUA--0" 490 657 basechar 0
LayerCount: 2
Fore
SplineSet
409 0 m 1,0,-1
 409 91 l 1,1,2
 384 73 384 73 353 62.5 c 128,-1,3
 322 52 322 52 287 52 c 0,4,5
 220 52 220 52 179.5 91 c 128,-1,6
 139 130 139 130 139 187 c 0,7,8
 139 197 139 197 140 205 c 1,9,10
 86 250 86 250 59 308 c 128,-1,11
 32 366 32 366 32 424 c 0,12,13
 32 492 32 492 67.5 547 c 128,-1,14
 103 602 103 602 166 634.5 c 128,-1,15
 229 667 229 667 311 667 c 0,16,17
 373 667 373 667 421 649.5 c 128,-1,18
 469 632 469 632 505.5 605.5 c 128,-1,19
 542 579 542 579 568.5 550 c 128,-1,20
 595 521 595 521 614 498 c 1,21,-1
 565 446 l 1,22,-1
 555 446 l 1,23,24
 532 479 532 479 496.5 515 c 128,-1,25
 461 551 461 551 411.5 576 c 128,-1,26
 362 601 362 601 296 601 c 0,27,28
 239 601 239 601 195 580 c 128,-1,29
 151 559 151 559 125.5 521.5 c 128,-1,30
 100 484 100 484 100 435 c 256,31,32
 100 386 100 386 123.5 347 c 128,-1,33
 147 308 147 308 181 292 c 1,34,35
 195 310 195 310 213 326.5 c 128,-1,36
 231 343 231 343 251 359 c 1,37,-1
 290 321 l 1,38,39
 250 288 250 288 229 259.5 c 128,-1,40
 208 231 208 231 208 202 c 0,41,42
 208 163 208 163 234 140.5 c 128,-1,43
 260 118 260 118 303 118 c 0,44,45
 335 118 335 118 362 126.5 c 128,-1,46
 389 135 389 135 409 146 c 1,47,-1
 409 290 l 1,48,-1
 469 305 l 1,49,-1
 476 298 l 1,50,-1
 476 7 l 1,51,-1
 416 -7 l 1,52,-1
 409 0 l 1,0,-1
EndSplineSet
EndChar

StartChar: dhaorya
Encoding: 2855 2855 33
Width: 582
GlyphClass: 2
Flags: W
AnchorPoint: "+BBEENQQ3BEsEPARPBD0EPQQ+BDUA--5" 521 0 basechar 0
AnchorPoint: "+BBEENQQ3BEsEPARPBD0EPQQ+BDUA--3" 296 0 basechar 0
AnchorPoint: "+BBEENQQ3BEsEPARPBD0EPQQ+BDUA--2" 292 657 basechar 0
AnchorPoint: "+BBEENQQ3BEsEPARPBD0EPQQ+BDUA--0" 454 657 basechar 0
LayerCount: 2
Fore
SplineSet
36 196 m 0,0,1
 36 264 36 264 79.5 324.5 c 128,-1,2
 123 385 123 385 216 425 c 1,3,4
 170 475 170 475 126 523.5 c 128,-1,5
 82 572 82 572 42 618 c 1,6,-1
 92 665 l 1,7,-1
 102 665 l 1,8,9
 161 592 161 592 231.5 507.5 c 128,-1,10
 302 423 302 423 377 334 c 1,11,-1
 342 304 l 1,12,-1
 332 304 l 1,13,14
 299 338 299 338 267 371 c 1,15,16
 205 358 205 358 169.5 330 c 128,-1,17
 134 302 134 302 119 268.5 c 128,-1,18
 104 235 104 235 104 204 c 0,19,20
 104 164 104 164 124.5 130 c 128,-1,21
 145 96 145 96 181.5 75.5 c 128,-1,22
 218 55 218 55 265 55 c 0,23,24
 309 55 309 55 352.5 75 c 128,-1,25
 396 95 396 95 425 138 c 128,-1,26
 454 181 454 181 454 248 c 2,27,-1
 454 650 l 1,28,-1
 514 664 l 1,29,-1
 521 657 l 1,30,-1
 521 7 l 1,31,-1
 461 -7 l 1,32,-1
 454 0 l 1,33,-1
 454 89 l 1,34,35
 419 39 419 39 367 14.5 c 128,-1,36
 315 -10 315 -10 255 -10 c 0,37,38
 189 -10 189 -10 140 18 c 128,-1,39
 91 46 91 46 63.5 93 c 128,-1,40
 36 140 36 140 36 196 c 0,0,1
EndSplineSet
EndChar

StartChar: naorya
Encoding: 2856 2856 34
Width: 637
GlyphClass: 2
Flags: W
AnchorPoint: "+BBEENQQ3BEsEPARPBD0EPQQ+BDUA--5" 450 0 basechar 0
AnchorPoint: "+BBEENQQ3BEsEPARPBD0EPQQ+BDUA--3" 323 0 basechar 0
AnchorPoint: "+BBEENQQ3BEsEPARPBD0EPQQ+BDUA--2" 321 657 basechar 0
AnchorPoint: "+BBEENQQ3BEsEPARPBD0EPQQ+BDUA--0" 490 657 basechar 0
LayerCount: 2
Fore
SplineSet
107 74 m 0,0,1
 107 101 107 101 114.5 132.5 c 128,-1,2
 122 164 122 164 138 195 c 1,3,4
 85 243 85 243 58.5 302 c 128,-1,5
 32 361 32 361 32 420 c 0,6,7
 32 489 32 489 67 545 c 128,-1,8
 102 601 102 601 164.5 634 c 128,-1,9
 227 667 227 667 310 667 c 0,10,11
 372 667 372 667 420.5 649.5 c 128,-1,12
 469 632 469 632 506 605.5 c 128,-1,13
 543 579 543 579 569.5 550 c 128,-1,14
 596 521 596 521 614 498 c 1,15,-1
 565 446 l 1,16,-1
 555 446 l 1,17,18
 534 479 534 479 497.5 515 c 128,-1,19
 461 551 461 551 410.5 576 c 128,-1,20
 360 601 360 601 295 601 c 0,21,22
 238 601 238 601 194 579.5 c 128,-1,23
 150 558 150 558 125 520 c 128,-1,24
 100 482 100 482 100 431 c 0,25,26
 100 379 100 379 125.5 335.5 c 128,-1,27
 151 292 151 292 190 269 c 1,28,29
 226 307 226 307 279 331 c 128,-1,30
 332 355 332 355 402 355 c 0,31,32
 415 355 415 355 425.5 354 c 128,-1,33
 436 353 436 353 443 351 c 2,34,-1
 450 344 l 1,35,-1
 450 7 l 1,36,-1
 390 -7 l 1,37,-1
 383 0 l 1,38,-1
 383 284 l 1,39,-1
 380 284 l 2,40,41
 317 284 317 284 273.5 257.5 c 128,-1,42
 230 231 230 231 206 191.5 c 128,-1,43
 182 152 182 152 177 113 c 1,44,45
 223 97 223 97 223 54 c 0,46,47
 223 28 223 28 206 10.5 c 128,-1,48
 189 -7 189 -7 165 -7 c 0,49,50
 143 -7 143 -7 125 10 c 128,-1,51
 107 27 107 27 107 74 c 0,0,1
EndSplineSet
EndChar

StartChar: paorya
Encoding: 2858 2858 35
Width: 638
GlyphClass: 2
Flags: W
AnchorPoint: "+BBEENQQ3BEsEPARPBD0EPQQ+BDUA--5" 577 0 basechar 0
AnchorPoint: "+BBEENQQ3BEsEPARPBD0EPQQ+BDUA--3" 352 0 basechar 0
AnchorPoint: "+BBEENQQ3BEsEPARPBD0EPQQ+BDUA--2" 324 657 basechar 0
AnchorPoint: "+BBEENQQ3BEsEPARPBD0EPQQ+BDUA--0" 510 657 basechar 0
LayerCount: 2
Fore
SplineSet
119 156 m 0,0,1
 119 191 119 191 133 227 c 1,2,3
 84 265 84 265 58 318 c 128,-1,4
 32 371 32 371 32 427 c 0,5,6
 32 494 32 494 66 548 c 128,-1,7
 100 602 100 602 160.5 634.5 c 128,-1,8
 221 667 221 667 301 667 c 0,9,10
 424 667 424 667 510 587 c 1,11,-1
 510 650 l 1,12,-1
 570 664 l 1,13,-1
 577 657 l 1,14,-1
 577 7 l 1,15,-1
 517 -7 l 1,16,-1
 510 0 l 1,17,-1
 510 105 l 1,18,19
 478 48 478 48 426 19 c 128,-1,20
 374 -10 374 -10 309 -10 c 0,21,22
 247 -10 247 -10 204.5 13.5 c 128,-1,23
 162 37 162 37 140.5 75 c 128,-1,24
 119 113 119 113 119 156 c 0,0,1
187 173 m 0,25,26
 187 125 187 125 221 90 c 128,-1,27
 255 55 255 55 318 55 c 0,28,29
 366 55 366 55 408 78 c 128,-1,30
 450 101 450 101 477.5 145.5 c 128,-1,31
 505 190 505 190 510 254 c 1,32,-1
 510 497 l 1,33,34
 468 546 468 546 412 573.5 c 128,-1,35
 356 601 356 601 290 601 c 0,36,37
 232 601 232 601 189 579.5 c 128,-1,38
 146 558 146 558 123 521.5 c 128,-1,39
 100 485 100 485 100 440 c 0,40,41
 100 396 100 396 121 361.5 c 128,-1,42
 142 327 142 327 179 304 c 1,43,44
 214 347 214 347 264 386 c 1,45,-1
 302 346 l 1,46,47
 239 294 239 294 213 252.5 c 128,-1,48
 187 211 187 211 187 173 c 0,25,26
EndSplineSet
EndChar

StartChar: phaorya
Encoding: 2859 2859 36
Width: 785
GlyphClass: 2
Flags: W
AnchorPoint: "+BBEENQQ3BEsEPARPBD0EPQQ+BDUA--5" 577 0 basechar 0
AnchorPoint: "+BBEENQQ3BEsEPARPBD0EPQQ+BDUA--3" 400 0 basechar 0
AnchorPoint: "+BBEENQQ3BEsEPARPBD0EPQQ+BDUA--2" 327 657 basechar 0
AnchorPoint: "+BBEENQQ3BEsEPARPBD0EPQQ+BDUA--0" 510 650 basechar 0
LayerCount: 2
Fore
SplineSet
119 156 m 0,0,1
 119 191 119 191 133 227 c 1,2,3
 84 265 84 265 58 318 c 128,-1,4
 32 371 32 371 32 427 c 0,5,6
 32 494 32 494 66 548 c 128,-1,7
 100 602 100 602 160.5 634.5 c 128,-1,8
 221 667 221 667 301 667 c 0,9,10
 424 667 424 667 510 587 c 1,11,-1
 510 650 l 1,12,-1
 570 664 l 1,13,-1
 577 657 l 1,14,-1
 577 618 l 1,15,16
 611 641 611 641 653 641 c 0,17,18
 709 641 709 641 746 601.5 c 128,-1,19
 783 562 783 562 783 503 c 0,20,21
 783 462 783 462 765 428 c 128,-1,22
 747 394 747 394 715.5 374.5 c 128,-1,23
 684 355 684 355 645 355 c 0,24,25
 608 355 608 355 577 374 c 1,26,-1
 577 7 l 1,27,-1
 517 -7 l 1,28,-1
 510 0 l 1,29,-1
 510 105 l 1,30,31
 478 48 478 48 426 19 c 128,-1,32
 374 -10 374 -10 309 -10 c 0,33,34
 247 -10 247 -10 204.5 13.5 c 128,-1,35
 162 37 162 37 140.5 75 c 128,-1,36
 119 113 119 113 119 156 c 0,0,1
187 173 m 0,37,38
 187 125 187 125 221 90 c 128,-1,39
 255 55 255 55 318 55 c 0,40,41
 366 55 366 55 408 78 c 128,-1,42
 450 101 450 101 477.5 145.5 c 128,-1,43
 505 190 505 190 510 254 c 1,44,-1
 510 497 l 1,45,46
 468 546 468 546 412 573.5 c 128,-1,47
 356 601 356 601 290 601 c 0,48,49
 232 601 232 601 189 579.5 c 128,-1,50
 146 558 146 558 123 521.5 c 128,-1,51
 100 485 100 485 100 440 c 0,52,53
 100 396 100 396 121 361.5 c 128,-1,54
 142 327 142 327 179 304 c 1,55,56
 214 347 214 347 264 386 c 1,57,-1
 302 346 l 1,58,59
 239 294 239 294 213 252.5 c 128,-1,60
 187 211 187 211 187 173 c 0,37,38
578 508 m 0,61,62
 578 468 578 468 601.5 441 c 128,-1,63
 625 414 625 414 656 414 c 0,64,65
 686 414 686 414 703 435.5 c 128,-1,66
 720 457 720 457 720 489 c 0,67,68
 720 528 720 528 697 555.5 c 128,-1,69
 674 583 674 583 642 583 c 0,70,71
 612 583 612 583 595 561.5 c 128,-1,72
 578 540 578 540 578 508 c 0,61,62
EndSplineSet
EndChar

StartChar: baorya
Encoding: 2860 2860 37
Width: 613
GlyphClass: 2
Flags: W
AnchorPoint: "+BBEENQQ3BEsEPARPBD0EPQQ+BDUA--5" 457 0 basechar 0
AnchorPoint: "+BBEENQQ3BEsEPARPBD0EPQQ+BDUA--3" 312 0 basechar 0
AnchorPoint: "+BBEENQQ3BEsEPARPBD0EPQQ+BDUA--2" 309 657 basechar 0
AnchorPoint: "+BBEENQQ3BEsEPARPBD0EPQQ+BDUA--0" 486 657 basechar 0
LayerCount: 2
Fore
SplineSet
159 211 m 0,0,1
 159 219 159 219 160 227 c 1,2,3
 92 267 92 267 62 324 c 128,-1,4
 32 381 32 381 32 437 c 0,5,6
 32 501 32 501 66 553 c 128,-1,7
 100 605 100 605 162 636 c 128,-1,8
 224 667 224 667 308 667 c 0,9,10
 386 667 386 667 443 642.5 c 128,-1,11
 500 618 500 618 539 583 c 128,-1,12
 578 548 578 548 602 516 c 1,13,-1
 555 467 l 1,14,-1
 545 467 l 1,15,16
 522 500 522 500 485 531 c 128,-1,17
 448 562 448 562 399.5 581.5 c 128,-1,18
 351 601 351 601 292 601 c 0,19,20
 235 601 235 601 192 581.5 c 128,-1,21
 149 562 149 562 124.5 527.5 c 128,-1,22
 100 493 100 493 100 448 c 0,23,24
 100 404 100 404 124 366.5 c 128,-1,25
 148 329 148 329 189 309 c 1,26,27
 210 338 210 338 241.5 355 c 128,-1,28
 273 372 273 372 310 372 c 0,29,30
 313 372 313 372 316 372 c 1,31,-1
 316 372 l 1,32,33
 337 372 337 372 361 364 c 128,-1,34
 385 356 385 356 407 335.5 c 128,-1,35
 429 315 429 315 443 279 c 128,-1,36
 457 243 457 243 457 187 c 2,37,-1
 457 7 l 1,38,-1
 397 -7 l 1,39,-1
 390 0 l 1,40,-1
 390 90 l 1,41,42
 351 60 351 60 301 60 c 0,43,44
 261 60 261 60 228.5 79.5 c 128,-1,45
 196 99 196 99 177.5 133.5 c 128,-1,46
 159 168 159 168 159 211 c 0,0,1
224 227 m 0,47,48
 224 181 224 181 251 150.5 c 128,-1,49
 278 120 278 120 314 120 c 0,50,51
 348 120 348 120 367.5 144.5 c 128,-1,52
 387 169 387 169 387 206 c 0,53,54
 387 251 387 251 360.5 282 c 128,-1,55
 334 313 334 313 297 313 c 0,56,57
 263 313 263 313 243.5 289 c 128,-1,58
 224 265 224 265 224 227 c 0,47,48
EndSplineSet
EndChar

StartChar: bhaorya
Encoding: 2861 2861 38
Width: 685
GlyphClass: 2
Flags: W
AnchorPoint: "+BBEENQQ3BEsEPARPBD0EPQQ+BDUA--5" 379 0 basechar 0
AnchorPoint: "+BBEENQQ3BEsEPARPBD0EPQQ+BDUA--3" 276 0 basechar 0
AnchorPoint: "+BBEENQQ3BEsEPARPBD0EPQQ+BDUA--2" 329 657 basechar 0
AnchorPoint: "+BBEENQQ3BEsEPARPBD0EPQQ+BDUA--0" 506 657 basechar 0
LayerCount: 2
Fore
SplineSet
32 425 m 0,0,1
 32 492 32 492 67.5 546.5 c 128,-1,2
 103 601 103 601 168 634 c 128,-1,3
 233 667 233 667 323 667 c 0,4,5
 418 667 418 667 488.5 630.5 c 128,-1,6
 559 594 559 594 598 530 c 128,-1,7
 637 466 637 466 637 381 c 0,8,9
 637 306 637 306 611.5 244 c 128,-1,10
 586 182 586 182 555 129 c 1,11,-1
 683 8 l 1,12,-1
 636 -35 l 1,13,-1
 622 -35 l 1,14,-1
 501 100 l 1,15,-1
 501 125 l 1,16,17
 526 173 526 173 546 236.5 c 128,-1,18
 566 300 566 300 566 366 c 0,19,20
 566 443 566 443 532 495.5 c 128,-1,21
 498 548 498 548 440 574.5 c 128,-1,22
 382 601 382 601 311 601 c 0,23,24
 214 601 214 601 157 555 c 128,-1,25
 100 509 100 509 100 437 c 0,26,27
 100 366 100 366 159 320 c 1,28,29
 169 333 169 333 179.5 345.5 c 128,-1,30
 190 358 190 358 202 370 c 1,31,-1
 244 339 l 1,32,33
 198 284 198 284 176.5 244 c 128,-1,34
 155 204 155 204 155 170 c 0,35,36
 155 118 155 118 195 86 c 128,-1,37
 235 54 235 54 303 54 c 0,38,39
 357 54 357 54 391.5 75 c 128,-1,40
 426 96 426 96 426 130 c 0,41,42
 426 136 426 136 426 142 c 1,43,44
 389 130 389 130 357 130 c 0,45,46
 314 130 314 130 285 153 c 128,-1,47
 256 176 256 176 256 216 c 0,48,49
 256 245 256 245 269.5 275 c 128,-1,50
 283 305 283 305 297 331 c 1,51,-1
 345 310 l 1,52,53
 329 281 329 281 323 262.5 c 128,-1,54
 317 244 317 244 317 231 c 0,55,56
 317 212 317 212 331 196.5 c 128,-1,57
 345 181 345 181 382 181 c 0,58,59
 401 181 401 181 423 186 c 1,60,61
 419 220 419 220 412.5 253.5 c 128,-1,62
 406 287 406 287 400 314 c 1,63,-1
 461 327 l 1,64,65
 469 283 469 283 475.5 236.5 c 128,-1,66
 482 190 482 190 482 146 c 0,67,68
 482 77 482 77 432.5 33.5 c 128,-1,69
 383 -10 383 -10 291 -10 c 0,70,71
 197 -10 197 -10 143.5 35.5 c 128,-1,72
 90 81 90 81 90 156 c 0,73,74
 90 179 90 179 95.5 201.5 c 128,-1,75
 101 224 101 224 111 245 c 1,76,77
 73 281 73 281 52.5 328.5 c 128,-1,78
 32 376 32 376 32 425 c 0,0,1
EndSplineSet
EndChar

StartChar: maorya
Encoding: 2862 2862 39
Width: 644
GlyphClass: 2
Flags: W
AnchorPoint: "+BBEENQQ3BEsEPARPBD0EPQQ+BDUA--5" 583 0 basechar 0
AnchorPoint: "+BBEENQQ3BEsEPARPBD0EPQQ+BDUA--3" 358 0 basechar 0
AnchorPoint: "+BBEENQQ3BEsEPARPBD0EPQQ+BDUA--2" 320 657 basechar 0
AnchorPoint: "+BBEENQQ3BEsEPARPBD0EPQQ+BDUA--0" 516 657 basechar 0
LayerCount: 2
Fore
SplineSet
106 67 m 0,0,1
 106 138 106 138 156 209 c 1,2,3
 97 249 97 249 64.5 307.5 c 128,-1,4
 32 366 32 366 32 431 c 0,5,6
 32 493 32 493 64.5 546.5 c 128,-1,7
 97 600 97 600 156.5 633.5 c 128,-1,8
 216 667 216 667 296 667 c 0,9,10
 363 667 363 667 420.5 643 c 128,-1,11
 478 619 478 619 516 578 c 1,12,-1
 516 650 l 1,13,-1
 576 664 l 1,14,-1
 583 657 l 1,15,-1
 583 7 l 1,16,-1
 523 -7 l 1,17,-1
 516 0 l 1,18,-1
 516 473 l 1,19,20
 484 535 484 535 422.5 568 c 128,-1,21
 361 601 361 601 289 601 c 0,22,23
 227 601 227 601 184.5 579 c 128,-1,24
 142 557 142 557 121 521 c 128,-1,25
 100 485 100 485 100 443 c 0,26,27
 100 386 100 386 132 342 c 128,-1,28
 164 298 164 298 217 276 c 1,29,30
 246 301 246 301 283 323.5 c 128,-1,31
 320 346 320 346 364 363 c 1,32,-1
 390 304 l 1,33,34
 296 271 296 271 247.5 221.5 c 128,-1,35
 199 172 199 172 178 111 c 1,36,37
 222 95 222 95 222 50 c 0,38,39
 222 25 222 25 205.5 9 c 128,-1,40
 189 -7 189 -7 166 -7 c 0,41,42
 144 -7 144 -7 125 10 c 128,-1,43
 106 27 106 27 106 67 c 0,0,1
EndSplineSet
EndChar

StartChar: yaorya
Encoding: 2863 2863 40
Width: 677
GlyphClass: 2
Flags: W
AnchorPoint: "+BBEENQQ3BEsEPARPBD0EPQQ+BDUA--5" 616 0 basechar 0
AnchorPoint: "+BBEENQQ3BEsEPARPBD0EPQQ+BDUA--3" 391 0 basechar 0
AnchorPoint: "+BBEENQQ3BEsEPARPBD0EPQQ+BDUA--2" 353 657 basechar 0
AnchorPoint: "+BBEENQQ3BEsEPARPBD0EPQQ+BDUA--0" 549 657 basechar 0
LayerCount: 2
Fore
SplineSet
10 107 m 0,0,1
 10 134 10 134 30 165 c 128,-1,2
 50 196 50 196 83 225.5 c 128,-1,3
 116 255 116 255 155 278 c 1,4,5
 112 308 112 308 90 352 c 128,-1,6
 68 396 68 396 68 444 c 0,7,8
 68 504 68 504 101 554.5 c 128,-1,9
 134 605 134 605 193 636 c 128,-1,10
 252 667 252 667 330 667 c 0,11,12
 399 667 399 667 454.5 643 c 128,-1,13
 510 619 510 619 549 585 c 1,14,-1
 549 650 l 1,15,-1
 609 664 l 1,16,-1
 616 657 l 1,17,-1
 616 7 l 1,18,-1
 556 -7 l 1,19,-1
 549 0 l 1,20,-1
 549 104 l 1,21,22
 517 48 517 48 466 19 c 128,-1,23
 415 -10 415 -10 350 -10 c 0,24,25
 288 -10 288 -10 245 14 c 128,-1,26
 202 38 202 38 180 77 c 128,-1,27
 158 116 158 116 158 160 c 0,28,29
 158 201 158 201 180 244 c 1,30,31
 117 205 117 205 87 154 c 1,32,33
 124 134 124 134 124 96 c 0,34,35
 124 71 124 71 107 55 c 128,-1,36
 90 39 90 39 68 39 c 0,37,38
 47 39 47 39 28.5 55 c 128,-1,39
 10 71 10 71 10 107 c 0,0,1
226 175 m 0,40,41
 226 127 226 127 261 91 c 128,-1,42
 296 55 296 55 359 55 c 0,43,44
 410 55 410 55 453 81 c 128,-1,45
 496 107 496 107 522.5 157.5 c 128,-1,46
 549 208 549 208 549 280 c 2,47,-1
 549 491 l 1,48,49
 512 537 512 537 454 569 c 128,-1,50
 396 601 396 601 320 601 c 0,51,52
 262 601 262 601 220.5 581 c 128,-1,53
 179 561 179 561 157.5 528.5 c 128,-1,54
 136 496 136 496 136 456 c 0,55,56
 136 413 136 413 161.5 375.5 c 128,-1,57
 187 338 187 338 233 319 c 1,58,59
 266 355 266 355 314 392 c 1,60,-1
 352 352 l 1,61,62
 281 296 281 296 253.5 254.5 c 128,-1,63
 226 213 226 213 226 175 c 0,40,41
EndSplineSet
EndChar

StartChar: raorya
Encoding: 2864 2864 41
Width: 685
GlyphClass: 2
Flags: W
AnchorPoint: "+BBEENQQ3BEsEPARPBD0EPQQ+BDUA--5" 376 0 basechar 0
AnchorPoint: "+BBEENQQ3BEsEPARPBD0EPQQ+BDUA--3" 315 0 basechar 0
AnchorPoint: "+BBEENQQ3BEsEPARPBD0EPQQ+BDUA--2" 323 657 basechar 0
AnchorPoint: "+BBEENQQ3BEsEPARPBD0EPQQ+BDUA--0" 530 657 basechar 0
LayerCount: 2
Fore
SplineSet
119 158 m 0,0,1
 119 195 119 195 132 228 c 1,2,3
 83 264 83 264 57.5 316.5 c 128,-1,4
 32 369 32 369 32 425 c 0,5,6
 32 492 32 492 67.5 546.5 c 128,-1,7
 103 601 103 601 168 634 c 128,-1,8
 233 667 233 667 323 667 c 0,9,10
 418 667 418 667 488.5 630.5 c 128,-1,11
 559 594 559 594 598 530 c 128,-1,12
 637 466 637 466 637 381 c 0,13,14
 637 306 637 306 611.5 244 c 128,-1,15
 586 182 586 182 555 129 c 1,16,-1
 683 8 l 1,17,-1
 636 -35 l 1,18,-1
 622 -35 l 1,19,-1
 501 100 l 1,20,-1
 501 125 l 1,21,22
 526 173 526 173 546 236.5 c 128,-1,23
 566 300 566 300 566 366 c 0,24,25
 566 443 566 443 532 495.5 c 128,-1,26
 498 548 498 548 440 574.5 c 128,-1,27
 382 601 382 601 311 601 c 0,28,29
 214 601 214 601 157 555 c 128,-1,30
 100 509 100 509 100 437 c 0,31,32
 100 396 100 396 123 359.5 c 128,-1,33
 146 323 146 323 186 302 c 1,34,35
 230 337 230 337 287 337 c 0,36,37
 332 337 332 337 368 315 c 128,-1,38
 404 293 404 293 424.5 255 c 128,-1,39
 445 217 445 217 445 169 c 0,40,41
 445 119 445 119 423 78.5 c 128,-1,42
 401 38 401 38 363 14 c 128,-1,43
 325 -10 325 -10 277 -10 c 0,44,45
 232 -10 232 -10 196.5 12 c 128,-1,46
 161 34 161 34 140 71.5 c 128,-1,47
 119 109 119 109 119 158 c 0,0,1
182 185 m 0,48,49
 182 146 182 146 198.5 115.5 c 128,-1,50
 215 85 215 85 241.5 67.5 c 128,-1,51
 268 50 268 50 298 50 c 0,52,53
 338 50 338 50 360 76.5 c 128,-1,54
 382 103 382 103 382 143 c 0,55,56
 382 182 382 182 365.5 212.5 c 128,-1,57
 349 243 349 243 323 260.5 c 128,-1,58
 297 278 297 278 266 278 c 0,59,60
 226 278 226 278 204 251.5 c 128,-1,61
 182 225 182 225 182 185 c 0,48,49
EndSplineSet
EndChar

StartChar: laorya
Encoding: 2866 2866 42
Width: 703
GlyphClass: 2
Flags: W
AnchorPoint: "+BBEENQQ3BEsEPARPBD0EPQQ+BDUA--5" 486 0 basechar 0
AnchorPoint: "+BBEENQQ3BEsEPARPBD0EPQQ+BDUA--3" 263 0 basechar 0
AnchorPoint: "+BBEENQQ3BEsEPARPBD0EPQQ+BDUA--2" 348 657 basechar 0
AnchorPoint: "+BBEENQQ3BEsEPARPBD0EPQQ+BDUA--0" 531 657 basechar 0
LayerCount: 2
Fore
SplineSet
98 179 m 0,0,1
 98 215 98 215 106 246 c 1,2,3
 70 282 70 282 51 329.5 c 128,-1,4
 32 377 32 377 32 425 c 0,5,6
 32 492 32 492 69 546.5 c 128,-1,7
 106 601 106 601 174 634 c 128,-1,8
 242 667 242 667 335 667 c 0,9,10
 432 667 432 667 504 630 c 128,-1,11
 576 593 576 593 616 527.5 c 128,-1,12
 656 462 656 462 656 375 c 0,13,14
 656 302 656 302 630.5 241 c 128,-1,15
 605 180 605 180 574 128 c 1,16,-1
 701 8 l 1,17,-1
 655 -35 l 1,18,-1
 641 -35 l 1,19,-1
 520 100 l 1,20,-1
 520 125 l 1,21,22
 545 172 545 172 565 234 c 128,-1,23
 585 296 585 296 585 360 c 0,24,25
 585 439 585 439 550 492.5 c 128,-1,26
 515 546 515 546 455.5 573.5 c 128,-1,27
 396 601 396 601 323 601 c 0,28,29
 220 601 220 601 160 555 c 128,-1,30
 100 509 100 509 100 437 c 0,31,32
 100 369 100 369 151 323 c 1,33,34
 186 355 186 355 229 355 c 0,35,36
 253 355 253 355 273 343.5 c 128,-1,37
 293 332 293 332 306 308 c 1,38,39
 348 355 348 355 399 355 c 0,40,41
 437 355 437 355 462 324.5 c 128,-1,42
 487 294 487 294 487 230 c 2,43,-1
 487 7 l 1,44,-1
 426 -7 l 1,45,-1
 420 0 l 1,46,-1
 420 207 l 2,47,48
 420 245 420 245 407.5 267 c 128,-1,49
 395 289 395 289 372 289 c 0,50,51
 353 289 353 289 341 277.5 c 128,-1,52
 329 266 329 266 329 255 c 2,53,-1
 329 7 l 1,54,-1
 269 -7 l 1,55,-1
 262 0 l 1,56,-1
 262 219 l 2,57,58
 262 254 262 254 247 271.5 c 128,-1,59
 232 289 232 289 211 289 c 0,60,61
 192 289 192 289 179 271 c 128,-1,62
 166 253 166 253 166 199 c 0,63,64
 166 158 166 158 173.5 108.5 c 128,-1,65
 181 59 181 59 192 18 c 1,66,-1
 131 -7 l 1,67,-1
 124 0 l 1,68,69
 108 55 108 55 103 104.5 c 128,-1,70
 98 154 98 154 98 179 c 0,0,1
EndSplineSet
EndChar

StartChar: llaorya
Encoding: 2867 2867 43
Width: 637
GlyphClass: 2
Flags: W
AnchorPoint: "+BBEENQQ3BEsEPARPBD0EPQQ+BDUA--5" 514 0 basechar 0
AnchorPoint: "+BBEENQQ3BEsEPARPBD0EPQQ+BDUA--3" 349 0 basechar 0
AnchorPoint: "+BBEENQQ3BEsEPARPBD0EPQQ+BDUA--2" 329 657 basechar 0
AnchorPoint: "+BBEENQQ3BEsEPARPBD0EPQQ+BDUA--0" 512 657 basechar 0
LayerCount: 2
Fore
SplineSet
125 179 m 0,0,1
 125 199 125 199 127 217 c 1,2,3
 80 261 80 261 56 315.5 c 128,-1,4
 32 370 32 370 32 424 c 0,5,6
 32 492 32 492 67.5 547 c 128,-1,7
 103 602 103 602 166 634.5 c 128,-1,8
 229 667 229 667 311 667 c 0,9,10
 373 667 373 667 421 649.5 c 128,-1,11
 469 632 469 632 505.5 605.5 c 128,-1,12
 542 579 542 579 568.5 550 c 128,-1,13
 595 521 595 521 614 498 c 1,14,-1
 565 446 l 1,15,-1
 555 446 l 1,16,17
 532 479 532 479 496.5 515 c 128,-1,18
 461 551 461 551 411.5 576 c 128,-1,19
 362 601 362 601 296 601 c 0,20,21
 239 601 239 601 195 580 c 128,-1,22
 151 559 151 559 125.5 521.5 c 128,-1,23
 100 484 100 484 100 435 c 0,24,25
 100 394 100 394 117 359.5 c 128,-1,26
 134 325 134 325 162 304 c 1,27,28
 181 329 181 329 206 342 c 128,-1,29
 231 355 231 355 256 355 c 0,30,31
 280 355 280 355 300 343.5 c 128,-1,32
 320 332 320 332 333 308 c 1,33,34
 375 355 375 355 426 355 c 0,35,36
 464 355 464 355 489 324.5 c 128,-1,37
 514 294 514 294 514 230 c 2,38,-1
 514 7 l 1,39,-1
 453 -7 l 1,40,-1
 447 0 l 1,41,-1
 447 207 l 2,42,43
 447 245 447 245 434.5 267 c 128,-1,44
 422 289 422 289 399 289 c 0,45,46
 380 289 380 289 368 277.5 c 128,-1,47
 356 266 356 266 356 255 c 2,48,-1
 356 7 l 1,49,-1
 296 -7 l 1,50,-1
 289 0 l 1,51,-1
 289 219 l 2,52,53
 289 254 289 254 274 271.5 c 128,-1,54
 259 289 259 289 238 289 c 0,55,56
 219 289 219 289 206 271 c 128,-1,57
 193 253 193 253 193 199 c 0,58,59
 193 158 193 158 200.5 108.5 c 128,-1,60
 208 59 208 59 219 18 c 1,61,-1
 158 -7 l 1,62,-1
 151 0 l 1,63,64
 135 55 135 55 130 104.5 c 128,-1,65
 125 154 125 154 125 179 c 0,0,1
EndSplineSet
EndChar

StartChar: vaorya
Encoding: 2869 2869 44
Width: 613
GlyphClass: 2
Flags: W
AnchorPoint: "+BBEENQQ3BEsEPARPBD0EPQQ+BDUA--5" 443 0 basechar 0
AnchorPoint: "+BBEENQQ3BEsEPARPBD0EPQQ+BDUA--3" 327 0 basechar 0
AnchorPoint: "+BBEENQQ3BEsEPARPBD0EPQQ+BDUA--2" 313 657 basechar 0
AnchorPoint: "+BBEENQQ3BEsEPARPBD0EPQQ+BDUA--0" 490 657 basechar 0
LayerCount: 2
Fore
SplineSet
149 214 m 0,0,1
 149 224 149 224 150 233 c 1,2,3
 88 273 88 273 60 328 c 128,-1,4
 32 383 32 383 32 437 c 0,5,6
 32 501 32 501 66 553 c 128,-1,7
 100 605 100 605 162 636 c 128,-1,8
 224 667 224 667 308 667 c 0,9,10
 386 667 386 667 443 642.5 c 128,-1,11
 500 618 500 618 539 583 c 128,-1,12
 578 548 578 548 602 516 c 1,13,-1
 555 467 l 1,14,-1
 545 467 l 1,15,16
 522 500 522 500 485 531 c 128,-1,17
 448 562 448 562 399.5 581.5 c 128,-1,18
 351 601 351 601 292 601 c 0,19,20
 235 601 235 601 192 581.5 c 128,-1,21
 149 562 149 562 124.5 527.5 c 128,-1,22
 100 493 100 493 100 448 c 0,23,24
 100 406 100 406 122 369.5 c 128,-1,25
 144 333 144 333 182 313 c 1,26,27
 203 340 203 340 234 356 c 128,-1,28
 265 372 265 372 302 372 c 0,29,30
 303 372 303 372 303 372 c 2,31,32
 306 372 306 372 308 372 c 0,33,34
 309 372 309 372 309 372 c 2,35,36
 338 370 338 370 369 354 c 128,-1,37
 400 338 400 338 421.5 298.5 c 128,-1,38
 443 259 443 259 443 187 c 2,39,-1
 443 7 l 1,40,-1
 383 -7 l 1,41,-1
 376 0 l 1,42,-1
 376 99 l 1,43,44
 359 82 359 82 337 72.5 c 128,-1,45
 315 63 315 63 288 63 c 0,46,47
 249 63 249 63 217.5 83 c 128,-1,48
 186 103 186 103 167.5 137.5 c 128,-1,49
 149 172 149 172 149 214 c 0,0,1
208 239 m 0,50,51
 208 204 208 204 224 178 c 128,-1,52
 240 152 240 152 264 138.5 c 128,-1,53
 288 125 288 125 312 125 c 0,54,55
 346 125 346 125 364.5 146 c 128,-1,56
 383 167 383 167 383 198 c 0,57,58
 383 227 383 227 369 252 c 128,-1,59
 355 277 355 277 331.5 292.5 c 128,-1,60
 308 308 308 308 280 308 c 0,61,62
 244 308 244 308 226 288 c 128,-1,63
 208 268 208 268 208 239 c 0,50,51
250 214 m 1,64,-1
 295 262 l 1,65,66
 319 243 319 243 342 218 c 1,67,-1
 298 170 l 1,68,69
 287 183 287 183 275 193.5 c 128,-1,70
 263 204 263 204 250 214 c 1,64,-1
EndSplineSet
EndChar

StartChar: shaorya
Encoding: 2870 2870 45
Width: 659
GlyphClass: 2
Flags: W
AnchorPoint: "+BBEENQQ3BEsEPARPBD0EPQQ+BDUA--5" 598 0 basechar 0
AnchorPoint: "+BBEENQQ3BEsEPARPBD0EPQQ+BDUA--3" 373 0 basechar 0
AnchorPoint: "+BBEENQQ3BEsEPARPBD0EPQQ+BDUA--2" 330 657 basechar 0
AnchorPoint: "+BBEENQQ3BEsEPARPBD0EPQQ+BDUA--0" 531 657 basechar 0
LayerCount: 2
Fore
SplineSet
106 158 m 0,0,1
 106 171 106 171 108 183 c 1,2,3
 71 211 71 211 51.5 247.5 c 128,-1,4
 32 284 32 284 32 322 c 0,5,6
 32 376 32 376 64.5 416 c 128,-1,7
 97 456 97 456 156 469 c 1,8,9
 144 483 144 483 136.5 500 c 128,-1,10
 129 517 129 517 129 537 c 0,11,12
 129 569 129 569 153.5 598.5 c 128,-1,13
 178 628 178 628 222 647.5 c 128,-1,14
 266 667 266 667 324 667 c 0,15,16
 386 667 386 667 439.5 646 c 128,-1,17
 493 625 493 625 531 587 c 1,18,-1
 531 650 l 1,19,-1
 591 664 l 1,20,-1
 598 657 l 1,21,-1
 598 7 l 1,22,-1
 538 -7 l 1,23,-1
 531 0 l 1,24,-1
 531 486 l 1,25,26
 492 545 492 545 432.5 573 c 128,-1,27
 373 601 373 601 315 601 c 0,28,29
 261 601 261 601 229 583.5 c 128,-1,30
 197 566 197 566 197 540 c 0,31,32
 197 529 197 529 208.5 513.5 c 128,-1,33
 220 498 220 498 251 481 c 128,-1,34
 282 464 282 464 338 449 c 1,35,-1
 338 439 l 1,36,-1
 296 394 l 1,37,38
 278 405 278 405 252.5 413 c 128,-1,39
 227 421 227 421 199 421 c 0,40,41
 159 421 159 421 129.5 400.5 c 128,-1,42
 100 380 100 380 100 339 c 0,43,44
 100 295 100 295 141 268 c 1,45,46
 164 300 164 300 198.5 318.5 c 128,-1,47
 233 337 233 337 274 337 c 0,48,49
 319 337 319 337 355 315 c 128,-1,50
 391 293 391 293 411.5 255 c 128,-1,51
 432 217 432 217 432 169 c 0,52,53
 432 119 432 119 410 78.5 c 128,-1,54
 388 38 388 38 350 14 c 128,-1,55
 312 -10 312 -10 264 -10 c 0,56,57
 219 -10 219 -10 183.5 12 c 128,-1,58
 148 34 148 34 127 72 c 128,-1,59
 106 110 106 110 106 158 c 0,0,1
169 185 m 0,60,61
 169 146 169 146 185.5 115.5 c 128,-1,62
 202 85 202 85 228.5 67.5 c 128,-1,63
 255 50 255 50 285 50 c 0,64,65
 325 50 325 50 347 76.5 c 128,-1,66
 369 103 369 103 369 143 c 0,67,68
 369 182 369 182 352.5 212.5 c 128,-1,69
 336 243 336 243 310 260.5 c 128,-1,70
 284 278 284 278 253 278 c 0,71,72
 213 278 213 278 191 251.5 c 128,-1,73
 169 225 169 225 169 185 c 0,60,61
EndSplineSet
EndChar

StartChar: ssaorya
Encoding: 2871 2871 46
Width: 638
GlyphClass: 2
Flags: W
AnchorPoint: "+BBEENQQ3BEsEPARPBD0EPQQ+BDUA--5" 578 0 basechar 0
AnchorPoint: "+BBEENQQ3BEsEPARPBD0EPQQ+BDUA--3" 352 0 basechar 0
AnchorPoint: "+BBEENQQ3BEsEPARPBD0EPQQ+BDUA--2" 316 657 basechar 0
AnchorPoint: "+BBEENQQ3BEsEPARPBD0EPQQ+BDUA--0" 510 657 basechar 0
LayerCount: 2
Fore
SplineSet
119 156 m 0,0,1
 119 191 119 191 133 227 c 1,2,3
 84 265 84 265 58 318 c 128,-1,4
 32 371 32 371 32 427 c 0,5,6
 32 494 32 494 66 548 c 128,-1,7
 100 602 100 602 160.5 634.5 c 128,-1,8
 221 667 221 667 301 667 c 0,9,10
 424 667 424 667 510 587 c 1,11,-1
 510 650 l 1,12,-1
 570 664 l 1,13,-1
 577 657 l 1,14,-1
 577 7 l 1,15,-1
 517 -7 l 1,16,-1
 510 0 l 1,17,-1
 510 105 l 1,18,19
 478 48 478 48 426 19 c 128,-1,20
 374 -10 374 -10 309 -10 c 0,21,22
 247 -10 247 -10 204.5 13.5 c 128,-1,23
 162 37 162 37 140.5 75 c 128,-1,24
 119 113 119 113 119 156 c 0,0,1
290 601 m 0,25,26
 257 601 257 601 229 594 c 128,-1,27
 201 587 201 587 179 574 c 1,28,-1
 473 139 l 1,29,30
 488 162 488 162 497.5 191 c 128,-1,31
 507 220 507 220 510 254 c 2,32,-1
 510 497 l 1,33,34
 468 546 468 546 412 573.5 c 128,-1,35
 356 601 356 601 290 601 c 0,25,26
100 440 m 0,36,37
 100 396 100 396 121 361.5 c 128,-1,38
 142 327 142 327 179 304 c 1,39,40
 210 344 210 344 255 379 c 1,41,-1
 142 546 l 1,42,43
 100 503 100 503 100 440 c 0,36,37
187 173 m 0,44,45
 187 125 187 125 221 90 c 128,-1,46
 255 55 255 55 318 55 c 0,47,48
 390 55 390 55 442 102 c 1,49,-1
 286 333 l 1,50,51
 232 286 232 286 209.5 247 c 128,-1,52
 187 208 187 208 187 173 c 0,44,45
EndSplineSet
EndChar

StartChar: saorya
Encoding: 2872 2872 47
Width: 646
GlyphClass: 2
Flags: W
AnchorPoint: "+BBEENQQ3BEsEPARPBD0EPQQ+BDUA--5" 585 0 basechar 0
AnchorPoint: "+BBEENQQ3BEsEPARPBD0EPQQ+BDUA--3" 360 0 basechar 0
AnchorPoint: "+BBEENQQ3BEsEPARPBD0EPQQ+BDUA--2" 324 657 basechar 0
AnchorPoint: "+BBEENQQ3BEsEPARPBD0EPQQ+BDUA--0" 518 657 basechar 0
LayerCount: 2
Fore
SplineSet
72 129 m 1,0,1
 102 183 102 183 132 228 c 1,2,3
 83 266 83 266 57.5 319 c 128,-1,4
 32 372 32 372 32 427 c 0,5,6
 32 494 32 494 66 548 c 128,-1,7
 100 602 100 602 160.5 634.5 c 128,-1,8
 221 667 221 667 301 667 c 0,9,10
 430 667 430 667 518 580 c 1,11,-1
 518 650 l 1,12,-1
 578 664 l 1,13,-1
 585 657 l 1,14,-1
 585 7 l 1,15,-1
 525 -7 l 1,16,17
 416 34 416 34 309 59.5 c 128,-1,18
 202 85 202 85 92 98 c 1,19,-1
 72 129 l 1,0,1
304 351 m 1,20,21
 263 305 263 305 225 254.5 c 128,-1,22
 187 204 187 204 159 153 c 1,23,24
 247 143 247 143 336.5 124 c 128,-1,25
 426 105 426 105 518 78 c 1,26,-1
 518 487 l 1,27,28
 476 540 476 540 417.5 570.5 c 128,-1,29
 359 601 359 601 290 601 c 0,30,31
 232 601 232 601 189 579.5 c 128,-1,32
 146 558 146 558 123 522 c 128,-1,33
 100 486 100 486 100 440 c 256,34,35
 100 394 100 394 123 357.5 c 128,-1,36
 146 321 146 321 186 301 c 1,37,38
 205 324 205 324 224.5 346.5 c 128,-1,39
 244 369 244 369 266 392 c 1,40,-1
 304 351 l 1,20,21
EndSplineSet
EndChar

StartChar: haorya
Encoding: 2873 2873 48
Width: 613
GlyphClass: 2
Flags: W
AnchorPoint: "+BBEENQQ3BEsEPARPBD0EPQQ+BDUA--5" 425 -1 basechar 0
AnchorPoint: "+BBEENQQ3BEsEPARPBD0EPQQ+BDUA--3" 258 0 basechar 0
AnchorPoint: "+BBEENQQ3BEsEPARPBD0EPQQ+BDUA--2" 294 657 basechar 0
AnchorPoint: "+BBEENQQ3BEsEPARPBD0EPQQ+BDUA--0" 480 657 basechar 0
LayerCount: 2
Fore
SplineSet
379 93 m 1,0,-1
 379 154 l 1,1,2
 357 140 357 140 330 131.5 c 128,-1,3
 303 123 303 123 272 123 c 0,4,5
 232 123 232 123 200 141 c 1,6,7
 185 124 185 124 171 106 c 128,-1,8
 157 88 157 88 145 69 c 1,9,10
 238 62 238 62 331.5 47 c 128,-1,11
 425 32 425 32 517 14 c 1,12,-1
 479 -52 l 1,13,14
 386 -29 386 -29 288.5 -12 c 128,-1,15
 191 5 191 5 90 15 c 1,16,-1
 70 46 l 1,17,18
 89 78 89 78 103.5 98.5 c 128,-1,19
 118 119 118 119 134 134.5 c 128,-1,20
 150 150 150 150 171 165 c 1,21,22
 145 195 145 195 142 238 c 1,23,24
 84 278 84 278 58 331.5 c 128,-1,25
 32 385 32 385 32 437 c 0,26,27
 32 501 32 501 66 553 c 128,-1,28
 100 605 100 605 162 636 c 128,-1,29
 224 667 224 667 308 667 c 0,30,31
 386 667 386 667 443 642.5 c 128,-1,32
 500 618 500 618 539 583 c 128,-1,33
 578 548 578 548 602 516 c 1,34,-1
 555 467 l 1,35,-1
 545 467 l 1,36,37
 522 500 522 500 485 531 c 128,-1,38
 448 562 448 562 399.5 581.5 c 128,-1,39
 351 601 351 601 292 601 c 0,40,41
 235 601 235 601 192 581.5 c 128,-1,42
 149 562 149 562 124.5 527.5 c 128,-1,43
 100 493 100 493 100 448 c 0,44,45
 100 411 100 411 117 378.5 c 128,-1,46
 134 346 134 346 164 324 c 1,47,48
 179 349 179 349 201 372 c 128,-1,49
 223 395 223 395 249 417 c 1,50,-1
 288 379 l 1,51,52
 248 346 248 346 227 317.5 c 128,-1,53
 206 289 206 289 206 260 c 0,54,55
 206 226 206 226 229 205.5 c 128,-1,56
 252 185 252 185 289 185 c 0,57,58
 314 185 314 185 337 192.5 c 128,-1,59
 360 200 360 200 379 211 c 1,60,-1
 379 355 l 1,61,-1
 439 370 l 1,62,-1
 446 363 l 1,63,-1
 446 100 l 1,64,-1
 386 86 l 1,65,-1
 379 93 l 1,0,-1
EndSplineSet
Substitution2: "+BBUENAQ4BD0EOARHBD0EMARP +BD8EPgQ0BEEEQgQwBD0EPgQyBDoEMAAA lookup 14 subtable" hasquishorya
EndChar

StartChar: waorya
Encoding: 2929 2929 51
Width: 558
GlyphClass: 2
Flags: W
AnchorPoint: "+BBEENQQ3BEsEPARPBD0EPQQ+BDUA--5" 468 0 basechar 0
AnchorPoint: "+BBEENQQ3BEsEPARPBD0EPQQ+BDUA--3" 274 0 basechar 0
AnchorPoint: "+BBEENQQ3BEsEPARPBD0EPQQ+BDUA--2" 274 657 basechar 0
AnchorPoint: "+BBEENQQ3BEsEPARPBD0EPQQ+BDUA--0" 421 657 basechar 0
LayerCount: 2
Fore
SplineSet
118 150 m 0,0,1
 118 171 118 171 125 191 c 128,-1,2
 132 211 132 211 144 230 c 1,3,4
 92 259 92 259 62 307 c 128,-1,5
 32 355 32 355 32 416 c 0,6,7
 32 472 32 472 56 536.5 c 128,-1,8
 80 601 80 601 129 679 c 1,9,-1
 193 657 l 1,10,11
 140 584 140 584 119.5 533 c 128,-1,12
 99 482 99 482 99 431 c 0,13,14
 99 351 99 351 156 305 c 128,-1,15
 213 259 213 259 310 259 c 0,16,17
 375 259 375 259 417.5 278 c 128,-1,18
 460 297 460 297 460 326 c 0,19,20
 460 352 460 352 436 366 c 128,-1,21
 412 380 412 380 366 387 c 0,22,23
 341 391 341 391 313 393 c 128,-1,24
 285 395 285 395 263 396 c 1,25,-1
 255 414 l 1,26,-1
 271 458 l 1,27,28
 286 463 286 463 302.5 469.5 c 128,-1,29
 319 476 319 476 338 483 c 0,30,31
 355 490 355 490 376.5 500 c 128,-1,32
 398 510 398 510 414 524.5 c 128,-1,33
 430 539 430 539 430 558 c 256,34,35
 430 577 430 577 407 592 c 128,-1,36
 384 607 384 607 349 607 c 0,37,38
 320 607 320 607 301 596.5 c 128,-1,39
 282 586 282 586 282 566 c 0,40,41
 282 559 282 559 284 551 c 128,-1,42
 286 543 286 543 290 533 c 1,43,-1
 221 520 l 1,44,45
 217 531 217 531 214.5 543.5 c 128,-1,46
 212 556 212 556 212 566 c 0,47,48
 212 595 212 595 232 618 c 128,-1,49
 252 641 252 641 285 654 c 128,-1,50
 318 667 318 667 358 667 c 0,51,52
 419 667 419 667 458.5 638.5 c 128,-1,53
 498 610 498 610 498 567 c 0,54,55
 498 540 498 540 485 518.5 c 128,-1,56
 472 497 472 497 441 477 c 0,57,58
 413 459 413 459 373 442 c 1,59,60
 413 438 413 438 448 427.5 c 128,-1,61
 483 417 483 417 504.5 394 c 128,-1,62
 526 371 526 371 526 331 c 0,63,64
 526 301 526 301 511 276 c 128,-1,65
 496 251 496 251 468 233 c 1,66,-1
 468 7 l 1,67,-1
 408 -7 l 1,68,-1
 401 0 l 1,69,-1
 401 82 l 1,70,71
 372 59 372 59 334.5 44.5 c 128,-1,72
 297 30 297 30 254 30 c 0,73,74
 193 30 193 30 155.5 64 c 128,-1,75
 118 98 118 98 118 150 c 0,0,1
184 162 m 0,76,77
 184 133 184 133 207.5 114.5 c 128,-1,78
 231 96 231 96 269 96 c 256,79,80
 307 96 307 96 342.5 110 c 128,-1,81
 378 124 378 124 401 140 c 1,82,-1
 401 203 l 1,83,84
 357 191 357 191 305 191 c 0,85,86
 247 191 247 191 197 207 c 1,87,88
 184 184 184 184 184 162 c 0,76,77
EndSplineSet
EndChar

StartChar: yyaorya
Encoding: 2911 2911 52
Width: 750
GlyphClass: 2
Flags: W
AnchorPoint: "+BBEENQQ3BEsEPARPBD0EPQQ+BDUA--5" 629 0 basechar 0
AnchorPoint: "+BBEENQQ3BEsEPARPBD0EPQQ+BDUA--3" 279 0 basechar 0
AnchorPoint: "+BBEENQQ3BEsEPARPBD0EPQQ+BDUA--2" 366 657 basechar 0
AnchorPoint: "+BBEENQQ3BEsEPARPBD0EPQQ+BDUA--0" 576 657 basechar 0
LayerCount: 2
Fore
SplineSet
13 104 m 0,0,1
 13 132 13 132 33.5 163 c 128,-1,2
 54 194 54 194 87 224 c 128,-1,3
 120 254 120 254 158 277 c 1,4,5
 118 310 118 310 99.5 353 c 128,-1,6
 81 396 81 396 81 439 c 0,7,8
 81 500 81 500 113 552 c 128,-1,9
 145 604 145 604 204 635.5 c 128,-1,10
 263 667 263 667 342 667 c 0,11,12
 409 667 409 667 466 644 c 128,-1,13
 523 621 523 621 562 581 c 1,14,-1
 562 650 l 1,15,-1
 622 664 l 1,16,-1
 629 657 l 1,17,-1
 629 232 l 1,18,19
 663 229 663 229 684.5 205 c 128,-1,20
 706 181 706 181 706 148 c 0,21,22
 706 117 706 117 686.5 89.5 c 128,-1,23
 667 62 667 62 636 30 c 1,24,-1
 760 -64 l 1,25,-1
 715 -111 l 1,26,-1
 701 -111 l 1,27,-1
 573 7 l 1,28,-1
 573 35 l 1,29,30
 612 74 612 74 629.5 97 c 128,-1,31
 647 120 647 120 647 137 c 0,32,33
 647 151 647 151 637.5 159.5 c 128,-1,34
 628 168 628 168 612 168 c 0,35,36
 595 168 595 168 580 155 c 128,-1,37
 565 142 565 142 546 118 c 0,38,39
 505 67 505 67 469.5 39 c 128,-1,40
 434 11 434 11 400 0.5 c 128,-1,41
 366 -10 366 -10 331 -10 c 0,42,43
 277 -10 277 -10 240 12.5 c 128,-1,44
 203 35 203 35 184 71 c 128,-1,45
 165 107 165 107 165 149 c 0,46,47
 165 198 165 198 194 250 c 1,48,49
 121 208 121 208 88 151 c 1,50,51
 126 134 126 134 126 98 c 0,52,53
 126 73 126 73 109.5 56 c 128,-1,54
 93 39 93 39 70 39 c 0,55,56
 50 39 50 39 31.5 54.5 c 128,-1,57
 13 70 13 70 13 104 c 0,0,1
234 164 m 0,58,59
 234 119 234 119 261.5 87 c 128,-1,60
 289 55 289 55 342 55 c 0,61,62
 382 55 382 55 420.5 77 c 128,-1,63
 459 99 459 99 509 161 c 0,64,65
 538 197 538 197 562 214 c 1,66,-1
 562 478 l 1,67,68
 529 537 529 537 467 569 c 128,-1,69
 405 601 405 601 333 601 c 0,70,71
 273 601 273 601 232 580.5 c 128,-1,72
 191 560 191 560 170 526 c 128,-1,73
 149 492 149 492 149 451 c 0,74,75
 149 411 149 411 171.5 375 c 128,-1,76
 194 339 194 339 245 320 c 1,77,78
 271 348 271 348 304 376 c 1,79,-1
 342 336 l 1,80,81
 284 285 284 285 259 243.5 c 128,-1,82
 234 202 234 202 234 164 c 0,58,59
EndSplineSet
EndChar

StartChar: khakaorya
Encoding: 65537 -1 53
Width: 664
GlyphClass: 3
Flags: W
LayerCount: 2
Fore
SplineSet
101 158 m 0,0,1
 101 204 101 204 121 244 c 1,2,3
 78 281 78 281 55 330 c 128,-1,4
 32 379 32 379 32 434 c 0,5,6
 32 492 32 492 61.5 545.5 c 128,-1,7
 91 599 91 599 151 633 c 128,-1,8
 211 667 211 667 300 667 c 0,9,10
 335 667 335 667 367.5 662 c 128,-1,11
 400 657 400 657 420 649 c 1,12,-1
 420 635 l 1,13,14
 352 567 352 567 352 510 c 0,15,16
 352 480 352 480 371.5 463.5 c 128,-1,17
 391 447 391 447 421 447 c 0,18,19
 465 447 465 447 492 480.5 c 128,-1,20
 519 514 519 514 525 572 c 1,21,-1
 525 650 l 1,22,-1
 585 664 l 1,23,-1
 592 657 l 1,24,-1
 592 91 l 1,25,26
 654 76 654 76 654 -22 c 2,27,-1
 654 -183 l 1,28,-1
 599 -194 l 1,29,-1
 587 -186 l 1,30,-1
 587 -45 l 2,31,32
 587 -4 587 -4 575.5 15 c 128,-1,33
 564 34 564 34 546 34 c 0,34,35
 533 34 533 34 521 23.5 c 128,-1,36
 509 13 509 13 509 -9 c 2,37,-1
 509 -179 l 1,38,-1
 454 -195 l 1,39,-1
 442 -186 l 1,40,-1
 442 -125 l 1,41,42
 423 -133 423 -133 400 -133 c 0,43,44
 373 -133 373 -133 348.5 -120 c 128,-1,45
 324 -107 324 -107 308 -82 c 128,-1,46
 292 -57 292 -57 292 -22 c 0,47,48
 292 -14 292 -14 293 -6 c 1,49,50
 276 -10 276 -10 259 -10 c 0,51,52
 214 -10 214 -10 178.5 12 c 128,-1,53
 143 34 143 34 122 72 c 128,-1,54
 101 110 101 110 101 158 c 0,0,1
285 495 m 0,55,56
 285 547 285 547 331 599 c 1,57,58
 308 601 308 601 290 601 c 0,59,60
 223 601 223 601 181 578 c 128,-1,61
 139 555 139 555 119.5 520 c 128,-1,62
 100 485 100 485 100 449 c 0,63,64
 100 401 100 401 120.5 365.5 c 128,-1,65
 141 330 141 330 173 306 c 1,66,67
 215 337 215 337 269 337 c 0,68,69
 314 337 314 337 350 315 c 128,-1,70
 386 293 386 293 406.5 255 c 128,-1,71
 427 217 427 217 427 169 c 0,72,73
 427 130 427 130 412 95 c 1,74,75
 460 91 460 91 486 55 c 1,76,77
 495 65 495 65 505 72 c 128,-1,78
 515 79 515 79 525 84 c 1,79,-1
 525 449 l 1,80,81
 504 417 504 417 473.5 399.5 c 128,-1,82
 443 382 443 382 405 382 c 0,83,84
 351 382 351 382 318 414 c 128,-1,85
 285 446 285 446 285 495 c 0,55,56
164 185 m 0,86,87
 164 146 164 146 180.5 115.5 c 128,-1,88
 197 85 197 85 223.5 67.5 c 128,-1,89
 250 50 250 50 280 50 c 0,90,91
 308 50 308 50 328 64 c 0,92,93
 333 69 333 69 339 73 c 0,94,95
 364 99 364 99 364 143 c 0,96,97
 364 182 364 182 347.5 212.5 c 128,-1,98
 331 243 331 243 305 260.5 c 128,-1,99
 279 278 279 278 248 278 c 0,100,101
 208 278 208 278 186 251.5 c 128,-1,102
 164 225 164 225 164 185 c 0,86,87
355 -8 m 0,103,104
 355 -33 355 -33 373 -53 c 128,-1,105
 391 -73 391 -73 416 -73 c 0,106,107
 436 -73 436 -73 446.5 -62.5 c 128,-1,108
 457 -52 457 -52 457 -35 c 0,109,110
 457 -6 457 -6 439 13 c 128,-1,111
 421 32 421 32 396 32 c 0,112,113
 355 32 355 32 355 -8 c 0,103,104
EndSplineSet
Ligature2: "'akhn' Akhand lookup 37 subtable" khaorya viramaorya kaorya
EndChar

StartChar: pattaorya
Encoding: 65538 -1 54
Width: 660
GlyphClass: 3
Flags: W
LayerCount: 2
Fore
SplineSet
124 156 m 0,0,1
 124 189 124 189 138 223 c 1,2,3
 86 262 86 262 59 316 c 128,-1,4
 32 370 32 370 32 427 c 0,5,6
 32 494 32 494 66 548 c 128,-1,7
 100 602 100 602 160.5 634.5 c 128,-1,8
 221 667 221 667 301 667 c 0,9,10
 428 667 428 667 515 582 c 1,11,-1
 515 650 l 1,12,-1
 575 664 l 1,13,-1
 582 657 l 1,14,-1
 582 139 l 1,15,16
 602 133 602 133 622 120 c 128,-1,17
 642 107 642 107 658 87 c 1,18,-1
 658 136 l 1,19,-1
 710 150 l 1,20,-1
 717 143 l 1,21,-1
 717 -15 l 1,22,-1
 665 -29 l 1,23,-1
 658 -22 l 1,24,25
 639 31 639 31 600.5 58.5 c 128,-1,26
 562 86 562 86 518 86 c 0,27,28
 482 86 482 86 457 69.5 c 128,-1,29
 432 53 432 53 432 24 c 0,30,31
 432 -7 432 -7 460 -33 c 1,32,33
 474 -21 474 -21 492.5 -14 c 128,-1,34
 511 -7 511 -7 533 -7 c 0,35,36
 580 -7 580 -7 608 -38.5 c 128,-1,37
 636 -70 636 -70 636 -111 c 0,38,39
 636 -135 636 -135 624 -160.5 c 128,-1,40
 612 -186 612 -186 587.5 -203 c 128,-1,41
 563 -220 563 -220 527 -220 c 0,42,43
 482 -220 482 -220 451.5 -189.5 c 128,-1,44
 421 -159 421 -159 421 -115 c 0,45,46
 421 -105 421 -105 423 -95 c 1,47,48
 379 -52 379 -52 375 5 c 1,49,50
 361 -1 361 -1 342.5 -5.5 c 128,-1,51
 324 -10 324 -10 304 -10 c 0,52,53
 247 -10 247 -10 207 13.5 c 128,-1,54
 167 37 167 37 145.5 75 c 128,-1,55
 124 113 124 113 124 156 c 0,0,1
192 173 m 0,56,57
 192 125 192 125 226 90 c 128,-1,58
 260 55 260 55 323 55 c 0,59,60
 340 55 340 55 356 59 c 128,-1,61
 372 63 372 63 389 70 c 1,62,63
 405 102 405 102 438.5 123 c 128,-1,64
 472 144 472 144 515 147 c 1,65,-1
 515 491 l 1,66,67
 473 542 473 542 415.5 571.5 c 128,-1,68
 358 601 358 601 290 601 c 0,69,70
 232 601 232 601 189 579.5 c 128,-1,71
 146 558 146 558 123 522 c 128,-1,72
 100 486 100 486 100 440 c 256,73,74
 100 394 100 394 123 357.5 c 128,-1,75
 146 321 146 321 186 301 c 1,76,77
 227 349 227 349 289 392 c 1,78,-1
 327 352 l 1,79,80
 253 299 253 299 222.5 255.5 c 128,-1,81
 192 212 192 212 192 173 c 0,56,57
478 -101 m 0,82,83
 478 -125 478 -125 496 -143.5 c 128,-1,84
 514 -162 514 -162 540 -162 c 0,85,86
 557 -162 557 -162 568.5 -152.5 c 128,-1,87
 580 -143 580 -143 580 -124 c 0,88,89
 580 -100 580 -100 562 -81.5 c 128,-1,90
 544 -63 544 -63 518 -63 c 0,91,92
 502 -63 502 -63 490 -72 c 128,-1,93
 478 -81 478 -81 478 -101 c 0,82,83
EndSplineSet
Ligature2: "'pres' Pre Base Substitutions lookup 45 subtable" paorya ttasubscriptorya
EndChar

StartChar: aicandrabinduorya
Encoding: 65539 -1 55
Width: 823
GlyphClass: 2
Flags: W
AnchorPoint: "+BBEENQQ3BEsEPARPBD0EPQQ+BDUA--3" 410 0 basechar 0
AnchorPoint: "+BBEENQQ3BEsEPARPBD0EPQQ+BDUA--0" 458 657 basechar 0
LayerCount: 2
Fore
SplineSet
869 874 m 1,0,-1
 909 917 l 1,1,2
 920 908 920 908 931 898.5 c 128,-1,3
 942 889 942 889 952 878 c 1,4,-1
 913 834 l 1,5,6
 902 845 902 845 891 855 c 128,-1,7
 880 865 880 865 869 874 c 1,0,-1
35 278 m 0,8,9
 35 323 35 323 48.5 375 c 128,-1,10
 62 427 62 427 84.5 481 c 128,-1,11
 107 535 107 535 134.5 585.5 c 128,-1,12
 162 636 162 636 190 678 c 1,13,-1
 250 649 l 1,14,15
 177 540 177 540 141 451.5 c 128,-1,16
 105 363 105 363 105 288 c 0,17,18
 105 221 105 221 140.5 170 c 128,-1,19
 176 119 176 119 259.5 89 c 128,-1,20
 343 59 343 59 487 54 c 1,21,-1
 487 586 l 1,22,-1
 484 586 l 2,23,24
 421 586 421 586 377.5 559.5 c 128,-1,25
 334 533 334 533 310 493.5 c 128,-1,26
 286 454 286 454 281 415 c 1,27,28
 327 399 327 399 327 356 c 0,29,30
 327 330 327 330 310 312.5 c 128,-1,31
 293 295 293 295 269 295 c 0,32,33
 247 295 247 295 229 312 c 128,-1,34
 211 329 211 329 211 376 c 0,35,36
 211 417 211 417 228.5 465.5 c 128,-1,37
 246 514 246 514 282 557.5 c 128,-1,38
 318 601 318 601 374 629 c 128,-1,39
 430 657 430 657 506 657 c 0,40,41
 519 657 519 657 529.5 656 c 128,-1,42
 540 655 540 655 547 653 c 2,43,-1
 554 646 l 1,44,-1
 554 365 l 1,45,46
 562 351 562 351 575.5 343 c 128,-1,47
 589 335 589 335 605 335 c 0,48,49
 633 335 633 335 651 353 c 128,-1,50
 669 371 669 371 675 399 c 1,51,-1
 675 650 l 1,52,53
 703 682 703 682 721.5 721 c 128,-1,54
 740 760 740 760 740 789 c 0,55,56
 740 805 740 805 731.5 817.5 c 128,-1,57
 723 830 723 830 697 830 c 0,58,59
 684 830 684 830 670 827.5 c 128,-1,60
 656 825 656 825 641 820 c 0,61,62
 628 816 628 816 607.5 809.5 c 128,-1,63
 587 803 587 803 554 792 c 0,64,65
 522 781 522 781 494 774.5 c 128,-1,66
 466 768 466 768 437 768 c 0,67,68
 394 768 394 768 358 786.5 c 128,-1,69
 322 805 322 805 295 833 c 1,70,-1
 341 888 l 1,71,72
 370 859 370 859 398 846 c 128,-1,73
 426 833 426 833 454 833 c 0,74,75
 477 833 477 833 503.5 840 c 128,-1,76
 530 847 530 847 570 861 c 0,77,78
 614 877 614 877 650.5 888.5 c 128,-1,79
 687 900 687 900 721 900 c 0,80,81
 758 900 758 900 780 879 c 1,82,-1
 784 882 l 1,83,-1
 800 876 l 1,84,85
 814 839 814 839 841.5 820 c 128,-1,86
 869 801 869 801 902 801 c 0,87,88
 936 801 936 801 965.5 821.5 c 128,-1,89
 995 842 995 842 1024 879 c 1,90,-1
 1048 865 l 1,91,92
 988 743 988 743 886 743 c 0,93,94
 860 743 860 743 838.5 750 c 128,-1,95
 817 757 817 757 799 769 c 1,96,97
 791 739 791 739 775.5 710 c 128,-1,98
 760 681 760 681 742 657 c 1,99,-1
 742 7 l 1,100,-1
 682 -7 l 1,101,-1
 675 0 l 1,102,-1
 675 311 l 1,103,104
 643 266 643 266 590 266 c 0,105,106
 571 266 571 266 554 272 c 1,107,-1
 554 2 l 1,108,-1
 491 -10 l 1,109,110
 416 -10 416 -10 344 -0.5 c 128,-1,111
 272 9 272 9 211 32.5 c 128,-1,112
 150 56 150 56 107 97 c 0,113,114
 73 129 73 129 54 174 c 128,-1,115
 35 219 35 219 35 278 c 0,8,9
EndSplineSet
Ligature2: "'abvs' Above Base Substitutions lookup 52 subtable" aiorya candrabinduorya
EndChar

StartChar: airephorya
Encoding: 65540 -1 56
Width: 821
GlyphClass: 2
Flags: W
AnchorPoint: "+BBEENQQ3BEsEPARPBD0EPQQ+BDUA--3" 410 0 basechar 0
AnchorPoint: "+BBEENQQ3BEsEPARPBD0EPQQ+BDUA--0" 458 657 basechar 0
LayerCount: 2
Fore
SplineSet
35 278 m 0,0,1
 35 323 35 323 48.5 375 c 128,-1,2
 62 427 62 427 84.5 481 c 128,-1,3
 107 535 107 535 134.5 585.5 c 128,-1,4
 162 636 162 636 190 678 c 1,5,-1
 250 649 l 1,6,7
 177 540 177 540 141 451.5 c 128,-1,8
 105 363 105 363 105 288 c 0,9,10
 105 221 105 221 140.5 170 c 128,-1,11
 176 119 176 119 259.5 89 c 128,-1,12
 343 59 343 59 487 54 c 1,13,-1
 487 586 l 1,14,-1
 484 586 l 2,15,16
 421 586 421 586 377.5 559.5 c 128,-1,17
 334 533 334 533 310 493.5 c 128,-1,18
 286 454 286 454 281 415 c 1,19,20
 327 399 327 399 327 356 c 0,21,22
 327 330 327 330 310 312.5 c 128,-1,23
 293 295 293 295 269 295 c 0,24,25
 247 295 247 295 229 312 c 128,-1,26
 211 329 211 329 211 376 c 0,27,28
 211 417 211 417 228.5 465.5 c 128,-1,29
 246 514 246 514 282 557.5 c 128,-1,30
 318 601 318 601 374 629 c 128,-1,31
 430 657 430 657 506 657 c 0,32,33
 519 657 519 657 529.5 656 c 128,-1,34
 540 655 540 655 547 653 c 2,35,-1
 554 646 l 1,36,-1
 554 365 l 1,37,38
 562 351 562 351 575.5 343 c 128,-1,39
 589 335 589 335 605 335 c 0,40,41
 633 335 633 335 651 353 c 128,-1,42
 669 371 669 371 675 399 c 1,43,-1
 675 650 l 1,44,45
 703 682 703 682 721.5 721 c 128,-1,46
 740 760 740 760 740 789 c 0,47,48
 740 805 740 805 731.5 817.5 c 128,-1,49
 723 830 723 830 697 830 c 0,50,51
 684 830 684 830 670 827.5 c 128,-1,52
 656 825 656 825 641 820 c 0,53,54
 628 816 628 816 607.5 809.5 c 128,-1,55
 587 803 587 803 554 792 c 0,56,57
 522 781 522 781 494 774.5 c 128,-1,58
 466 768 466 768 437 768 c 0,59,60
 394 768 394 768 358 786.5 c 128,-1,61
 322 805 322 805 295 833 c 1,62,-1
 341 888 l 1,63,64
 370 859 370 859 398 846 c 128,-1,65
 426 833 426 833 454 833 c 0,66,67
 477 833 477 833 503.5 840 c 128,-1,68
 530 847 530 847 570 861 c 0,69,70
 614 877 614 877 650.5 888.5 c 128,-1,71
 687 900 687 900 721 900 c 0,72,73
 750 900 750 900 768.5 888 c 128,-1,74
 787 876 787 876 796 857 c 1,75,76
 900 870 900 870 998 917 c 1,77,-1
 1019 890 l 1,78,79
 982 864 982 864 954.5 847 c 128,-1,80
 927 830 927 830 899.5 820.5 c 128,-1,81
 872 811 872 811 836 810 c 1,82,83
 887 801 887 801 938 797 c 1,84,-1
 918 733 l 1,85,86
 856 747 856 747 798 764 c 1,87,88
 789 735 789 735 774 707.5 c 128,-1,89
 759 680 759 680 742 657 c 1,90,-1
 742 7 l 1,91,-1
 682 -7 l 1,92,-1
 675 0 l 1,93,-1
 675 311 l 1,94,95
 643 266 643 266 590 266 c 0,96,97
 571 266 571 266 554 272 c 1,98,-1
 554 2 l 1,99,-1
 491 -10 l 1,100,101
 416 -10 416 -10 344 -0.5 c 128,-1,102
 272 9 272 9 211 32.5 c 128,-1,103
 150 56 150 56 107 97 c 0,104,105
 73 129 73 129 54 174 c 128,-1,106
 35 219 35 219 35 278 c 0,0,1
EndSplineSet
Ligature2: "'abvs' Above Base Substitutions lookup 52 subtable" aiorya rephorya
EndChar

StartChar: aucandrabinduorya
Encoding: 65541 -1 57
Width: 826
GlyphClass: 2
Flags: W
AnchorPoint: "+BBEENQQ3BEsEPARPBD0EPQQ+BDUA--5" 408 0 basechar 0
AnchorPoint: "+BBEENQQ3BEsEPARPBD0EPQQ+BDUA--3" 410 0 basechar 0
AnchorPoint: "+BBEENQQ3BEsEPARPBD0EPQQ+BDUA--0" 482 657 basechar 0
LayerCount: 2
Fore
SplineSet
35 283 m 0,0,1
 35 350 35 350 55 421.5 c 128,-1,2
 75 493 75 493 106.5 561.5 c 128,-1,3
 138 630 138 630 174 688 c 1,4,-1
 238 657 l 1,5,6
 180 573 180 573 142 489.5 c 128,-1,7
 104 406 104 406 104 308 c 0,8,9
 104 221 104 221 135.5 165.5 c 128,-1,10
 167 110 167 110 221.5 84 c 128,-1,11
 276 58 276 58 345 58 c 0,12,13
 427 58 427 58 476.5 90 c 128,-1,14
 526 122 526 122 526 174 c 0,15,16
 526 215 526 215 492.5 244.5 c 128,-1,17
 459 274 459 274 388 285 c 0,18,19
 368 288 368 288 345 290 c 128,-1,20
 322 292 322 292 298 292 c 1,21,-1
 289 303 l 1,22,-1
 307 347 l 1,23,24
 324 354 324 354 342.5 362.5 c 128,-1,25
 361 371 361 371 380 381 c 0,26,27
 433 410 433 410 458 434 c 0,28,29
 493 467 493 467 493 512 c 0,30,31
 493 550 493 550 466 575.5 c 128,-1,32
 439 601 439 601 396 601 c 0,33,34
 352 601 352 601 334.5 583.5 c 128,-1,35
 317 566 317 566 317 540 c 0,36,37
 317 525 317 525 321.5 508.5 c 128,-1,38
 326 492 326 492 333 478 c 1,39,-1
 268 452 l 1,40,41
 260 468 260 468 255 488 c 128,-1,42
 250 508 250 508 250 524 c 0,43,44
 250 585 250 585 292.5 626 c 128,-1,45
 335 667 335 667 409 667 c 0,46,47
 452 667 452 667 486 648.5 c 128,-1,48
 520 630 520 630 539.5 597 c 128,-1,49
 559 564 559 564 559 522 c 0,50,51
 559 487 559 487 544.5 455.5 c 128,-1,52
 530 424 530 424 498 395 c 0,53,54
 467 367 467 367 418 342 c 1,55,56
 465 335 465 335 502 319 c 0,57,58
 523 309 523 309 539 296 c 1,59,-1
 540 297 l 1,60,61
 552 290 552 290 566 286 c 128,-1,62
 580 282 580 282 596 282 c 0,63,64
 634 282 634 282 653 306 c 128,-1,65
 672 330 672 330 672 365 c 2,66,-1
 672 650 l 1,67,68
 700 682 700 682 718.5 721 c 128,-1,69
 737 760 737 760 737 789 c 0,70,71
 737 805 737 805 728.5 817.5 c 128,-1,72
 720 830 720 830 694 830 c 0,73,74
 681 830 681 830 667 827.5 c 128,-1,75
 653 825 653 825 638 820 c 0,76,77
 625 816 625 816 604.5 809.5 c 128,-1,78
 584 803 584 803 551 792 c 0,79,80
 519 781 519 781 491 774.5 c 128,-1,81
 463 768 463 768 434 768 c 0,82,83
 391 768 391 768 355 786.5 c 128,-1,84
 319 805 319 805 292 833 c 1,85,-1
 338 888 l 1,86,87
 367 859 367 859 395 846 c 128,-1,88
 423 833 423 833 451 833 c 0,89,90
 474 833 474 833 500.5 840 c 128,-1,91
 527 847 527 847 567 861 c 0,92,93
 611 877 611 877 647.5 888.5 c 128,-1,94
 684 900 684 900 718 900 c 0,95,96
 746 900 746 900 764.5 888.5 c 128,-1,97
 783 877 783 877 792 858 c 1,98,-1
 801 855 l 1,99,100
 815 818 815 818 842.5 799 c 128,-1,101
 870 780 870 780 903 780 c 0,102,103
 937 780 937 780 966.5 800.5 c 128,-1,104
 996 821 996 821 1025 858 c 1,105,-1
 1049 844 l 1,106,107
 989 722 989 722 887 722 c 0,108,109
 858 722 858 722 834.5 730.5 c 128,-1,110
 811 739 811 739 792 754 c 1,111,112
 783 728 783 728 769 703 c 128,-1,113
 755 678 755 678 739 657 c 1,114,-1
 739 7 l 1,115,-1
 679 -7 l 1,116,-1
 672 0 l 1,117,-1
 672 254 l 1,118,119
 642 213 642 213 591 213 c 1,120,-1
 591 213 l 1,121,122
 594 198 594 198 594 181 c 0,123,124
 594 126 594 126 560.5 83 c 128,-1,125
 527 40 527 40 468 15 c 128,-1,126
 409 -10 409 -10 334 -10 c 0,127,128
 249 -10 249 -10 181 24 c 128,-1,129
 113 58 113 58 74 123.5 c 128,-1,130
 35 189 35 189 35 283 c 0,0,1
870 853 m 1,131,-1
 910 896 l 1,132,133
 921 887 921 887 932 877.5 c 128,-1,134
 943 868 943 868 953 857 c 1,135,-1
 914 813 l 1,136,137
 903 824 903 824 892 834 c 128,-1,138
 881 844 881 844 870 853 c 1,131,-1
EndSplineSet
Ligature2: "'abvs' Above Base Substitutions lookup 52 subtable" auorya candrabinduorya
EndChar

StartChar: aurephorya
Encoding: 65542 -1 58
Width: 830
GlyphClass: 2
Flags: W
AnchorPoint: "+BBEENQQ3BEsEPARPBD0EPQQ+BDUA--5" 408 0 basechar 0
AnchorPoint: "+BBEENQQ3BEsEPARPBD0EPQQ+BDUA--3" 410 0 basechar 0
AnchorPoint: "+BBEENQQ3BEsEPARPBD0EPQQ+BDUA--0" 482 657 basechar 0
LayerCount: 2
Fore
SplineSet
35 283 m 0,0,1
 35 350 35 350 55 421.5 c 128,-1,2
 75 493 75 493 106.5 561.5 c 128,-1,3
 138 630 138 630 174 688 c 1,4,-1
 238 657 l 1,5,6
 180 573 180 573 142 489.5 c 128,-1,7
 104 406 104 406 104 308 c 0,8,9
 104 221 104 221 135.5 165.5 c 128,-1,10
 167 110 167 110 221.5 84 c 128,-1,11
 276 58 276 58 345 58 c 0,12,13
 427 58 427 58 476.5 90 c 128,-1,14
 526 122 526 122 526 174 c 0,15,16
 526 215 526 215 492.5 244.5 c 128,-1,17
 459 274 459 274 388 285 c 0,18,19
 368 288 368 288 345 290 c 128,-1,20
 322 292 322 292 298 292 c 1,21,-1
 289 303 l 1,22,-1
 307 347 l 1,23,24
 324 354 324 354 342.5 362.5 c 128,-1,25
 361 371 361 371 380 381 c 0,26,27
 433 410 433 410 458 434 c 0,28,29
 493 467 493 467 493 512 c 0,30,31
 493 550 493 550 466 575.5 c 128,-1,32
 439 601 439 601 396 601 c 0,33,34
 352 601 352 601 334.5 583.5 c 128,-1,35
 317 566 317 566 317 540 c 0,36,37
 317 525 317 525 321.5 508.5 c 128,-1,38
 326 492 326 492 333 478 c 1,39,-1
 268 452 l 1,40,41
 260 468 260 468 255 488 c 128,-1,42
 250 508 250 508 250 524 c 0,43,44
 250 585 250 585 292.5 626 c 128,-1,45
 335 667 335 667 409 667 c 0,46,47
 452 667 452 667 486 648.5 c 128,-1,48
 520 630 520 630 539.5 597 c 128,-1,49
 559 564 559 564 559 522 c 0,50,51
 559 487 559 487 544.5 455.5 c 128,-1,52
 530 424 530 424 498 395 c 0,53,54
 467 367 467 367 418 342 c 1,55,56
 465 335 465 335 502 319 c 0,57,58
 523 309 523 309 539 296 c 1,59,-1
 540 297 l 1,60,61
 552 290 552 290 566 286 c 128,-1,62
 580 282 580 282 596 282 c 0,63,64
 634 282 634 282 653 306 c 128,-1,65
 672 330 672 330 672 365 c 2,66,-1
 672 650 l 1,67,68
 700 682 700 682 718.5 721 c 128,-1,69
 737 760 737 760 737 789 c 0,70,71
 737 805 737 805 728.5 817.5 c 128,-1,72
 720 830 720 830 694 830 c 0,73,74
 681 830 681 830 667 827.5 c 128,-1,75
 653 825 653 825 638 820 c 0,76,77
 625 816 625 816 604.5 809.5 c 128,-1,78
 584 803 584 803 551 792 c 0,79,80
 519 781 519 781 491 774.5 c 128,-1,81
 463 768 463 768 434 768 c 0,82,83
 391 768 391 768 355 786.5 c 128,-1,84
 319 805 319 805 292 833 c 1,85,-1
 338 888 l 1,86,87
 367 859 367 859 395 846 c 128,-1,88
 423 833 423 833 451 833 c 0,89,90
 474 833 474 833 500.5 840 c 128,-1,91
 527 847 527 847 567 861 c 0,92,93
 611 877 611 877 647.5 888.5 c 128,-1,94
 684 900 684 900 718 900 c 0,95,96
 745 900 745 900 763 889 c 128,-1,97
 781 878 781 878 791 861 c 1,98,99
 865 874 865 874 938 906 c 1,100,-1
 959 879 l 1,101,102
 927 857 927 857 903 842.5 c 128,-1,103
 879 828 879 828 856 820 c 128,-1,104
 833 812 833 812 802 810 c 1,105,-1
 802 809 l 1,106,107
 825 805 825 805 848 802 c 128,-1,108
 871 799 871 799 895 796 c 1,109,-1
 875 733 l 1,110,111
 854 739 854 739 833.5 744.5 c 128,-1,112
 813 750 813 750 792 756 c 1,113,114
 784 730 784 730 769.5 704 c 128,-1,115
 755 678 755 678 739 657 c 1,116,-1
 739 7 l 1,117,-1
 679 -7 l 1,118,-1
 672 0 l 1,119,-1
 672 254 l 1,120,121
 642 213 642 213 591 213 c 1,122,-1
 591 213 l 1,123,124
 594 198 594 198 594 181 c 0,125,126
 594 126 594 126 560.5 83 c 128,-1,127
 527 40 527 40 468 15 c 128,-1,128
 409 -10 409 -10 334 -10 c 0,129,130
 249 -10 249 -10 181 24 c 128,-1,131
 113 58 113 58 74 123.5 c 128,-1,132
 35 189 35 189 35 283 c 0,0,1
EndSplineSet
Ligature2: "'abvs' Above Base Substitutions lookup 52 subtable" auorya rephorya
EndChar

StartChar: babaorya
Encoding: 65543 -1 59
Width: 625
GlyphClass: 2
Flags: W
AnchorPoint: "+BBEENQQ3BEsEPARPBD0EPQQ+BDUA--5" 472 0 basechar 0
AnchorPoint: "+BBEENQQ3BEsEPARPBD0EPQQ+BDUA--3" 329 0 basechar 0
AnchorPoint: "+BBEENQQ3BEsEPARPBD0EPQQ+BDUA--2" 329 657 basechar 0
AnchorPoint: "+BBEENQQ3BEsEPARPBD0EPQQ+BDUA--0" 502 657 basechar 0
LayerCount: 2
Fore
SplineSet
122 192 m 0,0,1
 122 207 122 207 123 221 c 1,2,3
 78 264 78 264 55 317.5 c 128,-1,4
 32 371 32 371 32 424 c 0,5,6
 32 492 32 492 67.5 547 c 128,-1,7
 103 602 103 602 166 634.5 c 128,-1,8
 229 667 229 667 311 667 c 0,9,10
 373 667 373 667 421 649.5 c 128,-1,11
 469 632 469 632 505.5 605.5 c 128,-1,12
 542 579 542 579 568.5 550 c 128,-1,13
 595 521 595 521 614 498 c 1,14,-1
 565 446 l 1,15,-1
 555 446 l 1,16,17
 532 479 532 479 496.5 515 c 128,-1,18
 461 551 461 551 411.5 576 c 128,-1,19
 362 601 362 601 296 601 c 0,20,21
 239 601 239 601 195 580 c 128,-1,22
 151 559 151 559 125.5 521.5 c 128,-1,23
 100 484 100 484 100 435 c 0,24,25
 100 398 100 398 114.5 365.5 c 128,-1,26
 129 333 129 333 153 312 c 1,27,28
 182 355 182 355 230 355 c 0,29,30
 274 355 274 355 300 318 c 1,31,32
 329 355 329 355 373 355 c 0,33,34
 395 355 395 355 418 343 c 128,-1,35
 441 331 441 331 456.5 295 c 128,-1,36
 472 259 472 259 472 187 c 2,37,-1
 472 7 l 1,38,-1
 412 -7 l 1,39,-1
 405 0 l 1,40,-1
 405 69 l 1,41,42
 384 54 384 54 360 54 c 0,43,44
 317 54 317 54 292 91 c 1,45,46
 263 54 263 54 217 54 c 0,47,48
 173 54 173 54 147.5 92.5 c 128,-1,49
 122 131 122 131 122 192 c 0,0,1
183 211 m 0,50,51
 183 187 183 187 189 164.5 c 128,-1,52
 195 142 195 142 205.5 127 c 128,-1,53
 216 112 216 112 229 112 c 0,54,55
 246 112 246 112 255.5 136 c 128,-1,56
 265 160 265 160 265 197 c 256,57,58
 265 234 265 234 252.5 265 c 128,-1,59
 240 296 240 296 219 296 c 0,60,61
 202 296 202 296 192.5 272 c 128,-1,62
 183 248 183 248 183 211 c 0,50,51
326 211 m 0,63,64
 326 187 326 187 332 164.5 c 128,-1,65
 338 142 338 142 348.5 127 c 128,-1,66
 359 112 359 112 372 112 c 0,67,68
 389 112 389 112 398.5 136 c 128,-1,69
 408 160 408 160 408 197 c 256,70,71
 408 234 408 234 395.5 265 c 128,-1,72
 383 296 383 296 362 296 c 0,73,74
 345 296 345 296 335.5 272 c 128,-1,75
 326 248 326 248 326 211 c 0,63,64
EndSplineSet
Ligature2: "'pres' Pre Base Substitutions lookup 45 subtable" baorya basubscriptorya
EndChar

StartChar: badaorya
Encoding: 65544 -1 60
Width: 637
GlyphClass: 2
Flags: W
AnchorPoint: "+BBEENQQ3BEsEPARPBD0EPQQ+BDUA--5" 517 0 basechar 0
AnchorPoint: "+BBEENQQ3BEsEPARPBD0EPQQ+BDUA--3" 324 0 basechar 0
AnchorPoint: "+BBEENQQ3BEsEPARPBD0EPQQ+BDUA--2" 324 657 basechar 0
AnchorPoint: "+BBEENQQ3BEsEPARPBD0EPQQ+BDUA--0" 502 657 basechar 0
LayerCount: 2
Fore
SplineSet
101 202 m 0,0,1
 101 221 101 221 105 239 c 1,2,3
 69 281 69 281 50.5 328.5 c 128,-1,4
 32 376 32 376 32 424 c 0,5,6
 32 492 32 492 67.5 547 c 128,-1,7
 103 602 103 602 166 634.5 c 128,-1,8
 229 667 229 667 311 667 c 0,9,10
 373 667 373 667 421 649.5 c 128,-1,11
 469 632 469 632 505.5 605.5 c 128,-1,12
 542 579 542 579 568.5 550 c 128,-1,13
 595 521 595 521 614 498 c 1,14,-1
 565 446 l 1,15,-1
 555 446 l 1,16,17
 532 479 532 479 496.5 515 c 128,-1,18
 461 551 461 551 411.5 576 c 128,-1,19
 362 601 362 601 296 601 c 0,20,21
 239 601 239 601 195 580 c 128,-1,22
 151 559 151 559 125.5 521.5 c 128,-1,23
 100 484 100 484 100 435 c 0,24,25
 100 400 100 400 113 369 c 128,-1,26
 126 338 126 338 148 316 c 1,27,28
 167 335 167 335 191.5 345 c 128,-1,29
 216 355 216 355 244 355 c 0,30,31
 282 355 282 355 312.5 336.5 c 128,-1,32
 343 318 343 318 360.5 285.5 c 128,-1,33
 378 253 378 253 378 212 c 0,34,35
 378 193 378 193 374 175 c 1,36,37
 377 145 377 145 387 132.5 c 128,-1,38
 397 120 397 120 410 120 c 0,39,40
 435 120 435 120 450 156 c 1,41,-1
 450 316 l 1,42,-1
 510 331 l 1,43,-1
 517 324 l 1,44,-1
 517 8 l 1,45,-1
 457 -7 l 1,46,-1
 450 0 l 1,47,-1
 450 87 l 1,48,49
 428 60 428 60 394 60 c 0,50,51
 373 60 373 60 357 70 c 128,-1,52
 341 80 341 80 330 97 c 1,53,54
 311 80 311 80 287 70 c 128,-1,55
 263 60 263 60 235 60 c 0,56,57
 197 60 197 60 166.5 78.5 c 128,-1,58
 136 97 136 97 118.5 129.5 c 128,-1,59
 101 162 101 162 101 202 c 0,0,1
166 203 m 0,60,61
 174 163 174 163 203 140.5 c 128,-1,62
 232 118 232 118 263 124 c 0,63,64
 293 130 293 130 306.5 154.5 c 128,-1,65
 320 179 320 179 313 213 c 0,66,67
 306 253 306 253 277 275.5 c 128,-1,68
 248 298 248 298 216 292 c 0,69,70
 186 286 186 286 172.5 261 c 128,-1,71
 159 236 159 236 166 203 c 0,60,61
EndSplineSet
Ligature2: "'pres' Pre Base Substitutions lookup 45 subtable" baorya dasubscriptorya
EndChar

StartChar: badhaorya
Encoding: 65545 -1 61
Width: 616
GlyphClass: 2
Flags: W
AnchorPoint: "+BBEENQQ3BEsEPARPBD0EPQQ+BDUA--6" 527 -49 basechar 0
AnchorPoint: "+BBEENQQ3BEsEPARPBD0EPQQ+BDUA--5" 533 0 basechar 0
AnchorPoint: "+BBEENQQ3BEsEPARPBD0EPQQ+BDUA--3" 324 0 basechar 0
AnchorPoint: "+BBEENQQ3BEsEPARPBD0EPQQ+BDUA--2" 312 657 basechar 0
AnchorPoint: "+BBEENQQ3BEsEPARPBD0EPQQ+BDUA--1" 534 -49 basechar 0
AnchorPoint: "+BBEENQQ3BEsEPARPBD0EPQQ+BDUA--0" 502 657 basechar 0
LayerCount: 2
Fore
SplineSet
32 447 m 0,0,1
 32 507 32 507 64 557 c 128,-1,2
 96 607 96 607 155.5 637 c 128,-1,3
 215 667 215 667 295 667 c 0,4,5
 360 667 360 667 409.5 652 c 128,-1,6
 459 637 459 637 496 613 c 128,-1,7
 533 589 533 589 558.5 563 c 128,-1,8
 584 537 584 537 600 516 c 1,9,-1
 553 467 l 1,10,-1
 543 467 l 1,11,12
 524 495 524 495 489 526 c 128,-1,13
 454 557 454 557 402 579 c 128,-1,14
 350 601 350 601 280 601 c 0,15,16
 199 601 199 601 149.5 560.5 c 128,-1,17
 100 520 100 520 100 458 c 0,18,19
 100 431 100 431 114 403 c 128,-1,20
 128 375 128 375 164 355 c 1,21,22
 183 390 183 390 217 411 c 128,-1,23
 251 432 251 432 293 432 c 0,24,25
 296 432 296 432 299 432 c 1,26,-1
 299 432 l 1,27,28
 320 432 320 432 344 424 c 128,-1,29
 368 416 368 416 390 395.5 c 128,-1,30
 412 375 412 375 426 339 c 128,-1,31
 440 303 440 303 440 247 c 2,32,-1
 440 67 l 1,33,-1
 380 53 l 1,34,-1
 373 60 l 1,35,-1
 373 150 l 1,36,37
 334 120 334 120 284 120 c 0,38,39
 244 120 244 120 211.5 139.5 c 128,-1,40
 179 159 179 159 160.5 192 c 128,-1,41
 142 225 142 225 142 266 c 1,42,-1
 142 266 l 1,43,44
 81 303 81 303 56.5 352 c 128,-1,45
 32 401 32 401 32 447 c 0,0,1
205 293 m 0,46,47
 205 244 205 244 234.5 213 c 128,-1,48
 264 182 264 182 300 182 c 0,49,50
 335 182 335 182 353.5 204.5 c 128,-1,51
 372 227 372 227 372 261 c 0,52,53
 372 308 372 308 343 339.5 c 128,-1,54
 314 371 314 371 277 371 c 0,55,56
 243 371 243 371 224 349 c 128,-1,57
 205 327 205 327 205 293 c 0,46,47
246 41 m 1,58,-1
 286 77 l 1,59,-1
 296 77 l 1,60,61
 325 38 325 38 359 -4.5 c 128,-1,62
 393 -47 393 -47 429 -95 c 1,63,-1
 401 -126 l 1,64,-1
 391 -126 l 1,65,66
 380 -113 380 -113 368.5 -101 c 128,-1,67
 357 -89 357 -89 347 -77 c 1,68,69
 311 -89 311 -89 294 -109 c 128,-1,70
 277 -129 277 -129 277 -153 c 0,71,72
 277 -181 277 -181 298.5 -202.5 c 128,-1,73
 320 -224 320 -224 357 -224 c 0,74,75
 385 -224 385 -224 416 -208.5 c 128,-1,76
 447 -193 447 -193 467 -155 c 1,77,-1
 467 75 l 1,78,-1
 527 89 l 1,79,-1
 534 82 l 1,80,-1
 534 -268 l 1,81,-1
 474 -282 l 1,82,-1
 467 -275 l 1,83,-1
 467 -228 l 1,84,85
 447 -250 447 -250 415.5 -265 c 128,-1,86
 384 -280 384 -280 347 -280 c 0,87,88
 292 -280 292 -280 256.5 -246 c 128,-1,89
 221 -212 221 -212 221 -159 c 0,90,91
 221 -124 221 -124 240 -91.5 c 128,-1,92
 259 -59 259 -59 305 -31 c 1,93,94
 290 -13 290 -13 275 5 c 128,-1,95
 260 23 260 23 246 41 c 1,58,-1
EndSplineSet
Ligature2: "'pres' Pre Base Substitutions lookup 45 subtable" baorya dhasubscriptorya
Ligature2: "'akhn' Akhand lookup 37 subtable" baorya viramaorya dhaorya
MultipleSubs2: "+BBwEPQQ+BDYENQRBBEIEMgQ1BD0EPQQwBE8A +BD8EPgQ0BEEEQgQwBD0EPgQyBDoEMAAA lookup 24 subtable" bahalforya dhaorya
Ligature2: "+BB8EPgQ0BEEEQgQwBD0EPgQyBDoEMAAA +BDsEOAQzBDAEQgRDBEAESwAA lookup 11 subtable" baorya dhasubscriptorya
Ligature2: "+BB8EPgQ0BEEEQgQwBD0EPgQyBDoEMAAA +BDsEOAQzBDAEQgRDBEAESwAA lookup 10 subtable" baorya dhasubscriptorya
EndChar

StartChar: balaorya
Encoding: 65547 -1 63
Width: 623
GlyphClass: 2
Flags: W
AnchorPoint: "+BBEENQQ3BEsEPARPBD0EPQQ+BDUA--5" 505 0 basechar 0
AnchorPoint: "+BBEENQQ3BEsEPARPBD0EPQQ+BDUA--3" 334 0 basechar 0
AnchorPoint: "+BBEENQQ3BEsEPARPBD0EPQQ+BDUA--2" 304 657 basechar 0
AnchorPoint: "+BBEENQQ3BEsEPARPBD0EPQQ+BDUA--1" 544 -49 basechar 0
AnchorPoint: "+BBEENQQ3BEsEPARPBD0EPQQ+BDUA--0" 474 657 basechar 0
LayerCount: 2
Fore
SplineSet
144 -72 m 0,0,1
 144 -23 144 -23 163 7.5 c 128,-1,2
 182 38 182 38 211 53 c 128,-1,3
 240 68 240 68 269 68 c 0,4,5
 290 68 290 68 309 57.5 c 128,-1,6
 328 47 328 47 340 24 c 1,7,8
 356 41 356 41 373 51 c 1,9,-1
 373 151 l 1,10,11
 334 120 334 120 284 120 c 0,12,13
 244 120 244 120 211.5 139.5 c 128,-1,14
 179 159 179 159 160.5 192 c 128,-1,15
 142 225 142 225 142 266 c 1,16,-1
 142 266 l 1,17,18
 81 303 81 303 56.5 352 c 128,-1,19
 32 401 32 401 32 447 c 0,20,21
 32 507 32 507 64 557 c 128,-1,22
 96 607 96 607 155.5 637 c 128,-1,23
 215 667 215 667 295 667 c 0,24,25
 360 667 360 667 409.5 652 c 128,-1,26
 459 637 459 637 496 613 c 128,-1,27
 533 589 533 589 558.5 563 c 128,-1,28
 584 537 584 537 600 516 c 1,29,-1
 553 467 l 1,30,-1
 543 467 l 1,31,32
 524 495 524 495 489 526 c 128,-1,33
 454 557 454 557 402 579 c 128,-1,34
 350 601 350 601 280 601 c 0,35,36
 199 601 199 601 149.5 560.5 c 128,-1,37
 100 520 100 520 100 458 c 0,38,39
 100 431 100 431 114 403 c 128,-1,40
 128 375 128 375 164 355 c 1,41,42
 183 390 183 390 217 411 c 128,-1,43
 251 432 251 432 293 432 c 0,44,45
 294 432 294 432 294 432 c 2,46,47
 295 432 295 432 295 432 c 2,48,49
 318 432 318 432 343 423.5 c 128,-1,50
 368 415 368 415 390 394.5 c 128,-1,51
 412 374 412 374 426 338 c 128,-1,52
 440 302 440 302 440 247 c 2,53,-1
 440 67 l 1,54,55
 473 61 473 61 492 28.5 c 128,-1,56
 511 -4 511 -4 511 -54 c 0,57,58
 511 -84 511 -84 504.5 -113.5 c 128,-1,59
 498 -143 498 -143 489 -167 c 1,60,-1
 560 -162 l 1,61,-1
 560 -221 l 1,62,-1
 550 -227 l 1,63,-1
 421 -213 l 1,64,-1
 421 -193 l 1,65,66
 431 -173 431 -173 439 -143 c 128,-1,67
 447 -113 447 -113 447 -82 c 0,68,69
 447 -39 447 -39 431 -15.5 c 128,-1,70
 415 8 415 8 394 8 c 0,71,72
 381 8 381 8 370.5 -2.5 c 128,-1,73
 360 -13 360 -13 360 -36 c 2,74,-1
 360 -205 l 1,75,-1
 309 -221 l 1,76,-1
 297 -212 l 1,77,-1
 297 -82 l 2,78,79
 297 8 297 8 250 8 c 0,80,81
 233 8 233 8 220.5 -7.5 c 128,-1,82
 208 -23 208 -23 208 -61 c 0,83,84
 208 -86 208 -86 212.5 -126 c 128,-1,85
 217 -166 217 -166 227 -204 c 1,86,-1
 169 -219 l 1,87,-1
 159 -210 l 1,88,89
 152 -172 152 -172 148 -131.5 c 128,-1,90
 144 -91 144 -91 144 -72 c 0,0,1
206 274 m 0,91,92
 214 229 214 229 245.5 203 c 128,-1,93
 277 177 277 177 312 183 c 0,94,95
 345 188 345 188 360.5 215 c 128,-1,96
 376 242 376 242 371 279 c 0,97,98
 364 323 364 323 332.5 349.5 c 128,-1,99
 301 376 301 376 265 370 c 0,100,101
 232 365 232 365 216.5 338.5 c 128,-1,102
 201 312 201 312 206 274 c 0,91,92
EndSplineSet
Ligature2: "'pres' Pre Base Substitutions lookup 45 subtable" baorya lasubscriptorya
EndChar

StartChar: ballaorya
Encoding: 65548 -1 64
Width: 623
GlyphClass: 2
Flags: W
AnchorPoint: "+BBEENQQ3BEsEPARPBD0EPQQ+BDUA--5" 528 0 basechar 0
AnchorPoint: "+BBEENQQ3BEsEPARPBD0EPQQ+BDUA--3" 351 0 basechar 0
AnchorPoint: "+BBEENQQ3BEsEPARPBD0EPQQ+BDUA--2" 311 657 basechar 0
AnchorPoint: "+BBEENQQ3BEsEPARPBD0EPQQ+BDUA--1" 567 -49 basechar 0
AnchorPoint: "+BBEENQQ3BEsEPARPBD0EPQQ+BDUA--0" 481 657 basechar 0
LayerCount: 2
Fore
SplineSet
166 -78 m 0,0,1
 166 -29 166 -29 185 1.5 c 128,-1,2
 204 32 204 32 233.5 47 c 128,-1,3
 263 62 263 62 292 62 c 0,4,5
 313 62 313 62 331.5 52 c 128,-1,6
 350 42 350 42 361 20 c 1,7,8
 363 22 363 22 364 23 c 2,9,-1
 369 148 l 1,10,11
 331 120 331 120 284 120 c 0,12,13
 244 120 244 120 211.5 139.5 c 128,-1,14
 179 159 179 159 160.5 192 c 128,-1,15
 142 225 142 225 142 266 c 1,16,-1
 142 266 l 1,17,18
 81 303 81 303 56.5 352 c 128,-1,19
 32 401 32 401 32 447 c 0,20,21
 32 507 32 507 64 557 c 128,-1,22
 96 607 96 607 155.5 637 c 128,-1,23
 215 667 215 667 295 667 c 0,24,25
 360 667 360 667 409.5 652 c 128,-1,26
 459 637 459 637 496 613 c 128,-1,27
 533 589 533 589 558.5 563 c 128,-1,28
 584 537 584 537 600 516 c 1,29,-1
 553 467 l 1,30,-1
 543 467 l 1,31,32
 524 495 524 495 489 526 c 128,-1,33
 454 557 454 557 402 579 c 128,-1,34
 350 601 350 601 280 601 c 0,35,36
 199 601 199 601 149.5 560.5 c 128,-1,37
 100 520 100 520 100 458 c 0,38,39
 100 431 100 431 114 403 c 128,-1,40
 128 375 128 375 164 355 c 1,41,42
 183 390 183 390 217 411 c 128,-1,43
 251 432 251 432 291 432 c 1,44,-1
 291 432 l 1,45,46
 292 432 292 432 292 432 c 1,47,-1
 293 432 l 2,48,49
 317 432 317 432 338 424 c 0,50,51
 364 416 364 416 386.5 396 c 128,-1,52
 409 376 409 376 423.5 339.5 c 128,-1,53
 438 303 438 303 438 247 c 2,54,-1
 438 61 l 1,55,56
 444 62 444 62 450 62 c 0,57,58
 487 62 487 62 507.5 31.5 c 128,-1,59
 528 1 528 1 528 -55 c 2,60,-1
 528 -215 l 1,61,-1
 476 -226 l 1,62,-1
 464 -218 l 1,63,-1
 464 -81 l 2,64,65
 464 -38 464 -38 452 -18 c 128,-1,66
 440 2 440 2 421 2 c 0,67,68
 408 2 408 2 395.5 -8 c 128,-1,69
 383 -18 383 -18 383 -36 c 2,70,-1
 383 -211 l 1,71,-1
 332 -227 l 1,72,-1
 320 -218 l 1,73,-1
 320 -88 l 2,74,75
 320 2 320 2 273 2 c 0,76,77
 256 2 256 2 243 -13.5 c 128,-1,78
 230 -29 230 -29 230 -67 c 0,79,80
 230 -92 230 -92 235 -132 c 128,-1,81
 240 -172 240 -172 250 -210 c 1,82,-1
 192 -225 l 1,83,-1
 182 -216 l 1,84,85
 175 -178 175 -178 170.5 -137.5 c 128,-1,86
 166 -97 166 -97 166 -78 c 0,0,1
205 293 m 0,87,88
 205 244 205 244 234.5 213 c 128,-1,89
 264 182 264 182 300 182 c 0,90,91
 335 182 335 182 353.5 204.5 c 128,-1,92
 372 227 372 227 372 261 c 0,93,94
 372 308 372 308 343 339.5 c 128,-1,95
 314 371 314 371 277 371 c 0,96,97
 243 371 243 371 224 349 c 128,-1,98
 205 327 205 327 205 293 c 0,87,88
EndSplineSet
Ligature2: "'pres' Pre Base Substitutions lookup 45 subtable" baorya llasubscriptorya
EndChar

StartChar: cacaorya
Encoding: 65554 -1 70
Width: 637
GlyphClass: 2
Flags: W
AnchorPoint: "+BBEENQQ3BEsEPARPBD0EPQQ+BDUA--5" 473 0 basechar 0
AnchorPoint: "+BBEENQQ3BEsEPARPBD0EPQQ+BDUA--3" 330 0 basechar 0
AnchorPoint: "+BBEENQQ3BEsEPARPBD0EPQQ+BDUA--2" 320 657 basechar 0
AnchorPoint: "+BBEENQQ3BEsEPARPBD0EPQQ+BDUA--0" 502 657 basechar 0
LayerCount: 2
Fore
SplineSet
121 146 m 0,0,1
 121 183 121 183 129 216 c 1,2,3
 81 260 81 260 56.5 314.5 c 128,-1,4
 32 369 32 369 32 424 c 0,5,6
 32 492 32 492 67.5 547 c 128,-1,7
 103 602 103 602 166 634.5 c 128,-1,8
 229 667 229 667 311 667 c 0,9,10
 373 667 373 667 421 649.5 c 128,-1,11
 469 632 469 632 505.5 605.5 c 128,-1,12
 542 579 542 579 568.5 550 c 128,-1,13
 595 521 595 521 614 498 c 1,14,-1
 565 446 l 1,15,-1
 555 446 l 1,16,17
 532 479 532 479 496.5 515 c 128,-1,18
 461 551 461 551 411.5 576 c 128,-1,19
 362 601 362 601 296 601 c 0,20,21
 239 601 239 601 195 580 c 128,-1,22
 151 559 151 559 125.5 521.5 c 128,-1,23
 100 484 100 484 100 435 c 0,24,25
 100 391 100 391 120 354.5 c 128,-1,26
 140 318 140 318 171 298 c 1,27,28
 203 330 203 330 247 330 c 0,29,30
 297 330 297 330 325 283 c 1,31,32
 359 330 359 330 413 330 c 0,33,34
 462 330 462 330 488.5 286.5 c 128,-1,35
 515 243 515 243 515 174 c 0,36,37
 515 89 515 89 480.5 39.5 c 128,-1,38
 446 -10 446 -10 389 -10 c 0,39,40
 340 -10 340 -10 312 36 c 1,41,42
 278 -10 278 -10 223 -10 c 0,43,44
 174 -10 174 -10 147.5 33.5 c 128,-1,45
 121 77 121 77 121 146 c 0,0,1
183 168 m 0,46,47
 183 138 183 138 190.5 110 c 128,-1,48
 198 82 198 82 211 63.5 c 128,-1,49
 224 45 224 45 242 45 c 0,50,51
 264 45 264 45 275.5 74.5 c 128,-1,52
 287 104 287 104 287 150 c 0,53,54
 287 181 287 181 279.5 209.5 c 128,-1,55
 272 238 272 238 259 256.5 c 128,-1,56
 246 275 246 275 227 275 c 0,57,58
 206 275 206 275 194.5 245 c 128,-1,59
 183 215 183 215 183 168 c 0,46,47
349 168 m 0,60,61
 349 138 349 138 356.5 110 c 128,-1,62
 364 82 364 82 377 63.5 c 128,-1,63
 390 45 390 45 408 45 c 0,64,65
 430 45 430 45 441.5 74.5 c 128,-1,66
 453 104 453 104 453 150 c 0,67,68
 453 181 453 181 445.5 209.5 c 128,-1,69
 438 238 438 238 425 256.5 c 128,-1,70
 412 275 412 275 393 275 c 0,71,72
 372 275 372 275 360.5 245 c 128,-1,73
 349 215 349 215 349 168 c 0,60,61
EndSplineSet
Ligature2: "'pres' Pre Base Substitutions lookup 45 subtable" caorya casubscriptorya
EndChar

StartChar: cachaorya
Encoding: 65555 -1 71
Width: 623
GlyphClass: 2
Flags: W
AnchorPoint: "+BBEENQQ3BEsEPARPBD0EPQQ+BDUA--5" 479 48 basechar 0
AnchorPoint: "+BBEENQQ3BEsEPARPBD0EPQQ+BDUA--3" 302 44 basechar 0
AnchorPoint: "+BBEENQQ3BEsEPARPBD0EPQQ+BDUA--2" 315 657 basechar 0
LayerCount: 2
Fore
SplineSet
111 263 m 0,0,1
 111 272 111 272 111 280 c 1,2,3
 70 313 70 313 51 356 c 128,-1,4
 32 399 32 399 32 442 c 0,5,6
 32 503 32 503 65.5 554 c 128,-1,7
 99 605 99 605 160 636 c 128,-1,8
 221 667 221 667 303 667 c 0,9,10
 366 667 366 667 414.5 651.5 c 128,-1,11
 463 636 463 636 498 612.5 c 128,-1,12
 533 589 533 589 558 563 c 128,-1,13
 583 537 583 537 600 516 c 1,14,-1
 553 467 l 1,15,-1
 543 467 l 1,16,17
 525 494 525 494 490.5 525 c 128,-1,18
 456 556 456 556 405.5 578.5 c 128,-1,19
 355 601 355 601 287 601 c 0,20,21
 232 601 232 601 189.5 581.5 c 128,-1,22
 147 562 147 562 123.5 528.5 c 128,-1,23
 100 495 100 495 100 453 c 0,24,25
 100 430 100 430 107.5 407.5 c 128,-1,26
 115 385 115 385 130 367 c 1,27,28
 146 405 146 405 173.5 426 c 128,-1,29
 201 447 201 447 237 447 c 0,30,31
 287 447 287 447 315 400 c 1,32,33
 349 447 349 447 403 447 c 0,34,35
 452 447 452 447 478.5 403.5 c 128,-1,36
 505 360 505 360 505 291 c 0,37,38
 505 206 505 206 470.5 156.5 c 128,-1,39
 436 107 436 107 379 107 c 0,40,41
 330 107 330 107 302 153 c 1,42,43
 268 107 268 107 213 107 c 0,44,45
 164 107 164 107 137.5 150.5 c 128,-1,46
 111 194 111 194 111 263 c 0,0,1
173 285 m 0,47,48
 173 255 173 255 180.5 226.5 c 128,-1,49
 188 198 188 198 201 180 c 128,-1,50
 214 162 214 162 232 162 c 0,51,52
 254 162 254 162 265.5 191.5 c 128,-1,53
 277 221 277 221 277 267 c 0,54,55
 277 298 277 298 269.5 326.5 c 128,-1,56
 262 355 262 355 249 373.5 c 128,-1,57
 236 392 236 392 217 392 c 0,58,59
 196 392 196 392 184.5 362 c 128,-1,60
 173 332 173 332 173 285 c 0,47,48
339 285 m 0,61,62
 339 255 339 255 346.5 226.5 c 128,-1,63
 354 198 354 198 367 180 c 128,-1,64
 380 162 380 162 398 162 c 0,65,66
 420 162 420 162 431.5 191.5 c 128,-1,67
 443 221 443 221 443 267 c 0,68,69
 443 298 443 298 435.5 326.5 c 128,-1,70
 428 355 428 355 415 373.5 c 128,-1,71
 402 392 402 392 383 392 c 0,72,73
 362 392 362 392 350.5 362 c 128,-1,74
 339 332 339 332 339 285 c 0,61,62
434 -105 m 0,75,76
 401 -105 401 -105 370.5 -87.5 c 128,-1,77
 340 -70 340 -70 312 -43 c 1,78,79
 285 -72 285 -72 250.5 -89.5 c 128,-1,80
 216 -107 216 -107 179 -107 c 0,81,82
 133 -107 133 -107 102.5 -80.5 c 128,-1,83
 72 -54 72 -54 72 -10 c 0,84,85
 72 35 72 35 105 64.5 c 128,-1,86
 138 94 138 94 186 94 c 0,87,88
 219 94 219 94 250 78 c 128,-1,89
 281 62 281 62 314 33 c 1,90,91
 340 59 340 59 372.5 77 c 128,-1,92
 405 95 405 95 444 95 c 0,93,94
 489 95 489 95 518.5 68.5 c 128,-1,95
 548 42 548 42 548 -1 c 0,96,97
 548 -48 548 -48 514 -76.5 c 128,-1,98
 480 -105 480 -105 434 -105 c 0,75,76
428 38 m 0,99,100
 385 38 385 38 349 1 c 1,101,102
 374 -22 374 -22 397.5 -36 c 128,-1,103
 421 -50 421 -50 443 -50 c 0,104,105
 464 -50 464 -50 477 -40 c 128,-1,106
 490 -30 490 -30 490 -14 c 0,107,108
 490 7 490 7 471.5 22.5 c 128,-1,109
 453 38 453 38 428 38 c 0,99,100
129 -1 m 0,110,111
 129 -19 129 -19 147.5 -34.5 c 128,-1,112
 166 -50 166 -50 194 -50 c 0,113,114
 214 -50 214 -50 236.5 -39 c 128,-1,115
 259 -28 259 -28 276 -9 c 1,116,117
 251 13 251 13 226.5 25.5 c 128,-1,118
 202 38 202 38 179 38 c 256,119,120
 156 38 156 38 142.5 27 c 128,-1,121
 129 16 129 16 129 -1 c 0,110,111
EndSplineSet
Ligature2: "'pres' Pre Base Substitutions lookup 45 subtable" caorya chasubscriptorya
EndChar

StartChar: dabhaorya
Encoding: 65562 -1 78
Width: 729
GlyphClass: 2
Flags: W
AnchorPoint: "+BBEENQQ3BEsEPARPBD0EPQQ+BDUA--5" 443 0 basechar 0
AnchorPoint: "+BBEENQQ3BEsEPARPBD0EPQQ+BDUA--3" 347 0 basechar 0
AnchorPoint: "+BBEENQQ3BEsEPARPBD0EPQQ+BDUA--2" 361 657 basechar 0
LayerCount: 2
Fore
SplineSet
93 155 m 0,0,1
 93 185 93 185 101 217 c 1,2,3
 67 256 67 256 49.5 305 c 128,-1,4
 32 354 32 354 32 404 c 0,5,6
 32 476 32 476 70 536 c 128,-1,7
 108 596 108 596 178.5 631.5 c 128,-1,8
 249 667 249 667 346 667 c 0,9,10
 447 667 447 667 522.5 630 c 128,-1,11
 598 593 598 593 640 527.5 c 128,-1,12
 682 462 682 462 682 375 c 0,13,14
 682 302 682 302 657 241 c 128,-1,15
 632 180 632 180 600 129 c 1,16,-1
 727 9 l 1,17,-1
 681 -35 l 1,18,-1
 667 -35 l 1,19,-1
 546 100 l 1,20,-1
 546 125 l 1,21,22
 571 172 571 172 591 234 c 128,-1,23
 611 296 611 296 611 360 c 0,24,25
 611 439 611 439 574 492.5 c 128,-1,26
 537 546 537 546 474 573.5 c 128,-1,27
 411 601 411 601 334 601 c 0,28,29
 262 601 262 601 209.5 577.5 c 128,-1,30
 157 554 157 554 128.5 512 c 128,-1,31
 100 470 100 470 100 416 c 0,32,33
 100 350 100 350 135 304 c 1,34,35
 146 324 146 324 159 345 c 128,-1,36
 172 366 172 366 186 387 c 1,37,-1
 230 356 l 1,38,39
 194 296 194 296 177.5 254 c 128,-1,40
 161 212 161 212 161 171 c 0,41,42
 161 121 161 121 202 88 c 128,-1,43
 243 55 243 55 328 55 c 0,44,45
 396 55 396 55 432.5 78 c 128,-1,46
 469 101 469 101 469 150 c 0,47,48
 469 156 469 156 469 161 c 1,49,50
 457 150 457 150 443 143 c 128,-1,51
 429 136 429 136 413 136 c 0,52,53
 382 136 382 136 363 162 c 1,54,55
 350 151 350 151 332.5 143.5 c 128,-1,56
 315 136 315 136 296 136 c 0,57,58
 268 136 268 136 249 157.5 c 128,-1,59
 230 179 230 179 230 216 c 0,60,61
 230 246 230 246 242.5 276.5 c 128,-1,62
 255 307 255 307 270 335 c 1,63,-1
 312 312 l 1,64,65
 299 278 299 278 293.5 259.5 c 128,-1,66
 288 241 288 241 288 227 c 0,67,68
 288 212 288 212 295.5 200 c 128,-1,69
 303 188 303 188 322 188 c 0,70,71
 330 188 330 188 336.5 189.5 c 128,-1,72
 343 191 343 191 349 194 c 1,73,74
 347 204 347 204 347 217 c 0,75,76
 347 243 347 243 351.5 270.5 c 128,-1,77
 356 298 356 298 361 323 c 1,78,-1
 411 320 l 1,79,80
 407 296 407 296 404 273.5 c 128,-1,81
 401 251 401 251 401 234 c 0,82,83
 401 193 401 193 432 193 c 0,84,85
 447 193 447 193 466 205 c 1,86,87
 461 267 461 267 450 324 c 1,88,-1
 512 339 l 1,89,90
 520 292 520 292 523.5 244.5 c 128,-1,91
 527 197 527 197 527 159 c 0,92,93
 527 77 527 77 473.5 33.5 c 128,-1,94
 420 -10 420 -10 311 -10 c 0,95,96
 248 -10 248 -10 199 10 c 128,-1,97
 150 30 150 30 121.5 67.5 c 128,-1,98
 93 105 93 105 93 155 c 0,0,1
EndSplineSet
Ligature2: "'pres' Pre Base Substitutions lookup 45 subtable" daorya bhasubscriptorya
EndChar

StartChar: dadaorya
Encoding: 65563 -1 79
Width: 625
GlyphClass: 2
Flags: W
AnchorPoint: "+BBEENQQ3BEsEPARPBD0EPQQ+BDUA--5" 495 0 basechar 0
AnchorPoint: "+BBEENQQ3BEsEPARPBD0EPQQ+BDUA--3" 329 0 basechar 0
AnchorPoint: "+BBEENQQ3BEsEPARPBD0EPQQ+BDUA--2" 329 657 basechar 0
AnchorPoint: "+BBEENQQ3BEsEPARPBD0EPQQ+BDUA--0" 502 657 basechar 0
LayerCount: 2
Fore
SplineSet
87 180 m 0,0,1
 87 211 87 211 101 244 c 1,2,3
 67 285 67 285 49.5 331.5 c 128,-1,4
 32 378 32 378 32 424 c 0,5,6
 32 492 32 492 67.5 547 c 128,-1,7
 103 602 103 602 166 634.5 c 128,-1,8
 229 667 229 667 311 667 c 0,9,10
 373 667 373 667 421 649.5 c 128,-1,11
 469 632 469 632 505.5 605.5 c 128,-1,12
 542 579 542 579 568.5 550 c 128,-1,13
 595 521 595 521 614 498 c 1,14,-1
 565 446 l 1,15,-1
 555 446 l 1,16,17
 532 479 532 479 496.5 515 c 128,-1,18
 461 551 461 551 411.5 576 c 128,-1,19
 362 601 362 601 296 601 c 0,20,21
 239 601 239 601 195 580 c 128,-1,22
 151 559 151 559 125.5 521.5 c 128,-1,23
 100 484 100 484 100 435 c 0,24,25
 100 400 100 400 113 369.5 c 128,-1,26
 126 339 126 339 147 318 c 1,27,28
 169 345 169 345 199 371 c 1,29,-1
 237 333 l 1,30,31
 191 288 191 288 173.5 253 c 128,-1,32
 156 218 156 218 156 192 c 256,33,34
 156 166 156 166 171.5 151 c 128,-1,35
 187 136 187 136 208 136 c 0,36,37
 232 136 232 136 246.5 148 c 128,-1,38
 261 160 261 160 271 174 c 1,39,-1
 271 272 l 1,40,-1
 327 284 l 1,41,-1
 334 277 l 1,42,-1
 334 212 l 2,43,44
 334 170 334 170 345.5 153 c 128,-1,45
 357 136 357 136 375 136 c 0,46,47
 403 136 403 136 429 181 c 1,48,-1
 429 306 l 1,49,-1
 489 321 l 1,50,-1
 496 314 l 1,51,-1
 496 8 l 1,52,-1
 436 -7 l 1,53,-1
 429 0 l 1,54,-1
 429 110 l 1,55,56
 403 73 403 73 357 73 c 0,57,58
 332 73 332 73 314.5 85.5 c 128,-1,59
 297 98 297 98 283 122 c 1,60,61
 265 100 265 100 241 86.5 c 128,-1,62
 217 73 217 73 188 73 c 0,63,64
 144 73 144 73 115.5 103.5 c 128,-1,65
 87 134 87 134 87 180 c 0,0,1
EndSplineSet
Ligature2: "'pres' Pre Base Substitutions lookup 45 subtable" daorya dasubscriptorya
EndChar

StartChar: dadhaorya
Encoding: 65564 -1 80
Width: 625
GlyphClass: 2
Flags: W
AnchorPoint: "+BBEENQQ3BEsEPARPBD0EPQQ+BDUA--5" 495 0 basechar 0
AnchorPoint: "+BBEENQQ3BEsEPARPBD0EPQQ+BDUA--3" 331 0 basechar 0
AnchorPoint: "+BBEENQQ3BEsEPARPBD0EPQQ+BDUA--2" 331 657 basechar 0
AnchorPoint: "+BBEENQQ3BEsEPARPBD0EPQQ+BDUA--0" 502 657 basechar 0
LayerCount: 2
Fore
SplineSet
87 180 m 0,0,1
 87 211 87 211 101 244 c 1,2,3
 67 285 67 285 49.5 331.5 c 128,-1,4
 32 378 32 378 32 424 c 0,5,6
 32 492 32 492 67.5 547 c 128,-1,7
 103 602 103 602 166 634.5 c 128,-1,8
 229 667 229 667 311 667 c 0,9,10
 373 667 373 667 421 649.5 c 128,-1,11
 469 632 469 632 505.5 605.5 c 128,-1,12
 542 579 542 579 568.5 550 c 128,-1,13
 595 521 595 521 614 498 c 1,14,-1
 565 446 l 1,15,-1
 555 446 l 1,16,17
 532 479 532 479 496.5 515 c 128,-1,18
 461 551 461 551 411.5 576 c 128,-1,19
 362 601 362 601 296 601 c 0,20,21
 266 601 266 601 238 595 c 1,22,-1
 462 314 l 1,23,-1
 489 321 l 1,24,-1
 496 314 l 1,25,-1
 496 8 l 1,26,-1
 436 -7 l 1,27,-1
 429 0 l 1,28,-1
 429 110 l 1,29,30
 403 73 403 73 357 73 c 0,31,32
 332 73 332 73 314.5 85.5 c 128,-1,33
 297 98 297 98 283 122 c 1,34,35
 265 100 265 100 241 86.5 c 128,-1,36
 217 73 217 73 188 73 c 0,37,38
 144 73 144 73 115.5 103.5 c 128,-1,39
 87 134 87 134 87 180 c 0,0,1
334 212 m 2,40,41
 334 170 334 170 345.5 153 c 128,-1,42
 357 136 357 136 375 136 c 0,43,44
 403 136 403 136 429 181 c 1,45,-1
 429 266 l 1,46,-1
 183 574 l 1,47,48
 145 552 145 552 122.5 516.5 c 128,-1,49
 100 481 100 481 100 435 c 0,50,51
 100 400 100 400 113 369.5 c 128,-1,52
 126 339 126 339 147 318 c 1,53,54
 169 345 169 345 199 371 c 1,55,-1
 237 333 l 1,56,57
 191 288 191 288 173.5 253 c 128,-1,58
 156 218 156 218 156 192 c 256,59,60
 156 166 156 166 171.5 151 c 128,-1,61
 187 136 187 136 208 136 c 0,62,63
 232 136 232 136 246.5 148 c 128,-1,64
 261 160 261 160 271 174 c 1,65,-1
 271 272 l 1,66,-1
 327 284 l 1,67,-1
 334 277 l 1,68,-1
 334 212 l 2,40,41
EndSplineSet
Ligature2: "'pres' Pre Base Substitutions lookup 45 subtable" daorya dhasubscriptorya
Ligature2: "'akhn' Akhand lookup 37 subtable" daorya viramaorya dhaorya
Ligature2: "+BB8EPgQ0BEEEQgQwBD0EPgQyBDoEMAAA +BDsEOAQzBDAEQgRDBEAESwAA lookup 10 subtable" daorya dhasubscriptorya
EndChar

StartChar: dagaorya
Encoding: 65565 -1 81
Width: 623
GlyphClass: 2
Flags: W
AnchorPoint: "+BBEENQQ3BEsEPARPBD0EPQQ+BDUA--5" 519 0 basechar 0
AnchorPoint: "+BBEENQQ3BEsEPARPBD0EPQQ+BDUA--3" 281 0 basechar 0
AnchorPoint: "+BBEENQQ3BEsEPARPBD0EPQQ+BDUA--2" 302 657 basechar 0
AnchorPoint: "+BBEENQQ3BEsEPARPBD0EPQQ+BDUA--0" 495 657 basechar 0
LayerCount: 2
Fore
SplineSet
112 274 m 0,0,1
 112 281 112 281 113 286 c 1,2,3
 69 322 69 322 50.5 364.5 c 128,-1,4
 32 407 32 407 32 447 c 0,5,6
 32 507 32 507 64 557 c 128,-1,7
 96 607 96 607 155.5 637 c 128,-1,8
 215 667 215 667 295 667 c 0,9,10
 360 667 360 667 409.5 652 c 128,-1,11
 459 637 459 637 496 613 c 128,-1,12
 533 589 533 589 558.5 563 c 128,-1,13
 584 537 584 537 600 516 c 1,14,-1
 553 467 l 1,15,-1
 543 467 l 1,16,17
 524 495 524 495 489 526 c 128,-1,18
 454 557 454 557 402 579 c 128,-1,19
 350 601 350 601 280 601 c 0,20,21
 199 601 199 601 149.5 560.5 c 128,-1,22
 100 520 100 520 100 458 c 0,23,24
 100 434 100 434 110.5 409.5 c 128,-1,25
 121 385 121 385 148 366 c 1,26,27
 159 380 159 380 172 392.5 c 128,-1,28
 185 405 185 405 200 418 c 1,29,-1
 239 380 l 1,30,31
 208 355 208 355 192 333.5 c 128,-1,32
 176 312 176 312 176 289 c 0,33,34
 176 261 176 261 196.5 244.5 c 128,-1,35
 217 228 217 228 251 228 c 0,36,37
 279 228 279 228 304.5 238 c 128,-1,38
 330 248 330 248 350 261 c 1,39,-1
 350 365 l 1,40,-1
 410 380 l 1,41,-1
 417 373 l 1,42,-1
 417 123 l 1,43,44
 442 107 442 107 460 85 c 1,45,-1
 460 139 l 1,46,-1
 512 153 l 1,47,-1
 519 146 l 1,48,-1
 519 -204 l 1,49,-1
 467 -218 l 1,50,-1
 460 -211 l 1,51,-1
 460 -23 l 1,52,53
 438 32 438 32 395.5 60.5 c 128,-1,54
 353 89 353 89 306 89 c 0,55,56
 270 89 270 89 245 72.5 c 128,-1,57
 220 56 220 56 220 27 c 0,58,59
 220 2 220 2 239 -20 c 1,60,61
 266 -4 266 -4 299 -4 c 0,62,63
 346 -4 346 -4 374 -35.5 c 128,-1,64
 402 -67 402 -67 402 -108 c 0,65,66
 402 -132 402 -132 390 -157.5 c 128,-1,67
 378 -183 378 -183 353.5 -200 c 128,-1,68
 329 -217 329 -217 293 -217 c 0,69,70
 248 -217 248 -217 217.5 -186.5 c 128,-1,71
 187 -156 187 -156 187 -112 c 0,72,73
 187 -92 187 -92 194 -74 c 1,74,75
 163 -32 163 -32 163 16 c 0,76,77
 163 54 163 54 183.5 84.5 c 128,-1,78
 204 115 204 115 239 133 c 128,-1,79
 274 151 274 151 318 151 c 0,80,81
 334 151 334 151 350 148 c 1,82,-1
 350 204 l 1,83,84
 326 187 326 187 296.5 176.5 c 128,-1,85
 267 166 267 166 234 166 c 0,86,87
 179 166 179 166 145.5 197 c 128,-1,88
 112 228 112 228 112 274 c 0,0,1
244 -98 m 0,89,90
 244 -122 244 -122 262 -140.5 c 128,-1,91
 280 -159 280 -159 306 -159 c 0,92,93
 323 -159 323 -159 334.5 -149.5 c 128,-1,94
 346 -140 346 -140 346 -121 c 0,95,96
 346 -97 346 -97 328 -78.5 c 128,-1,97
 310 -60 310 -60 284 -60 c 0,98,99
 268 -60 268 -60 256 -69 c 128,-1,100
 244 -78 244 -78 244 -98 c 0,89,90
EndSplineSet
Ligature2: "'pres' Pre Base Substitutions lookup 45 subtable" daorya gasubscriptorya
Ligature2: "'akhn' Akhand lookup 37 subtable" daorya viramaorya gaorya
MultipleSubs2: "+BBwEPQQ+BDYENQRBBEIEMgQ1BD0EPQQwBE8A +BD8EPgQ0BEEEQgQwBD0EPgQyBDoEMAAA lookup 24 subtable" dahalforya gaorya
Ligature2: "+BB8EPgQ0BEEEQgQwBD0EPgQyBDoEMAAA +BDsEOAQzBDAEQgRDBEAESwAA lookup 11 subtable" daorya gasubscriptorya
Ligature2: "+BB8EPgQ0BEEEQgQwBD0EPgQyBDoEMAAA +BDsEOAQzBDAEQgRDBEAESwAA lookup 10 subtable" daorya gasubscriptorya
EndChar

StartChar: ddaddaorya
Encoding: 65569 -1 85
Width: 625
GlyphClass: 2
Flags: W
AnchorPoint: "+BBEENQQ3BEsEPARPBD0EPQQ+BDUA--5" 457 0 basechar 0
AnchorPoint: "+BBEENQQ3BEsEPARPBD0EPQQ+BDUA--3" 314 0 basechar 0
AnchorPoint: "+BBEENQQ3BEsEPARPBD0EPQQ+BDUA--2" 309 657 basechar 0
AnchorPoint: "+BBEENQQ3BEsEPARPBD0EPQQ+BDUA--1" 389 -49 basechar 0
AnchorPoint: "+BBEENQQ3BEsEPARPBD0EPQQ+BDUA--0" 497 657 basechar 0
LayerCount: 2
Fore
SplineSet
139 234 m 0,0,1
 139 237 139 237 139 240 c 0,2,3
 83 280 83 280 57.5 333 c 128,-1,4
 32 386 32 386 32 437 c 0,5,6
 32 501 32 501 66 553 c 128,-1,7
 100 605 100 605 162 636 c 128,-1,8
 224 667 224 667 308 667 c 0,9,10
 386 667 386 667 443 642.5 c 128,-1,11
 500 618 500 618 539 583 c 128,-1,12
 578 548 578 548 602 516 c 1,13,-1
 555 467 l 1,14,-1
 545 467 l 1,15,16
 522 500 522 500 485 531 c 128,-1,17
 448 562 448 562 399.5 581.5 c 128,-1,18
 351 601 351 601 292 601 c 0,19,20
 235 601 235 601 192 581.5 c 128,-1,21
 149 562 149 562 124.5 527.5 c 128,-1,22
 100 493 100 493 100 448 c 0,23,24
 100 411 100 411 117 378.5 c 128,-1,25
 134 346 134 346 164 324 c 1,26,27
 182 358 182 358 210.5 390 c 128,-1,28
 239 422 239 422 271 451 c 1,29,-1
 305 416 l 1,30,31
 257 370 257 370 227.5 326.5 c 128,-1,32
 198 283 198 283 198 247 c 0,33,34
 198 203 198 203 233.5 177 c 128,-1,35
 269 151 269 151 333 151 c 0,36,37
 378 151 378 151 410.5 167 c 128,-1,38
 443 183 443 183 443 207 c 0,39,40
 443 232 443 232 420 257.5 c 128,-1,41
 397 283 397 283 358 302 c 1,42,43
 341 286 341 286 322 271 c 1,44,-1
 296 294 l 1,45,46
 333 332 333 332 367 370 c 128,-1,47
 401 408 401 408 429 441 c 1,48,-1
 464 407 l 1,49,50
 440 379 440 379 411 351 c 1,51,52
 456 313 456 313 476.5 277.5 c 128,-1,53
 497 242 497 242 497 210 c 0,54,55
 497 181 497 181 479.5 155.5 c 128,-1,56
 462 130 462 130 429 113 c 1,57,58
 467 86 467 86 496 41 c 1,59,-1
 452 -8 l 1,60,-1
 442 -8 l 1,61,62
 419 37 419 37 382 64 c 128,-1,63
 345 91 345 91 300 91 c 0,64,65
 269 91 269 91 246.5 74 c 128,-1,66
 224 57 224 57 224 25 c 0,67,68
 224 -8 224 -8 246 -29 c 1,69,70
 255 -20 255 -20 265 -10.5 c 128,-1,71
 275 -1 275 -1 286 9 c 1,72,-1
 314 -21 l 1,73,74
 283 -49 283 -49 268 -66 c 128,-1,75
 253 -83 253 -83 253 -105 c 256,76,77
 253 -127 253 -127 273.5 -144 c 128,-1,78
 294 -161 294 -161 332 -161 c 0,79,80
 357 -161 357 -161 371.5 -152.5 c 128,-1,81
 386 -144 386 -144 386 -131 c 0,82,83
 386 -119 386 -119 375.5 -110.5 c 128,-1,84
 365 -102 365 -102 351 -98 c 1,85,86
 338 -108 338 -108 324 -117 c 1,87,-1
 305 -94 l 1,88,89
 329 -68 329 -68 352 -46 c 128,-1,90
 375 -24 375 -24 394 -2 c 1,91,-1
 429 -35 l 1,92,93
 416 -46 416 -46 404 -57 c 1,94,95
 440 -88 440 -88 440 -124 c 0,96,97
 440 -162 440 -162 407.5 -190 c 128,-1,98
 375 -218 375 -218 318 -218 c 0,99,100
 262 -218 262 -218 229.5 -193 c 128,-1,101
 197 -168 197 -168 197 -129 c 0,102,103
 197 -110 197 -110 204 -92 c 1,104,105
 184 -70 184 -70 174.5 -44 c 128,-1,106
 165 -18 165 -18 165 7 c 0,107,108
 165 39 165 39 177.5 66.5 c 128,-1,109
 190 94 190 94 211 113 c 1,110,111
 139 150 139 150 139 234 c 0,0,1
EndSplineSet
Ligature2: "'pres' Pre Base Substitutions lookup 45 subtable" ddaorya ddasubscriptorya
Ligature2: "'akhn' Akhand lookup 37 subtable" ddaorya viramaorya ddaorya
MultipleSubs2: "+BBwEPQQ+BDYENQRBBEIEMgQ1BD0EPQQwBE8A +BD8EPgQ0BEEEQgQwBD0EPgQyBDoEMAAA lookup 24 subtable" ddahalforya ddaorya
Ligature2: "+BB8EPgQ0BEEEQgQwBD0EPgQyBDoEMAAA +BDsEOAQzBDAEQgRDBEAESwAA lookup 11 subtable" ddaorya ddasubscriptorya
Ligature2: "+BB8EPgQ0BEEEQgQwBD0EPgQyBDoEMAAA +BDsEOAQzBDAEQgRDBEAESwAA lookup 10 subtable" ddaorya ddasubscriptorya
EndChar

StartChar: ddagaorya
Encoding: 65570 -1 86
Width: 625
GlyphClass: 2
Flags: W
AnchorPoint: "+BBEENQQ3BEsEPARPBD0EPQQ+BDUA--5" 568 0 basechar 0
AnchorPoint: "+BBEENQQ3BEsEPARPBD0EPQQ+BDUA--3" 347 0 basechar 0
AnchorPoint: "+BBEENQQ3BEsEPARPBD0EPQQ+BDUA--2" 312 657 basechar 0
AnchorPoint: "+BBEENQQ3BEsEPARPBD0EPQQ+BDUA--1" 531 -49 basechar 0
AnchorPoint: "+BBEENQQ3BEsEPARPBD0EPQQ+BDUA--0" 500 657 basechar 0
LayerCount: 2
Fore
SplineSet
136 238 m 0,0,1
 136 241 136 241 136 242 c 0,2,3
 81 282 81 282 56.5 334 c 128,-1,4
 32 386 32 386 32 437 c 0,5,6
 32 501 32 501 66 553 c 128,-1,7
 100 605 100 605 162 636 c 128,-1,8
 224 667 224 667 308 667 c 0,9,10
 386 667 386 667 443 642.5 c 128,-1,11
 500 618 500 618 539 583 c 128,-1,12
 578 548 578 548 602 516 c 1,13,-1
 555 467 l 1,14,-1
 545 467 l 1,15,16
 522 500 522 500 485 531 c 128,-1,17
 448 562 448 562 399.5 581.5 c 128,-1,18
 351 601 351 601 292 601 c 0,19,20
 235 601 235 601 192 581.5 c 128,-1,21
 149 562 149 562 124.5 527.5 c 128,-1,22
 100 493 100 493 100 448 c 0,23,24
 100 412 100 412 116 380.5 c 128,-1,25
 132 349 132 349 160 327 c 1,26,27
 179 362 179 362 208.5 396 c 128,-1,28
 238 430 238 430 272 460 c 1,29,-1
 308 425 l 1,30,31
 257 377 257 377 227 332.5 c 128,-1,32
 197 288 197 288 197 251 c 0,33,34
 197 205 197 205 233.5 179 c 128,-1,35
 270 153 270 153 336 153 c 0,36,37
 382 153 382 153 415.5 169.5 c 128,-1,38
 449 186 449 186 449 210 c 0,39,40
 449 235 449 235 425 261.5 c 128,-1,41
 401 288 401 288 362 307 c 1,42,43
 344 292 344 292 325 275 c 1,44,-1
 298 299 l 1,45,46
 335 339 335 339 370 377.5 c 128,-1,47
 405 416 405 416 434 451 c 1,48,-1
 470 415 l 1,49,50
 445 387 445 387 416 358 c 1,51,52
 462 319 462 319 483 282.5 c 128,-1,53
 504 246 504 246 504 213 c 0,54,55
 504 163 504 163 457 128 c 1,56,57
 472 120 472 120 485 109.5 c 128,-1,58
 498 99 498 99 509 85 c 1,59,-1
 509 139 l 1,60,-1
 561 153 l 1,61,-1
 568 146 l 1,62,-1
 568 -204 l 1,63,-1
 516 -218 l 1,64,-1
 509 -211 l 1,65,-1
 509 -23 l 1,66,67
 487 32 487 32 444.5 60.5 c 128,-1,68
 402 89 402 89 355 89 c 0,69,70
 319 89 319 89 294 72.5 c 128,-1,71
 269 56 269 56 269 27 c 0,72,73
 269 2 269 2 288 -20 c 1,74,75
 315 -4 315 -4 348 -4 c 0,76,77
 395 -4 395 -4 423 -35.5 c 128,-1,78
 451 -67 451 -67 451 -108 c 0,79,80
 451 -132 451 -132 439 -157.5 c 128,-1,81
 427 -183 427 -183 402.5 -200 c 128,-1,82
 378 -217 378 -217 342 -217 c 0,83,84
 297 -217 297 -217 266.5 -186.5 c 128,-1,85
 236 -156 236 -156 236 -112 c 0,86,87
 236 -92 236 -92 243 -74 c 1,88,89
 212 -32 212 -32 212 16 c 256,90,91
 212 64 212 64 245 100 c 1,92,93
 136 131 136 131 136 238 c 0,0,1
293 -98 m 0,94,95
 293 -122 293 -122 311 -140.5 c 128,-1,96
 329 -159 329 -159 355 -159 c 0,97,98
 372 -159 372 -159 383.5 -149.5 c 128,-1,99
 395 -140 395 -140 395 -121 c 0,100,101
 395 -97 395 -97 377 -78.5 c 128,-1,102
 359 -60 359 -60 333 -60 c 0,103,104
 317 -60 317 -60 305 -69 c 128,-1,105
 293 -78 293 -78 293 -98 c 0,94,95
EndSplineSet
Ligature2: "'pres' Pre Base Substitutions lookup 45 subtable" ddaorya gasubscriptorya
Ligature2: "'akhn' Akhand lookup 37 subtable" ddaorya viramaorya gaorya
MultipleSubs2: "+BBwEPQQ+BDYENQRBBEIEMgQ1BD0EPQQwBE8A +BD8EPgQ0BEEEQgQwBD0EPgQyBDoEMAAA lookup 24 subtable" ddahalforya gaorya
Ligature2: "+BB8EPgQ0BEEEQgQwBD0EPgQyBDoEMAAA +BDsEOAQzBDAEQgRDBEAESwAA lookup 11 subtable" ddaorya gasubscriptorya
Ligature2: "+BB8EPgQ0BEEEQgQwBD0EPgQyBDoEMAAA +BDsEOAQzBDAEQgRDBEAESwAA lookup 10 subtable" ddaorya gasubscriptorya
EndChar

StartChar: dhayapostorya
Encoding: 65576 -1 92
Width: 584
GlyphClass: 2
Flags: W
AnchorPoint: "+BBEENQQ3BEsEPARPBD0EPQQ+BDUA--5" 523 0 basechar 0
AnchorPoint: "+BBEENQQ3BEsEPARPBD0EPQQ+BDUA--2" 288 657 basechar 0
AnchorPoint: "+BBEENQQ3BEsEPARPBD0EPQQ+BDUA--0" 456 657 basechar 0
LayerCount: 2
Fore
SplineSet
199 162 m 0,0,1
 199 179 199 179 203 195 c 1,2,3
 153 197 153 197 114.5 216.5 c 128,-1,4
 76 236 76 236 54 270 c 128,-1,5
 32 304 32 304 32 347 c 0,6,7
 32 395 32 395 62.5 440.5 c 128,-1,8
 93 486 93 486 173 522 c 1,9,10
 153 545 153 545 133.5 569 c 128,-1,11
 114 593 114 593 95 617 c 1,12,-1
 134 663 l 1,13,-1
 145 663 l 1,14,15
 183 612 183 612 227.5 556 c 128,-1,16
 272 500 272 500 319 438 c 1,17,-1
 288 404 l 1,18,-1
 277 404 l 1,19,20
 263 420 263 420 249.5 435 c 128,-1,21
 236 450 236 450 223 465 c 1,22,23
 157 455 157 455 128 423.5 c 128,-1,24
 99 392 99 392 99 359 c 0,25,26
 99 319 99 319 133 289.5 c 128,-1,27
 167 260 167 260 227 260 c 0,28,29
 231 260 231 260 234 260 c 0,30,31
 257 292 257 292 295 325 c 1,32,-1
 335 287 l 1,33,34
 303 253 303 253 285.5 226 c 128,-1,35
 268 199 268 199 268 173 c 0,36,37
 268 142 268 142 292.5 120.5 c 128,-1,38
 317 99 317 99 354 99 c 0,39,40
 382 99 382 99 409.5 112 c 128,-1,41
 437 125 437 125 456 148 c 1,42,-1
 456 650 l 1,43,-1
 516 664 l 1,44,-1
 523 657 l 1,45,-1
 523 7 l 1,46,-1
 463 -7 l 1,47,-1
 456 0 l 1,48,-1
 456 79 l 1,49,50
 406 34 406 34 340 34 c 0,51,52
 279 34 279 34 239 69 c 128,-1,53
 199 104 199 104 199 162 c 0,0,1
EndSplineSet
Ligature2: "'pres' Pre Base Substitutions lookup 45 subtable" dhaorya yapostorya
EndChar

StartChar: gadaorya
Encoding: 65577 -1 93
Width: 690
GlyphClass: 2
Flags: W
AnchorPoint: "+BBEENQQ3BEsEPARPBD0EPQQ+BDUA--5" 588 0 basechar 0
AnchorPoint: "+BBEENQQ3BEsEPARPBD0EPQQ+BDUA--3" 405 0 basechar 0
AnchorPoint: "+BBEENQQ3BEsEPARPBD0EPQQ+BDUA--2" 325 657 basechar 0
AnchorPoint: "+BBEENQQ3BEsEPARPBD0EPQQ+BDUA--0" 524 657 basechar 0
LayerCount: 2
Fore
SplineSet
108 158 m 0,0,1
 108 199 108 199 123 234 c 1,2,3
 79 273 79 273 55.5 323.5 c 128,-1,4
 32 374 32 374 32 427 c 0,5,6
 32 494 32 494 66 548 c 128,-1,7
 100 602 100 602 160.5 634.5 c 128,-1,8
 221 667 221 667 301 667 c 0,9,10
 434 667 434 667 523 574 c 1,11,-1
 523 650 l 1,12,-1
 583 664 l 1,13,-1
 590 657 l 1,14,-1
 590 116 l 1,15,16
 632 88 632 88 665 38 c 1,17,-1
 621 -11 l 1,18,-1
 611 -11 l 1,19,20
 588 34 588 34 551 61 c 128,-1,21
 514 88 514 88 469 88 c 0,22,23
 438 88 438 88 415.5 71 c 128,-1,24
 393 54 393 54 393 22 c 0,25,26
 393 -14 393 -14 419 -36 c 1,27,28
 432 -22 432 -22 450 -7 c 1,29,-1
 477 -40 l 1,30,31
 461 -54 461 -54 451 -68.5 c 128,-1,32
 441 -83 441 -83 441 -98 c 0,33,34
 441 -114 441 -114 451.5 -124 c 128,-1,35
 462 -134 462 -134 482 -134 c 0,36,37
 506 -134 506 -134 530 -117 c 1,38,-1
 530 -37 l 1,39,-1
 582 -23 l 1,40,-1
 589 -30 l 1,41,-1
 589 -208 l 1,42,-1
 537 -222 l 1,43,-1
 530 -215 l 1,44,-1
 530 -168 l 1,45,46
 517 -177 517 -177 501.5 -183.5 c 128,-1,47
 486 -190 486 -190 467 -190 c 0,48,49
 433 -190 433 -190 410.5 -168.5 c 128,-1,50
 388 -147 388 -147 388 -113 c 2,51,-1
 388 -110 l 1,52,53
 360 -86 360 -86 347 -55.5 c 128,-1,54
 334 -25 334 -25 334 4 c 2,55,-1
 334 5 l 1,56,57
 302 -10 302 -10 266 -10 c 0,58,59
 221 -10 221 -10 185.5 12 c 128,-1,60
 150 34 150 34 129 71.5 c 128,-1,61
 108 109 108 109 108 158 c 0,0,1
434 169 m 0,62,63
 434 154 434 154 432 140 c 1,64,65
 457 148 457 148 484 148 c 0,66,67
 504 148 504 148 523 144 c 1,68,-1
 523 481 l 1,69,70
 480 537 480 537 420.5 569 c 128,-1,71
 361 601 361 601 290 601 c 0,72,73
 232 601 232 601 189 579.5 c 128,-1,74
 146 558 146 558 123 522 c 128,-1,75
 100 486 100 486 100 440 c 0,76,77
 100 396 100 396 120.5 361.5 c 128,-1,78
 141 327 141 327 179 305 c 1,79,80
 222 337 222 337 276 337 c 0,81,82
 321 337 321 337 357 315 c 128,-1,83
 393 293 393 293 413.5 255 c 128,-1,84
 434 217 434 217 434 169 c 0,62,63
171 185 m 0,85,86
 171 146 171 146 187.5 115.5 c 128,-1,87
 204 85 204 85 230.5 67.5 c 128,-1,88
 257 50 257 50 287 50 c 0,89,90
 327 50 327 50 349 76.5 c 128,-1,91
 371 103 371 103 371 143 c 0,92,93
 371 182 371 182 354.5 212.5 c 128,-1,94
 338 243 338 243 312 260.5 c 128,-1,95
 286 278 286 278 255 278 c 0,96,97
 215 278 215 278 193 251.5 c 128,-1,98
 171 225 171 225 171 185 c 0,85,86
EndSplineSet
Ligature2: "'pres' Pre Base Substitutions lookup 45 subtable" gaorya dasubscriptorya
Ligature2: "'akhn' Akhand lookup 37 subtable" gaorya viramaorya daorya
MultipleSubs2: "+BBwEPQQ+BDYENQRBBEIEMgQ1BD0EPQQwBE8A +BD8EPgQ0BEEEQgQwBD0EPgQyBDoEMAAA lookup 24 subtable" gahalforya daorya
Ligature2: "+BB8EPgQ0BEEEQgQwBD0EPgQyBDoEMAAA +BDsEOAQzBDAEQgRDBEAESwAA lookup 11 subtable" gaorya dasubscriptorya
Ligature2: "+BB8EPgQ0BEEEQgQwBD0EPgQyBDoEMAAA +BDsEOAQzBDAEQgRDBEAESwAA lookup 10 subtable" gaorya dasubscriptorya
EndChar

StartChar: gadhaorya
Encoding: 65578 -1 94
Width: 665
GlyphClass: 2
Flags: W
AnchorPoint: "+BBEENQQ3BEsEPARPBD0EPQQ+BDUA--5" 604 0 basechar 0
AnchorPoint: "+BBEENQQ3BEsEPARPBD0EPQQ+BDUA--3" 370 0 basechar 0
AnchorPoint: "+BBEENQQ3BEsEPARPBD0EPQQ+BDUA--2" 328 657 basechar 0
AnchorPoint: "+BBEENQQ3BEsEPARPBD0EPQQ+BDUA--0" 527 657 basechar 0
LayerCount: 2
Fore
SplineSet
116 158 m 0,0,1
 116 196 116 196 129 229 c 1,2,3
 82 268 82 268 57 320 c 128,-1,4
 32 372 32 372 32 427 c 0,5,6
 32 494 32 494 66 548 c 128,-1,7
 100 602 100 602 160.5 634.5 c 128,-1,8
 221 667 221 667 301 667 c 0,9,10
 445 667 445 667 537 559 c 1,11,-1
 537 650 l 1,12,-1
 597 664 l 1,13,-1
 604 657 l 1,14,-1
 604 -266 l 1,15,-1
 544 -282 l 1,16,-1
 537 -275 l 1,17,-1
 537 -235 l 1,18,19
 517 -255 517 -255 487.5 -267.5 c 128,-1,20
 458 -280 458 -280 424 -280 c 0,21,22
 369 -280 369 -280 333.5 -247 c 128,-1,23
 298 -214 298 -214 298 -162 c 0,24,25
 298 -128 298 -128 317 -96 c 128,-1,26
 336 -64 336 -64 384 -41 c 1,27,28
 374 -29 374 -29 364 -17.5 c 128,-1,29
 354 -6 354 -6 345 6 c 1,30,31
 312 -10 312 -10 274 -10 c 0,32,33
 229 -10 229 -10 193.5 12 c 128,-1,34
 158 34 158 34 137 72 c 128,-1,35
 116 110 116 110 116 158 c 0,0,1
434 -224 m 0,36,37
 460 -224 460 -224 488.5 -211 c 128,-1,38
 517 -198 517 -198 537 -167 c 1,39,-1
 537 461 l 1,40,41
 494 526 494 526 430.5 563.5 c 128,-1,42
 367 601 367 601 290 601 c 0,43,44
 232 601 232 601 189 579.5 c 128,-1,45
 146 558 146 558 123 522 c 128,-1,46
 100 486 100 486 100 440 c 0,47,48
 100 395 100 395 122 359.5 c 128,-1,49
 144 324 144 324 183 302 c 1,50,51
 204 319 204 319 229.5 328 c 128,-1,52
 255 337 255 337 284 337 c 0,53,54
 329 337 329 337 365 315 c 128,-1,55
 401 293 401 293 421.5 255 c 128,-1,56
 442 217 442 217 442 169 c 0,57,58
 442 132 442 132 429.5 99.5 c 128,-1,59
 417 67 417 67 394 43 c 1,60,61
 419 9 419 9 447.5 -27.5 c 128,-1,62
 476 -64 476 -64 506 -105 c 1,63,-1
 478 -136 l 1,64,-1
 468 -136 l 1,65,66
 457 -123 457 -123 445.5 -111 c 128,-1,67
 434 -99 434 -99 424 -86 c 1,68,69
 387 -93 387 -93 370.5 -113 c 128,-1,70
 354 -133 354 -133 354 -156 c 0,71,72
 354 -184 354 -184 375.5 -204 c 128,-1,73
 397 -224 397 -224 434 -224 c 0,36,37
179 185 m 0,74,75
 179 146 179 146 195.5 115.5 c 128,-1,76
 212 85 212 85 238.5 67.5 c 128,-1,77
 265 50 265 50 295 50 c 0,78,79
 335 50 335 50 357 76.5 c 128,-1,80
 379 103 379 103 379 143 c 0,81,82
 379 182 379 182 362.5 212.5 c 128,-1,83
 346 243 346 243 320 260.5 c 128,-1,84
 294 278 294 278 263 278 c 0,85,86
 223 278 223 278 201 251.5 c 128,-1,87
 179 225 179 225 179 185 c 0,74,75
EndSplineSet
Ligature2: "'pres' Pre Base Substitutions lookup 45 subtable" gaorya dhasubscriptorya
Ligature2: "'akhn' Akhand lookup 37 subtable" gaorya viramaorya dhaorya
MultipleSubs2: "+BBwEPQQ+BDYENQRBBEIEMgQ1BD0EPQQwBE8A +BD8EPgQ0BEEEQgQwBD0EPgQyBDoEMAAA lookup 24 subtable" gahalforya dhaorya
Ligature2: "+BB8EPgQ0BEEEQgQwBD0EPgQyBDoEMAAA +BDsEOAQzBDAEQgRDBEAESwAA lookup 11 subtable" gaorya dhasubscriptorya
Ligature2: "+BB8EPgQ0BEEEQgQwBD0EPgQyBDoEMAAA +BDsEOAQzBDAEQgRDBEAESwAA lookup 10 subtable" gaorya dhasubscriptorya
EndChar

StartChar: gallaUIorya
Encoding: 65580 -1 96
Width: 675
GlyphClass: 2
Flags: W
AnchorPoint: "+BBEENQQ3BEsEPARPBD0EPQQ+BDUA--5" 672 0 basechar 0
AnchorPoint: "+BBEENQQ3BEsEPARPBD0EPQQ+BDUA--2" 331 657 basechar 0
LayerCount: 2
Fore
SplineSet
102 168 m 0,0,1
 102 207 102 207 116 241 c 1,2,3
 75 279 75 279 53.5 327.5 c 128,-1,4
 32 376 32 376 32 427 c 0,5,6
 32 494 32 494 66 548 c 128,-1,7
 100 602 100 602 160.5 634.5 c 128,-1,8
 221 667 221 667 301 667 c 0,9,10
 438 667 438 667 528 569 c 1,11,-1
 528 648 l 1,12,-1
 588 664 l 1,13,-1
 595 657 l 1,14,-1
 595 128 l 1,15,16
 631 128 631 128 651.5 97 c 128,-1,17
 672 66 672 66 672 11 c 2,18,-1
 672 -149 l 1,19,-1
 620 -160 l 1,20,-1
 608 -152 l 1,21,-1
 608 -15 l 2,22,23
 608 28 608 28 596 48 c 128,-1,24
 584 68 584 68 565 68 c 0,25,26
 552 68 552 68 539.5 58 c 128,-1,27
 527 48 527 48 527 30 c 2,28,-1
 527 -145 l 1,29,-1
 476 -161 l 1,30,-1
 464 -152 l 1,31,-1
 464 -22 l 2,32,33
 464 68 464 68 417 68 c 0,34,35
 400 68 400 68 387 52.5 c 128,-1,36
 374 37 374 37 374 -1 c 0,37,38
 374 -26 374 -26 379 -66 c 128,-1,39
 384 -106 384 -106 394 -144 c 1,40,-1
 336 -159 l 1,41,-1
 326 -150 l 1,42,43
 319 -112 319 -112 314.5 -71.5 c 128,-1,44
 310 -31 310 -31 310 -12 c 0,45,46
 310 -2 310 -2 311 8 c 1,47,48
 286 0 286 0 260 0 c 0,49,50
 215 0 215 0 179.5 22 c 128,-1,51
 144 44 144 44 123 81.5 c 128,-1,52
 102 119 102 119 102 168 c 0,0,1
436 128 m 0,53,54
 457 128 457 128 475.5 118 c 128,-1,55
 494 108 494 108 505 86 c 1,56,57
 516 97 516 97 528 106 c 1,58,-1
 528 474 l 1,59,60
 485 533 485 533 424 567 c 128,-1,61
 363 601 363 601 290 601 c 0,62,63
 232 601 232 601 189 579.5 c 128,-1,64
 146 558 146 558 123 522 c 128,-1,65
 100 486 100 486 100 440 c 0,66,67
 100 400 100 400 118 367 c 128,-1,68
 136 334 136 334 168 311 c 1,69,70
 189 328 189 328 215 337.5 c 128,-1,71
 241 347 241 347 270 347 c 0,72,73
 315 347 315 347 351 325 c 128,-1,74
 387 303 387 303 407.5 265 c 128,-1,75
 428 227 428 227 428 179 c 0,76,77
 428 152 428 152 421 127 c 1,78,79
 429 128 429 128 436 128 c 0,53,54
165 195 m 0,80,81
 165 156 165 156 181.5 125.5 c 128,-1,82
 198 95 198 95 224.5 77.5 c 128,-1,83
 251 60 251 60 281 60 c 0,84,85
 321 60 321 60 343 86.5 c 128,-1,86
 365 113 365 113 365 153 c 0,87,88
 365 192 365 192 348.5 222.5 c 128,-1,89
 332 253 332 253 306 270.5 c 128,-1,90
 280 288 280 288 249 288 c 0,91,92
 209 288 209 288 187 261.5 c 128,-1,93
 165 235 165 235 165 195 c 0,80,81
EndSplineSet
Ligature2: "+BB8EPgQ0BEEEQgQwBD0EPgQyBDoEMAAA +BDsEOAQzBDAEQgRDBEAESwAA lookup 11 subtable" gaorya llasubscriptorya
EndChar

StartChar: gallaorya
Encoding: 65581 -1 97
Width: 661
GlyphClass: 2
Flags: W
AnchorPoint: "+BBEENQQ3BEsEPARPBD0EPQQ+BDUA--5" 665 0 basechar 0
AnchorPoint: "+BBEENQQ3BEsEPARPBD0EPQQ+BDUA--3" 409 0 basechar 0
AnchorPoint: "+BBEENQQ3BEsEPARPBD0EPQQ+BDUA--2" 329 657 basechar 0
AnchorPoint: "+BBEENQQ3BEsEPARPBD0EPQQ+BDUA--0" 528 657 basechar 0
LayerCount: 2
Fore
SplineSet
116 158 m 0,0,1
 116 196 116 196 129 229 c 1,2,3
 82 268 82 268 57 320 c 128,-1,4
 32 372 32 372 32 427 c 0,5,6
 32 494 32 494 66 548 c 128,-1,7
 100 602 100 602 160.5 634.5 c 128,-1,8
 221 667 221 667 301 667 c 0,9,10
 438 667 438 667 528 569 c 1,11,-1
 528 650 l 1,12,-1
 588 664 l 1,13,-1
 595 657 l 1,14,-1
 595 68 l 1,15,16
 628 64 628 64 646.5 33.5 c 128,-1,17
 665 3 665 3 665 -49 c 2,18,-1
 665 -209 l 1,19,-1
 613 -220 l 1,20,-1
 601 -212 l 1,21,-1
 601 -75 l 2,22,23
 601 -32 601 -32 589 -12 c 128,-1,24
 577 8 577 8 558 8 c 0,25,26
 545 8 545 8 532.5 -2 c 128,-1,27
 520 -12 520 -12 520 -30 c 2,28,-1
 520 -205 l 1,29,-1
 469 -221 l 1,30,-1
 457 -212 l 1,31,-1
 457 -82 l 2,32,33
 457 8 457 8 410 8 c 0,34,35
 393 8 393 8 380 -7.5 c 128,-1,36
 367 -23 367 -23 367 -61 c 0,37,38
 367 -86 367 -86 372 -126 c 128,-1,39
 377 -166 377 -166 387 -204 c 1,40,-1
 329 -219 l 1,41,-1
 319 -210 l 1,42,43
 312 -172 312 -172 307.5 -131.5 c 128,-1,44
 303 -91 303 -91 303 -72 c 0,45,46
 303 -34 303 -34 316 -5 c 1,47,48
 296 -10 296 -10 274 -10 c 0,49,50
 229 -10 229 -10 193.5 12 c 128,-1,51
 158 34 158 34 137 72 c 128,-1,52
 116 110 116 110 116 158 c 0,0,1
429 68 m 0,53,54
 450 68 450 68 468.5 58 c 128,-1,55
 487 48 487 48 498 26 c 1,56,57
 512 41 512 41 528 50 c 1,58,-1
 528 474 l 1,59,60
 485 533 485 533 424 567 c 128,-1,61
 363 601 363 601 290 601 c 0,62,63
 232 601 232 601 189 579.5 c 128,-1,64
 146 558 146 558 123 522 c 128,-1,65
 100 486 100 486 100 440 c 0,66,67
 100 395 100 395 122 359.5 c 128,-1,68
 144 324 144 324 183 302 c 1,69,70
 204 319 204 319 229.5 328 c 128,-1,71
 255 337 255 337 284 337 c 0,72,73
 329 337 329 337 365 315 c 128,-1,74
 401 293 401 293 421.5 255 c 128,-1,75
 442 217 442 217 442 169 c 0,76,77
 442 112 442 112 413 67 c 1,78,79
 421 68 421 68 429 68 c 0,53,54
179 185 m 0,80,81
 179 146 179 146 195.5 115.5 c 128,-1,82
 212 85 212 85 238.5 67.5 c 128,-1,83
 265 50 265 50 295 50 c 0,84,85
 335 50 335 50 357 76.5 c 128,-1,86
 379 103 379 103 379 143 c 0,87,88
 379 182 379 182 362.5 212.5 c 128,-1,89
 346 243 346 243 320 260.5 c 128,-1,90
 294 278 294 278 263 278 c 0,91,92
 223 278 223 278 201 251.5 c 128,-1,93
 179 225 179 225 179 185 c 0,80,81
EndSplineSet
Substitution2: "+BBUENAQ4BD0EOARHBD0EMARP +BD8EPgQ0BEEEQgQwBD0EPgQyBDoEMAAA lookup 47 subtable" gallaUIorya
Ligature2: "'pres' Pre Base Substitutions lookup 45 subtable" gaorya llasubscriptorya
Ligature2: "'akhn' Akhand lookup 37 subtable" gaorya viramaorya llaorya
Ligature2: "+BB8EPgQ0BEEEQgQwBD0EPgQyBDoEMAAA +BDsEOAQzBDAEQgRDBEAESwAA lookup 10 subtable" gaorya llasubscriptorya
EndChar

StartChar: hasquishorya
Encoding: 65598 -1 114
Width: 613
GlyphClass: 2
Flags: W
AnchorPoint: "+BBEENQQ3BEsEPARPBD0EPQQ+BDUA--5" 366 0 basechar 0
AnchorPoint: "+BBEENQQ3BEsEPARPBD0EPQQ+BDUA--3" 310 0 basechar 0
AnchorPoint: "+BBEENQQ3BEsEPARPBD0EPQQ+BDUA--2" 310 657 basechar 0
AnchorPoint: "+BBEENQQ3BEsEPARPBD0EPQQ+BDUA--0" 504 657 basechar 0
LayerCount: 2
Fore
SplineSet
74 113 m 1,0,1
 98 154 98 154 116.5 177 c 128,-1,2
 135 200 135 200 159 220 c 1,3,4
 145 241 145 241 141 268 c 1,5,6
 82 304 82 304 58 353 c 128,-1,7
 34 402 34 402 34 447 c 0,8,9
 34 507 34 507 66 557 c 128,-1,10
 98 607 98 607 157.5 637 c 128,-1,11
 217 667 217 667 297 667 c 0,12,13
 362 667 362 667 411.5 652 c 128,-1,14
 461 637 461 637 498 613 c 128,-1,15
 535 589 535 589 560.5 563 c 128,-1,16
 586 537 586 537 602 516 c 1,17,-1
 555 467 l 1,18,-1
 545 467 l 1,19,20
 526 495 526 495 491 526 c 128,-1,21
 456 557 456 557 404 579 c 128,-1,22
 352 601 352 601 282 601 c 0,23,24
 201 601 201 601 151.5 560.5 c 128,-1,25
 102 520 102 520 102 458 c 0,26,27
 102 432 102 432 115 405.5 c 128,-1,28
 128 379 128 379 159 359 c 1,29,30
 174 387 174 387 197 411 c 128,-1,31
 220 435 220 435 247 458 c 1,32,-1
 286 420 l 1,33,34
 246 387 246 387 225 358.5 c 128,-1,35
 204 330 204 330 204 301 c 0,36,37
 204 267 204 267 227 246.5 c 128,-1,38
 250 226 250 226 287 226 c 0,39,40
 315 226 315 226 340.5 235.5 c 128,-1,41
 366 245 366 245 385 257 c 1,42,-1
 385 405 l 1,43,-1
 445 420 l 1,44,-1
 452 413 l 1,45,-1
 452 150 l 1,46,-1
 392 136 l 1,47,-1
 385 143 l 1,48,-1
 385 201 l 1,49,50
 362 184 362 184 332.5 174 c 128,-1,51
 303 164 303 164 270 164 c 0,52,53
 222 164 222 164 188 189 c 1,54,55
 164 161 164 161 147 134 c 1,56,57
 241 127 241 127 335.5 113 c 128,-1,58
 430 99 430 99 522 82 c 1,59,-1
 483 15 l 1,60,61
 390 38 390 38 292.5 55 c 128,-1,62
 195 72 195 72 94 82 c 1,63,-1
 74 113 l 1,0,1
EndSplineSet
EndChar

StartChar: jajaUIorya
Encoding: 65603 -1 119
Width: 659
GlyphClass: 2
Flags: W
AnchorPoint: "+BBEENQQ3BEsEPARPBD0EPQQ+BDUA--5" 567 0 basechar 0
AnchorPoint: "+BBEENQQ3BEsEPARPBD0EPQQ+BDUA--3" 327 0 basechar 0
AnchorPoint: "+BBEENQQ3BEsEPARPBD0EPQQ+BDUA--2" 327 657 basechar 0
LayerCount: 2
Fore
SplineSet
87 196 m 0,0,1
 87 223 87 223 94 251 c 1,2,3
 63 290 63 290 47.5 335 c 128,-1,4
 32 380 32 380 32 424 c 0,5,6
 32 492 32 492 65.5 547 c 128,-1,7
 99 602 99 602 160 634.5 c 128,-1,8
 221 667 221 667 303 667 c 0,9,10
 368 667 368 667 419.5 646 c 128,-1,11
 471 625 471 625 509.5 592 c 128,-1,12
 548 559 548 559 575 521 c 128,-1,13
 602 483 602 483 618 450 c 1,14,-1
 569 398 l 1,15,-1
 559 398 l 1,16,17
 545 433 545 433 520.5 468.5 c 128,-1,18
 496 504 496 504 461.5 534 c 128,-1,19
 427 564 427 564 383.5 582.5 c 128,-1,20
 340 601 340 601 289 601 c 0,21,22
 233 601 233 601 190.5 580 c 128,-1,23
 148 559 148 559 124 522 c 128,-1,24
 100 485 100 485 100 436 c 0,25,26
 100 407 100 407 108.5 380.5 c 128,-1,27
 117 354 117 354 132 333 c 1,28,29
 166 386 166 386 225 436 c 1,30,-1
 259 399 l 1,31,32
 200 344 200 344 175 296 c 128,-1,33
 150 248 150 248 150 209 c 0,34,35
 150 162 150 162 179 137 c 128,-1,36
 208 112 208 112 246 112 c 0,37,38
 271 112 271 112 294.5 121.5 c 128,-1,39
 318 131 318 131 337 144 c 1,40,41
 306 171 306 171 279.5 209 c 128,-1,42
 253 247 253 247 253 285 c 0,43,44
 253 293 253 293 257 303.5 c 128,-1,45
 261 314 261 314 279 336 c 0,46,47
 294 353 294 353 308 361.5 c 128,-1,48
 322 370 322 370 347 370 c 2,49,-1
 508 370 l 1,50,-1
 515 363 l 1,51,-1
 515 107 l 1,52,-1
 561 107 l 1,53,-1
 567 100 l 1,54,-1
 567 -148 l 1,55,-1
 505 -161 l 1,56,-1
 500 -154 l 1,57,-1
 500 44 l 1,58,-1
 417 44 l 2,59,60
 408 44 408 44 408 34 c 0,61,62
 407 18 407 18 424 -7 c 128,-1,63
 441 -32 441 -32 469 -58 c 1,64,-1
 469 -70 l 1,65,-1
 428 -132 l 1,66,67
 385 -160 385 -160 333 -160 c 0,68,69
 278 -160 278 -160 240.5 -129 c 128,-1,70
 203 -98 203 -98 203 -45 c 0,71,72
 203 -22 203 -22 211 2 c 128,-1,73
 219 26 219 26 233 50 c 1,74,-1
 233 50 l 1,75,76
 172 50 172 50 129.5 87.5 c 128,-1,77
 87 125 87 125 87 196 c 0,0,1
360 -97 m 0,78,79
 373 -97 373 -97 384.5 -95 c 128,-1,80
 396 -93 396 -93 404 -89 c 1,81,82
 383 -69 383 -69 366 -43.5 c 128,-1,83
 349 -18 349 -18 349 7 c 0,84,85
 349 16 349 16 353 31.5 c 128,-1,86
 357 47 357 47 371 66 c 0,87,88
 387 88 387 88 403 97.5 c 128,-1,89
 419 107 419 107 446 107 c 2,90,-1
 448 107 l 1,91,-1
 448 306 l 1,92,-1
 328 306 l 2,93,94
 320 306 320 306 320 296 c 0,95,96
 320 277 320 277 342.5 245.5 c 128,-1,97
 365 214 365 214 398 179 c 1,98,-1
 398 170 l 1,99,-1
 369 105 l 1,100,101
 357 94 357 94 342.5 84 c 128,-1,102
 328 74 328 74 311 66 c 1,103,104
 292 39 292 39 281 13.5 c 128,-1,105
 270 -12 270 -12 270 -31 c 0,106,107
 270 -65 270 -65 296 -81 c 128,-1,108
 322 -97 322 -97 360 -97 c 0,78,79
EndSplineSet
Ligature2: "+BB8EPgQ0BEEEQgQwBD0EPgQyBDoEMAAA +BDsEOAQzBDAEQgRDBEAESwAA lookup 11 subtable" jaorya jasubscriptorya
EndChar

StartChar: janyaorya
Encoding: 65607 -1 123
Width: 620
GlyphClass: 2
Flags: W
AnchorPoint: "+BBEENQQ3BEsEPARPBD0EPQQ+BDUA--5" 555 0 basechar 0
AnchorPoint: "+BBEENQQ3BEsEPARPBD0EPQQ+BDUA--3" 330 0 basechar 0
AnchorPoint: "+BBEENQQ3BEsEPARPBD0EPQQ+BDUA--2" 308 657 basechar 0
LayerCount: 2
Fore
SplineSet
54 210 m 0,0,1
 54 290 54 290 89 335 c 1,2,3
 59 357 59 357 45.5 385 c 128,-1,4
 32 413 32 413 32 443 c 0,5,6
 32 499 32 499 52.5 553 c 128,-1,7
 73 607 73 607 108 665 c 1,8,-1
 153 638 l 1,9,10
 126 584 126 584 111.5 541.5 c 128,-1,11
 97 499 97 499 97 461 c 0,12,13
 97 435 97 435 109.5 413.5 c 128,-1,14
 122 392 122 392 156 373 c 0,15,16
 159 373 159 373 162 373 c 0,17,18
 206 373 206 373 232 336 c 1,19,20
 261 373 261 373 305 373 c 0,21,22
 348 373 348 373 372 334 c 1,23,24
 389 353 389 353 413 363 c 128,-1,25
 437 373 437 373 460 373 c 0,26,27
 466 373 466 373 472 372 c 0,28,29
 495 385 495 385 510 403 c 128,-1,30
 525 421 525 421 525 445 c 0,31,32
 525 518 525 518 502 562 c 128,-1,33
 479 606 479 606 452 606 c 0,34,35
 438 606 438 606 428.5 594.5 c 128,-1,36
 419 583 419 583 419 560 c 2,37,-1
 419 449 l 1,38,-1
 362 430 l 1,39,-1
 356 437 l 1,40,-1
 356 509 l 2,41,42
 356 551 356 551 336.5 579 c 128,-1,43
 317 607 317 607 286 607 c 0,44,45
 269 607 269 607 257 593.5 c 128,-1,46
 245 580 245 580 245 561 c 0,47,48
 245 536 245 536 256 507 c 128,-1,49
 267 478 267 478 286 444 c 1,50,-1
 212 422 l 1,51,52
 200 448 200 448 189.5 482 c 128,-1,53
 179 516 179 516 179 545 c 0,54,55
 179 578 179 578 196.5 605.5 c 128,-1,56
 214 633 214 633 241.5 650 c 128,-1,57
 269 667 269 667 300 667 c 0,58,59
 327 667 327 667 350 654 c 128,-1,60
 373 641 373 641 387 619 c 1,61,62
 403 640 403 640 426 653.5 c 128,-1,63
 449 667 449 667 475 667 c 0,64,65
 505 667 505 667 531.5 642.5 c 128,-1,66
 558 618 558 618 574 574.5 c 128,-1,67
 590 531 590 531 590 474 c 0,68,69
 590 429 590 429 574 396.5 c 128,-1,70
 558 364 558 364 531 341 c 1,71,72
 555 310 555 310 555 248 c 2,73,-1
 555 7 l 1,74,-1
 494 -7 l 1,75,-1
 488 0 l 1,76,-1
 488 225 l 2,77,78
 488 263 488 263 475.5 285 c 128,-1,79
 463 307 463 307 440 307 c 0,80,81
 421 307 421 307 409 295.5 c 128,-1,82
 397 284 397 284 397 270 c 2,83,-1
 397 7 l 1,84,-1
 337 -7 l 1,85,-1
 330 0 l 1,86,-1
 330 82 l 1,87,88
 312 72 312 72 292 72 c 0,89,90
 249 72 249 72 224 109 c 1,91,92
 195 72 195 72 149 72 c 0,93,94
 105 72 105 72 79.5 110.5 c 128,-1,95
 54 149 54 149 54 210 c 0,0,1
115 229 m 0,96,97
 115 205 115 205 121 182 c 128,-1,98
 127 159 127 159 137.5 144 c 128,-1,99
 148 129 148 129 161 129 c 0,100,101
 178 129 178 129 187.5 153 c 128,-1,102
 197 177 197 177 197 215 c 0,103,104
 197 252 197 252 184.5 283 c 128,-1,105
 172 314 172 314 151 314 c 0,106,107
 134 314 134 314 124.5 290 c 128,-1,108
 115 266 115 266 115 229 c 0,96,97
258 229 m 0,109,110
 258 205 258 205 264 182 c 128,-1,111
 270 159 270 159 280.5 144 c 128,-1,112
 291 129 291 129 304 129 c 0,113,114
 321 129 321 129 330.5 153 c 128,-1,115
 340 177 340 177 340 215 c 0,116,117
 340 252 340 252 327.5 283 c 128,-1,118
 315 314 315 314 294 314 c 0,119,120
 277 314 277 314 267.5 290 c 128,-1,121
 258 266 258 266 258 229 c 0,109,110
EndSplineSet
Ligature2: "'pres' Pre Base Substitutions in +BB4EQAQ4BDkETwAA lookup 49 subtable" jaorya viramaorya nyaorya
Ligature2: "'cjct' Conjunct Forms in Oriya2 lookup 44 subtable" jaorya viramaorya nyaorya
EndChar

StartChar: kakaUIorya
Encoding: 65612 -1 128
Width: 633
GlyphClass: 2
Flags: W
AnchorPoint: "+BBEENQQ3BEsEPARPBD0EPQQ+BDUA--5" 575 0 basechar 0
AnchorPoint: "+BBEENQQ3BEsEPARPBD0EPQQ+BDUA--3" 326 0 basechar 0
AnchorPoint: "+BBEENQQ3BEsEPARPBD0EPQQ+BDUA--2" 326 657 basechar 0
LayerCount: 2
Fore
SplineSet
213 23 m 0,0,1
 213 59 213 59 232 88.5 c 128,-1,2
 251 118 251 118 281 131 c 1,3,-1
 281 189 l 1,4,5
 255 169 255 169 220 169 c 0,6,7
 172 169 172 169 139.5 204 c 128,-1,8
 107 239 107 239 107 291 c 1,9,10
 66 326 66 326 49 367.5 c 128,-1,11
 32 409 32 409 32 447 c 0,12,13
 32 507 32 507 64 557 c 128,-1,14
 96 607 96 607 155.5 637 c 128,-1,15
 215 667 215 667 295 667 c 0,16,17
 360 667 360 667 409.5 652 c 128,-1,18
 459 637 459 637 496 613 c 128,-1,19
 533 589 533 589 558.5 563 c 128,-1,20
 584 537 584 537 600 516 c 1,21,-1
 553 467 l 1,22,-1
 543 467 l 1,23,24
 524 495 524 495 489 526 c 128,-1,25
 454 557 454 557 402 579 c 128,-1,26
 350 601 350 601 280 601 c 0,27,28
 199 601 199 601 149.5 560.5 c 128,-1,29
 100 520 100 520 100 458 c 0,30,31
 100 437 100 437 108 415.5 c 128,-1,32
 116 394 116 394 136 375 c 1,33,34
 152 395 152 395 176 407 c 128,-1,35
 200 419 200 419 228 419 c 256,36,37
 256 419 256 419 278.5 405 c 128,-1,38
 301 391 301 391 315 370 c 1,39,40
 332 394 332 394 358.5 406.5 c 128,-1,41
 385 419 385 419 411 419 c 0,42,43
 455 419 455 419 480.5 390 c 128,-1,44
 506 361 506 361 506 294 c 2,45,-1
 506 138 l 1,46,47
 575 127 575 127 575 23 c 2,48,-1
 575 -138 l 1,49,-1
 520 -149 l 1,50,-1
 508 -141 l 1,51,-1
 508 0 l 2,52,53
 508 41 508 41 496.5 60 c 128,-1,54
 485 79 485 79 467 79 c 0,55,56
 454 79 454 79 442 68.5 c 128,-1,57
 430 58 430 58 430 36 c 2,58,-1
 430 -134 l 1,59,-1
 375 -150 l 1,60,-1
 363 -141 l 1,61,-1
 363 -80 l 1,62,63
 344 -88 344 -88 321 -88 c 0,64,65
 294 -88 294 -88 269.5 -75 c 128,-1,66
 245 -62 245 -62 229 -37 c 128,-1,67
 213 -12 213 -12 213 23 c 0,0,1
166 306 m 0,68,69
 166 271 166 271 188 249 c 128,-1,70
 210 227 210 227 235 227 c 0,71,72
 258 227 258 227 271 242.5 c 128,-1,73
 284 258 284 258 284 280 c 0,74,75
 284 315 284 315 263 337.5 c 128,-1,76
 242 360 242 360 215 360 c 0,77,78
 192 359 192 359 179 344 c 128,-1,79
 166 329 166 329 166 306 c 0,68,69
348 316 m 2,80,-1
 348 137 l 1,81,82
 386 129 386 129 407 100 c 1,83,84
 421 116 421 116 439 126 c 1,85,-1
 439 271 l 2,86,87
 439 309 439 309 426.5 331 c 128,-1,88
 414 353 414 353 391 353 c 0,89,90
 372 353 372 353 360 341.5 c 128,-1,91
 348 330 348 330 348 316 c 2,80,-1
276 37 m 0,92,93
 276 12 276 12 294 -8 c 128,-1,94
 312 -28 312 -28 337 -28 c 0,95,96
 357 -28 357 -28 367.5 -17.5 c 128,-1,97
 378 -7 378 -7 378 10 c 0,98,99
 378 39 378 39 360 58 c 128,-1,100
 342 77 342 77 317 77 c 0,101,102
 276 77 276 77 276 37 c 0,92,93
EndSplineSet
Ligature2: "+BB8EPgQ0BEEEQgQwBD0EPgQyBDoEMAAA +BDsEOAQzBDAEQgRDBEAESwAA lookup 11 subtable" kaorya kasubscriptorya
EndChar

StartChar: kakaorya
Encoding: 65613 -1 129
Width: 658
GlyphClass: 2
Flags: W
AnchorPoint: "+BBEENQQ3BEsEPARPBD0EPQQ+BDUA--5" 619 0 basechar 0
AnchorPoint: "+BBEENQQ3BEsEPARPBD0EPQQ+BDUA--3" 331 0 basechar 0
AnchorPoint: "+BBEENQQ3BEsEPARPBD0EPQQ+BDUA--2" 331 657 basechar 0
AnchorPoint: "+BBEENQQ3BEsEPARPBD0EPQQ+BDUA--0" 502 657 basechar 0
LayerCount: 2
Fore
SplineSet
113 228 m 2,0,-1
 113 231 l 1,1,2
 73 273 73 273 52.5 323.5 c 128,-1,3
 32 374 32 374 32 424 c 0,4,5
 32 492 32 492 67.5 547 c 128,-1,6
 103 602 103 602 166 634.5 c 128,-1,7
 229 667 229 667 311 667 c 0,8,9
 373 667 373 667 421 649.5 c 128,-1,10
 469 632 469 632 505.5 605.5 c 128,-1,11
 542 579 542 579 568.5 550 c 128,-1,12
 595 521 595 521 614 498 c 1,13,-1
 565 446 l 1,14,-1
 555 446 l 1,15,16
 532 479 532 479 496.5 515 c 128,-1,17
 461 551 461 551 411.5 576 c 128,-1,18
 362 601 362 601 296 601 c 0,19,20
 239 601 239 601 195 580 c 128,-1,21
 151 559 151 559 125.5 521.5 c 128,-1,22
 100 484 100 484 100 435 c 0,23,24
 100 400 100 400 113 369.5 c 128,-1,25
 126 339 126 339 147 317 c 1,26,27
 163 335 163 335 185.5 345 c 128,-1,28
 208 355 208 355 234 355 c 0,29,30
 261 355 261 355 283.5 341.5 c 128,-1,31
 306 328 306 328 320 308 c 1,32,33
 337 331 337 331 363.5 343 c 128,-1,34
 390 355 390 355 415 355 c 0,35,36
 459 355 459 355 484.5 326 c 128,-1,37
 510 297 510 297 510 230 c 2,38,-1
 510 66 l 1,39,40
 522 69 522 69 533 69 c 0,41,42
 619 69 619 69 619 -47 c 2,43,-1
 619 -208 l 1,44,-1
 564 -219 l 1,45,-1
 552 -211 l 1,46,-1
 552 -70 l 2,47,48
 552 -29 552 -29 540.5 -10 c 128,-1,49
 529 9 529 9 511 9 c 0,50,51
 498 9 498 9 486 -1.5 c 128,-1,52
 474 -12 474 -12 474 -34 c 2,53,-1
 474 -204 l 1,54,-1
 419 -220 l 1,55,-1
 407 -211 l 1,56,-1
 407 -150 l 1,57,58
 388 -158 388 -158 365 -158 c 0,59,60
 338 -158 338 -158 313.5 -145 c 128,-1,61
 289 -132 289 -132 273 -107 c 128,-1,62
 257 -82 257 -82 257 -47 c 0,63,64
 257 -3 257 -3 285 30 c 1,65,-1
 285 124 l 1,66,67
 260 105 260 105 226 105 c 0,68,69
 178 105 178 105 145.5 140.5 c 128,-1,70
 113 176 113 176 113 228 c 2,0,-1
172 242 m 0,71,72
 172 207 172 207 194 185 c 128,-1,73
 216 163 216 163 241 163 c 0,74,75
 264 163 264 163 277 178.5 c 128,-1,76
 290 194 290 194 290 216 c 0,77,78
 290 251 290 251 269 273.5 c 128,-1,79
 248 296 248 296 221 296 c 0,80,81
 198 295 198 295 185 280 c 128,-1,82
 172 265 172 265 172 242 c 0,71,72
367 70 m 0,83,84
 414 70 414 70 443 40 c 1,85,-1
 443 207 l 2,86,87
 443 245 443 245 430.5 267 c 128,-1,88
 418 289 418 289 395 289 c 0,89,90
 376 289 376 289 364 277.5 c 128,-1,91
 352 266 352 266 352 252 c 2,92,-1
 352 69 l 1,93,94
 359 70 359 70 367 70 c 0,83,84
320 -33 m 0,95,96
 320 -58 320 -58 338 -78 c 128,-1,97
 356 -98 356 -98 381 -98 c 0,98,99
 401 -98 401 -98 411.5 -87.5 c 128,-1,100
 422 -77 422 -77 422 -60 c 0,101,102
 422 -31 422 -31 404 -12 c 128,-1,103
 386 7 386 7 361 7 c 0,104,105
 320 7 320 7 320 -33 c 0,95,96
EndSplineSet
Substitution2: "+BBUENAQ4BD0EOARHBD0EMARP +BD8EPgQ0BEEEQgQwBD0EPgQyBDoEMAAA lookup 47 subtable" kakaUIorya
Ligature2: "'pres' Pre Base Substitutions lookup 45 subtable" kaorya kasubscriptorya
Ligature2: "'akhn' Akhand lookup 37 subtable" kaorya viramaorya kaorya
Ligature2: "+BB8EPgQ0BEEEQgQwBD0EPgQyBDoEMAAA +BDsEOAQzBDAEQgRDBEAESwAA lookup 10 subtable" kaorya kasubscriptorya
EndChar

StartChar: kalaUIorya
Encoding: 65614 -1 130
Width: 653
GlyphClass: 2
Flags: W
AnchorPoint: "+BBEENQQ3BEsEPARPBD0EPQQ+BDUA--5" 578 0 basechar 0
AnchorPoint: "+BBEENQQ3BEsEPARPBD0EPQQ+BDUA--3" 327 0 basechar 0
AnchorPoint: "+BBEENQQ3BEsEPARPBD0EPQQ+BDUA--2" 327 657 basechar 0
LayerCount: 2
Fore
SplineSet
212 -9 m 0,0,1
 211 42 211 42 232.5 73 c 128,-1,2
 254 104 254 104 283 119 c 1,3,-1
 281 121 l 1,4,-1
 281 189 l 1,5,6
 255 169 255 169 220 169 c 0,7,8
 172 169 172 169 139.5 204 c 128,-1,9
 107 239 107 239 107 291 c 1,10,11
 66 326 66 326 49 367.5 c 128,-1,12
 32 409 32 409 32 447 c 0,13,14
 32 507 32 507 64 557 c 128,-1,15
 96 607 96 607 155.5 637 c 128,-1,16
 215 667 215 667 295 667 c 0,17,18
 360 667 360 667 409.5 652 c 128,-1,19
 459 637 459 637 496 613 c 128,-1,20
 533 589 533 589 558.5 563 c 128,-1,21
 584 537 584 537 600 516 c 1,22,-1
 553 467 l 1,23,-1
 543 467 l 1,24,25
 524 495 524 495 489 526 c 128,-1,26
 454 557 454 557 402 579 c 128,-1,27
 350 601 350 601 280 601 c 0,28,29
 199 601 199 601 149.5 560.5 c 128,-1,30
 100 520 100 520 100 458 c 0,31,32
 100 437 100 437 108 415.5 c 128,-1,33
 116 394 116 394 136 375 c 1,34,35
 152 395 152 395 176 407 c 128,-1,36
 200 419 200 419 228 419 c 256,37,38
 256 419 256 419 278.5 405 c 128,-1,39
 301 391 301 391 315 370 c 1,40,41
 332 394 332 394 358.5 406.5 c 128,-1,42
 385 419 385 419 411 419 c 0,43,44
 455 419 455 419 480.5 390 c 128,-1,45
 506 361 506 361 506 294 c 2,46,-1
 506 130 l 1,47,48
 540 125 540 125 559.5 92.5 c 128,-1,49
 579 60 579 60 579 9 c 0,50,51
 579 -21 579 -21 572.5 -50.5 c 128,-1,52
 566 -80 566 -80 557 -104 c 1,53,-1
 628 -99 l 1,54,-1
 628 -158 l 1,55,-1
 618 -164 l 1,56,-1
 489 -150 l 1,57,-1
 489 -130 l 1,58,59
 499 -110 499 -110 507 -80 c 128,-1,60
 515 -50 515 -50 515 -19 c 0,61,62
 515 24 515 24 499 47.5 c 128,-1,63
 483 71 483 71 462 71 c 0,64,65
 449 71 449 71 438.5 60.5 c 128,-1,66
 428 50 428 50 428 27 c 2,67,-1
 428 -142 l 1,68,-1
 377 -158 l 1,69,-1
 365 -149 l 1,70,-1
 365 -19 l 2,71,72
 365 71 365 71 318 71 c 0,73,74
 301 71 301 71 288.5 55.5 c 128,-1,75
 276 40 276 40 276 2 c 0,76,77
 276 -23 276 -23 280.5 -63 c 128,-1,78
 285 -103 285 -103 295 -141 c 1,79,-1
 237 -156 l 1,80,-1
 227 -147 l 1,81,82
 220 -109 220 -109 216 -68.5 c 128,-1,83
 212 -28 212 -28 212 -9 c 0,0,1
166 306 m 0,84,85
 166 271 166 271 188 249 c 128,-1,86
 210 227 210 227 235 227 c 0,87,88
 258 227 258 227 271 242.5 c 128,-1,89
 284 258 284 258 284 280 c 0,90,91
 284 315 284 315 263 337.5 c 128,-1,92
 242 360 242 360 215 360 c 0,93,94
 192 359 192 359 179 344 c 128,-1,95
 166 329 166 329 166 306 c 0,84,85
348 316 m 2,96,-1
 348 130 l 1,97,98
 366 128 366 128 382 117.5 c 128,-1,99
 398 107 398 107 408 87 c 1,100,101
 423 103 423 103 439 113 c 1,102,-1
 439 271 l 2,103,104
 439 309 439 309 426.5 331 c 128,-1,105
 414 353 414 353 391 353 c 0,106,107
 372 353 372 353 360 341.5 c 128,-1,108
 348 330 348 330 348 316 c 2,96,-1
EndSplineSet
Ligature2: "+BB8EPgQ0BEEEQgQwBD0EPgQyBDoEMAAA +BDsEOAQzBDAEQgRDBEAESwAA lookup 11 subtable" kaorya lasubscriptorya
EndChar

StartChar: kalaorya
Encoding: 65615 -1 131
Width: 636
GlyphClass: 2
Flags: W
AnchorPoint: "+BBEENQQ3BEsEPARPBD0EPQQ+BDUA--5" 587 0 basechar 0
AnchorPoint: "+BBEENQQ3BEsEPARPBD0EPQQ+BDUA--3" 331 0 basechar 0
AnchorPoint: "+BBEENQQ3BEsEPARPBD0EPQQ+BDUA--2" 331 657 basechar 0
AnchorPoint: "+BBEENQQ3BEsEPARPBD0EPQQ+BDUA--0" 502 657 basechar 0
LayerCount: 2
Fore
SplineSet
212 -72 m 0,0,1
 211 -21 211 -21 233 11 c 128,-1,2
 255 43 255 43 285 56 c 1,3,-1
 285 124 l 1,4,5
 260 105 260 105 226 105 c 0,6,7
 178 105 178 105 145.5 140.5 c 128,-1,8
 113 176 113 176 113 228 c 2,9,-1
 113 231 l 1,10,11
 73 273 73 273 52.5 323.5 c 128,-1,12
 32 374 32 374 32 424 c 0,13,14
 32 492 32 492 67.5 547 c 128,-1,15
 103 602 103 602 166 634.5 c 128,-1,16
 229 667 229 667 311 667 c 0,17,18
 373 667 373 667 421 649.5 c 128,-1,19
 469 632 469 632 505.5 605.5 c 128,-1,20
 542 579 542 579 568.5 550 c 128,-1,21
 595 521 595 521 614 498 c 1,22,-1
 565 446 l 1,23,-1
 555 446 l 1,24,25
 532 479 532 479 496.5 515 c 128,-1,26
 461 551 461 551 411.5 576 c 128,-1,27
 362 601 362 601 296 601 c 0,28,29
 239 601 239 601 195 580 c 128,-1,30
 151 559 151 559 125.5 521.5 c 128,-1,31
 100 484 100 484 100 435 c 0,32,33
 100 400 100 400 113 369.5 c 128,-1,34
 126 339 126 339 147 317 c 1,35,36
 163 335 163 335 185.5 345 c 128,-1,37
 208 355 208 355 234 355 c 0,38,39
 261 355 261 355 283.5 341.5 c 128,-1,40
 306 328 306 328 320 308 c 1,41,42
 337 331 337 331 363.5 343 c 128,-1,43
 390 355 390 355 415 355 c 0,44,45
 459 355 459 355 484.5 326 c 128,-1,46
 510 297 510 297 510 230 c 2,47,-1
 510 66 l 1,48,49
 542 60 542 60 560.5 28 c 128,-1,50
 579 -4 579 -4 579 -54 c 0,51,52
 579 -84 579 -84 572.5 -113.5 c 128,-1,53
 566 -143 566 -143 557 -167 c 1,54,-1
 628 -162 l 1,55,-1
 628 -221 l 1,56,-1
 618 -227 l 1,57,-1
 489 -213 l 1,58,-1
 489 -193 l 1,59,60
 499 -173 499 -173 507 -143 c 128,-1,61
 515 -113 515 -113 515 -82 c 0,62,63
 515 -39 515 -39 499 -15.5 c 128,-1,64
 483 8 483 8 462 8 c 0,65,66
 449 8 449 8 438.5 -2.5 c 128,-1,67
 428 -13 428 -13 428 -36 c 2,68,-1
 428 -205 l 1,69,-1
 377 -221 l 1,70,-1
 365 -212 l 1,71,-1
 365 -82 l 2,72,73
 365 8 365 8 318 8 c 0,74,75
 301 8 301 8 288.5 -7.5 c 128,-1,76
 276 -23 276 -23 276 -61 c 0,77,78
 276 -86 276 -86 280.5 -126 c 128,-1,79
 285 -166 285 -166 295 -204 c 1,80,-1
 237 -219 l 1,81,-1
 227 -210 l 1,82,83
 220 -172 220 -172 216 -131.5 c 128,-1,84
 212 -91 212 -91 212 -72 c 0,0,1
172 242 m 0,85,86
 172 207 172 207 194 185 c 128,-1,87
 216 163 216 163 241 163 c 0,88,89
 264 163 264 163 277 178.5 c 128,-1,90
 290 194 290 194 290 216 c 0,91,92
 290 251 290 251 269 273.5 c 128,-1,93
 248 296 248 296 221 296 c 0,94,95
 198 295 198 295 185 280 c 128,-1,96
 172 265 172 265 172 242 c 0,85,86
352 252 m 2,97,-1
 352 67 l 1,98,99
 369 64 369 64 383.5 53.5 c 128,-1,100
 398 43 398 43 408 24 c 1,101,102
 425 42 425 42 443 53 c 1,103,-1
 443 207 l 2,104,105
 443 245 443 245 430.5 267 c 128,-1,106
 418 289 418 289 395 289 c 0,107,108
 376 289 376 289 364 277.5 c 128,-1,109
 352 266 352 266 352 252 c 2,97,-1
EndSplineSet
Substitution2: "+BBUENAQ4BD0EOARHBD0EMARP +BD8EPgQ0BEEEQgQwBD0EPgQyBDoEMAAA lookup 47 subtable" kalaUIorya
Ligature2: "'pres' Pre Base Substitutions lookup 45 subtable" kaorya lasubscriptorya
Ligature2: "'akhn' Akhand lookup 37 subtable" kaorya viramaorya laorya
Ligature2: "+BB8EPgQ0BEEEQgQwBD0EPgQyBDoEMAAA +BDsEOAQzBDAEQgRDBEAESwAA lookup 10 subtable" kaorya lasubscriptorya
EndChar

StartChar: kallaUIorya
Encoding: 65616 -1 132
Width: 636
GlyphClass: 2
Flags: W
AnchorPoint: "+BBEENQQ3BEsEPARPBD0EPQQ+BDUA--5" 562 -3 basechar 0
AnchorPoint: "+BBEENQQ3BEsEPARPBD0EPQQ+BDUA--3" 327 0 basechar 0
AnchorPoint: "+BBEENQQ3BEsEPARPBD0EPQQ+BDUA--2" 327 657 basechar 0
LayerCount: 2
Fore
SplineSet
200 -8 m 0,0,1
 199 46 199 46 223.5 78.5 c 128,-1,2
 248 111 248 111 281 123 c 1,3,-1
 281 189 l 1,4,5
 255 169 255 169 220 169 c 0,6,7
 172 169 172 169 139.5 204 c 128,-1,8
 107 239 107 239 107 291 c 1,9,10
 66 326 66 326 49 367.5 c 128,-1,11
 32 409 32 409 32 447 c 0,12,13
 32 507 32 507 64 557 c 128,-1,14
 96 607 96 607 155.5 637 c 128,-1,15
 215 667 215 667 295 667 c 0,16,17
 360 667 360 667 409.5 652 c 128,-1,18
 459 637 459 637 496 613 c 128,-1,19
 533 589 533 589 558.5 563 c 128,-1,20
 584 537 584 537 600 516 c 1,21,-1
 553 467 l 1,22,-1
 543 467 l 1,23,24
 524 495 524 495 489 526 c 128,-1,25
 454 557 454 557 402 579 c 128,-1,26
 350 601 350 601 280 601 c 0,27,28
 199 601 199 601 149.5 560.5 c 128,-1,29
 100 520 100 520 100 458 c 0,30,31
 100 437 100 437 108 415.5 c 128,-1,32
 116 394 116 394 136 375 c 1,33,34
 152 395 152 395 176 407 c 128,-1,35
 200 419 200 419 228 419 c 256,36,37
 256 419 256 419 278.5 405 c 128,-1,38
 301 391 301 391 315 370 c 1,39,40
 332 394 332 394 358.5 406.5 c 128,-1,41
 385 419 385 419 411 419 c 0,42,43
 455 419 455 419 480.5 390 c 128,-1,44
 506 361 506 361 506 294 c 2,45,-1
 506 129 l 1,46,47
 562 111 562 111 562 15 c 2,48,-1
 562 -145 l 1,49,-1
 510 -156 l 1,50,-1
 498 -148 l 1,51,-1
 498 -11 l 2,52,53
 498 32 498 32 486 52 c 128,-1,54
 474 72 474 72 455 72 c 0,55,56
 442 72 442 72 429.5 62 c 128,-1,57
 417 52 417 52 417 34 c 2,58,-1
 417 -141 l 1,59,-1
 366 -157 l 1,60,-1
 354 -148 l 1,61,-1
 354 -18 l 2,62,63
 354 72 354 72 307 72 c 0,64,65
 290 72 290 72 277 56.5 c 128,-1,66
 264 41 264 41 264 3 c 0,67,68
 264 -22 264 -22 269 -62 c 128,-1,69
 274 -102 274 -102 284 -140 c 1,70,-1
 226 -155 l 1,71,-1
 216 -146 l 1,72,73
 209 -108 209 -108 204.5 -67.5 c 128,-1,74
 200 -27 200 -27 200 -8 c 0,0,1
166 306 m 0,75,76
 166 271 166 271 188 249 c 128,-1,77
 210 227 210 227 235 227 c 0,78,79
 258 227 258 227 271 242.5 c 128,-1,80
 284 258 284 258 284 280 c 0,81,82
 284 315 284 315 263 337.5 c 128,-1,83
 242 360 242 360 215 360 c 0,84,85
 192 359 192 359 179 344 c 128,-1,86
 166 329 166 329 166 306 c 0,75,76
348 316 m 2,87,-1
 348 129 l 1,88,89
 362 125 362 125 374.5 115.5 c 128,-1,90
 387 106 387 106 395 90 c 1,91,92
 416 111 416 111 439 122 c 1,93,-1
 439 271 l 2,94,95
 439 309 439 309 426.5 331 c 128,-1,96
 414 353 414 353 391 353 c 0,97,98
 372 353 372 353 360 341.5 c 128,-1,99
 348 330 348 330 348 316 c 2,87,-1
EndSplineSet
Ligature2: "+BB8EPgQ0BEEEQgQwBD0EPgQyBDoEMAAA +BDsEOAQzBDAEQgRDBEAESwAA lookup 11 subtable" kaorya llasubscriptorya
EndChar

